<?xml version="1.0" encoding="UTF-8"?>
<svg id="Capa_1" xmlns="http://www.w3.org/2000/svg" version="1.1" viewBox="0 0 542.88 193.06">
  <!-- Generator: Adobe Illustrator 30.0.0, SVG Export Plug-In . SVG Version: 2.1.1 Build 123)  -->
  <defs>
    <style>
      .st0 {
        fill: #12263e;
      }
    </style>
  </defs>
  <g>
    <path class="st0" d="M182.95,191.1v-33.47c0-.8.45-1.25,1.15-1.25h2.56c.85,0,1.3.45,1.3,1.25v13.98h25.86v-13.98c0-.8.45-1.25,1.15-1.25h2.56c.85,0,1.3.45,1.3,1.25v33.47c0,.8-.45,1.25-1.3,1.25h-2.56c-.7,0-1.15-.45-1.15-1.25v-14.68h-25.86v14.68c0,.8-.45,1.25-1.3,1.25h-2.56c-.7,0-1.15-.45-1.15-1.25Z"/>
    <path class="st0" d="M251.47,155.67c-11.68,0-21,7.72-21,18.69s9.32,18.69,21,18.69,21.05-7.72,21.05-18.69-9.37-18.69-21.05-18.69ZM251.47,188.3c-8.72,0-15.73-5.71-15.73-13.93s7.01-13.93,15.73-13.93,15.79,5.71,15.79,13.93-7.07,13.93-15.79,13.93Z"/>
    <path class="st0" d="M284.16,191.1v-33.47c0-.8.45-1.25,1.15-1.25h2.51c.7,0,1.2.2,1.6.75l16.29,21.4,16.29-21.4c.45-.55.9-.75,1.6-.75h2.51c.7,0,1.15.45,1.15,1.25v33.47c0,.8-.45,1.25-1.15,1.25h-2.56c-.85,0-1.3-.45-1.3-1.25v-26.06l-15.29,20.04c-.3.4-.65.65-1.25.65s-.95-.25-1.25-.65l-15.28-20.04v26.06c0,.8-.45,1.25-1.3,1.25h-2.56c-.7,0-1.15-.45-1.15-1.25Z"/>
    <path class="st0" d="M338.9,191.1v-33.47c0-.8.45-1.25,1.15-1.25h32.22c.85,0,1.3.45,1.3,1.25v2.26c0,.8-.45,1.25-1.3,1.25h-28.36v10.47h20.34c.85,0,1.3.45,1.3,1.25v2.26c0,.8-.45,1.25-1.3,1.25h-20.34v11.22h28.36c.85,0,1.3.45,1.3,1.25v2.26c0,.8-.45,1.25-1.3,1.25h-32.22c-.7,0-1.15-.45-1.15-1.25Z"/>
  </g>
  <path class="st0" d="M0,117.43V4.17h52.07c22.15,0,35.5,9.13,35.5,28.23,0,13.18-7.44,22.15-21.98,24.34v1.35c17.24,2.2,26.03,13.36,26.03,28.23,0,19.27-13.69,31.11-37.53,31.11H0ZM18.26,51.17h32.12c13.69,0,19.1-3.72,19.1-15.21s-4.9-15.38-18.6-15.38H18.26v30.6ZM18.26,101.04h35.33c13.69,0,19.61-3.89,19.61-17.24s-5.92-17.41-19.61-17.41H18.26v34.66Z"/>
  <path class="st0" d="M104.86,75.34c0-26.03,15.55-43.62,40.57-43.62,22.65,0,38.54,13.52,38.54,36.51,0,4.39-.51,8.96-1.01,11.5h-61.03c.68,15.38,6.25,23.16,23.84,23.16,14.03,0,19.44-4.73,19.44-12.34v-1.35h18.09v1.52c0,17.24-15.04,28.4-37.7,28.4-27.72,0-40.74-17.58-40.74-43.78ZM122.11,67.56h44.46c.68-14.37-7.1-20.46-21.47-20.46-15.89,0-21.98,7.44-22.99,20.46Z"/>
  <path class="st0" d="M198.51,117.43V33.42h16.74v15.72h.68c3.89-8.96,12.85-17.41,29.25-17.41,21.81,0,31.61,13.86,31.61,32.96v52.74h-18.26v-48.69c0-15.04-4.73-21.3-20.12-21.3s-21.64,5.75-21.64,21.47v48.52h-18.26Z"/>
  <path class="st0" d="M289.36,96.64c0-13.86,10.14-21.13,28.06-23.67l29.41-4.39v-4.56c0-12.51-5.75-16.23-18.93-16.23s-18.6,4.23-18.6,15.38v2.53h-17.58v-1.69c0-18.77,14.71-32.29,37.19-32.29s35.33,14.2,35.33,34.66v51.05h-16.9v-13.18h-.85c-4.9,7.94-14.54,14.88-30.43,14.88-15.05,0-26.71-7.78-26.71-22.48ZM321.98,104.59c11.83,0,24.85-4.73,24.85-21.64v-1.52l-26.71,4.06c-9.64,1.35-13.02,3.55-13.02,9.81,0,6.59,4.23,9.3,14.88,9.3Z"/>
  <path class="st0" d="M463.76,75.1c0-26.03,15.55-43.62,40.57-43.62,22.65,0,38.54,13.52,38.54,36.51,0,4.39-.51,8.96-1.01,11.5h-61.03c.68,15.38,6.25,23.16,23.84,23.16,14.03,0,19.44-4.73,19.44-12.34v-1.35h18.09v1.52c0,17.24-15.04,28.4-37.7,28.4-27.72,0-40.74-17.58-40.74-43.78ZM481.01,67.32h44.46c.68-14.37-7.1-20.46-21.47-20.46-15.89,0-21.98,7.44-22.99,20.46Z"/>
  <path class="st0" d="M481.01,20.46h44.46c.68-14.37-7.1-20.46-21.47-20.46-15.89,0-21.98,7.44-22.99,20.46Z"/>
  <path class="st0" d="M403.55,117.43l-34.32-85.71h20.69l25.01,67.95h1.21l25.18-67.95h20.18l-34.49,85.71h-23.45Z"/>
</svg>