<?xml version="1.0" encoding="UTF-8"?>
<svg id="Capa_1" xmlns="http://www.w3.org/2000/svg" version="1.1" viewBox="0 0 291.1 265.81">
  <!-- Generator: Adobe Illustrator 30.0.0, SVG Export Plug-In . SVG Version: 2.1.1 Build 123)  -->
  <defs>
    <style>
      .st0 {
        fill: #63bde0;
      }
    </style>
  </defs>
  <path class="st0" d="M77.73.04c18.19-.68,41.74,8.24,55.19,20.51,3.16,2.88,10.1,14.62,13.77,13.86C188.6-26.11,284.94.5,290.77,73.64c5.32,66.81-55.18,113.25-99.46,153.46-7.43,6.74-36.97,37.44-43.47,38.52-1.73.29-3.3.32-4.95-.37l-81.43-72.13C29.24,157.85-8.82,117.76,1.82,65.5,9.29,28.85,39.73,1.45,77.73.04ZM75.93,22.71c-39.6,3.07-60.03,43.2-50.73,79.41,9.12,35.49,53.82,77.42,80.69,102.37,4.78,4.44,38.13,34.24,40.75,33.79,29.45-28.3,63.08-55.43,90.08-86.07,21.85-24.79,38.69-54.12,29.08-88.45-11.86-42.35-68.65-55.37-97.07-21.39-7.2,8.61-10.57,25.87-23.54,25.34-11.47-.46-16.03-18.78-23.63-27.09-10.82-11.82-29.6-19.16-45.62-17.92Z"/>
</svg>