<?xml version="1.0" encoding="UTF-8"?>
<svg id="Capa_1" xmlns="http://www.w3.org/2000/svg" version="1.1" viewBox="0 0 325.4 300.02">
  <!-- Generator: Adobe Illustrator 30.0.0, SVG Export Plug-In . SVG Version: 2.1.1 Build 123)  -->
  <defs>
    <style>
      .st0 {
        fill: #63bde0;
      }
    </style>
  </defs>
  <path class="st0" d="M189.41,49.44c21.92-16.98,49.56-31.62,76.92-17.58,4.62,2.37,17.22,13.76,18.56,14.1,3.2.83,6.91-1.49,10.79-1.32,26.96,1.17,40.74,37.32,18.95,56.04-26.47,22.74-62.17-4.03-50.44-36.59-33.09-1.55-13.01,46.63-8.86,64.96,1.65,7.28,1.39,15.55,4,22.86,16.38-5.14,36,9.78,37.41,26.84,1.52,18.41-8.6,34.08-24.92,41.77-3.8,1.79-11.22,2.49-13.35,4.55-1.46,1.41-7.32,17.05-9.7,21.2-44.03,76.72-127.1,68.75-166.5-7.58-1.87-3.62-4.23-13.27-5.92-15.23-.88-1.02-17.8-4.75-24.36-9.79-29.63-22.74-16.58-67.61,23.47-63.47,1.45-10.32,2.88-20.76,5.78-30.81,8.13-28.27,32.07-56.82-20.33-55.3,4.83,10.43,4.36,19.97-1.9,29.82-11.85,18.65-39.28,20.42-52.49,2.6-15.62-21.07-1.46-49.66,24.51-51.87,3.73-.32,6.98,2.27,10.29.82,2.94-1.29,9.21-12.23,12.24-15.55C97.04-17.74,160.98-6.42,189.41,49.44ZM109.69,107.99h49.61l15.15-38.64C162.96,22.18,102.5,2.65,70.65,42.92c39.18-.87,54.7,31.1,39.03,65.07ZM27.9,66.05c-10.14,2.32-10.39,18.68-1.26,21.69,21.9,7.23,23.62-26.82,1.26-21.69ZM289.75,66.05c-13.28,3.05-9.56,27.52,9.06,22.08,9.77-2.86,9.99-26.45-9.06-22.08ZM234.91,130.77l-134.82.15c-11.16,49.29-14.32,98.47,28.35,133.15,50.51,41.05,108.71-9.64,112.97-64.22,1.82-23.41-3.55-46.1-6.5-69.09Z"/>
  <path class="st0" d="M127.03,207.47c8.05-2.76,40.61,8.25,56.52,6.09,7.23-.98,21.37-10.47,26.15.18,3.04,6.77-5.02,20.73-9.22,26.5-17.34,23.83-47.82,25.88-65.48,1-3.92-5.52-18.2-30.27-7.97-33.78ZM181.24,233.24c-9.88.18-19.91.45-29.25-3.27,2.93,10.04,13.15,10.07,21.55,7.73,1.77-.49,7.49-2.26,7.7-4.46Z"/>
  <path class="st0" d="M195.44,152.28c14.15-2.94,36.27,11.93,28.94,24.03-6.57,10.85-18.88-5.96-22.8-5.97-7.57-.02-10.39,20.59-21.26,12.58-10.44-7.69,4.3-28.4,15.11-30.65Z"/>
  <path class="st0" d="M127.13,153.91c16.04-3.32,39.6,13.14,28.84,25.57-8.37,9.68-12.86-5.58-21.22-6.43-7.92-.8-14.73,10.4-21.06,3.35-7.64-8.51,5.05-20.75,13.44-22.49Z"/>
</svg>