<?xml version="1.0" encoding="UTF-8"?>
<svg id="Capa_1" xmlns="http://www.w3.org/2000/svg" version="1.1" viewBox="0 0 442.43 630.3">
  <!-- Generator: Adobe Illustrator 30.0.0, SVG Export Plug-In . SVG Version: 2.1.1 Build 123)  -->
  <defs>
    <style>
      .st0 {
        fill: #fff;
      }

      .st1 {
        font-size: 16.67px;
        letter-spacing: .04em;
      }

      .st1, .st2, .st3, .st4, .st5 {
        fill: #1d0981;
      }

      .st1, .st4 {
        font-family: Gabarito-Regular, Gabarito;
      }

      .st6 {
        fill: none;
        stroke: #1d0981;
        stroke-miterlimit: 10;
        stroke-width: 5px;
      }

      .st2 {
        font-size: 92.95px;
        letter-spacing: .04em;
      }

      .st2, .st5 {
        font-family: Gabarito-Bold, Gabarito;
        font-weight: 700;
      }

      .st4 {
        font-size: 67.38px;
        letter-spacing: .04em;
      }

      .st5 {
        font-size: 14.83px;
        letter-spacing: .04em;
      }

      .st7 {
        fill: #e1384f;
      }
    </style>
  </defs>
  <rect class="st7" y="1.41" width="442.43" height="630.3" rx="30" ry="30"/>
  <path class="st0" d="M320.75,367.37c3.64-.35,6.82-1.2,10.2-2.28,19.2-5.95,21.42-23.97,18.22-41.14-3.18-14.35-8.98-27.91-13.77-41.79-2.59-7-1.23-9.33-.34-16.36-.29-10.22-4.05-20.69-12.63-26.73-5.39-4.12-12.76-4.47-19.36-4.47-7.18,2.07-9.86-2.48-10.34-9.21,1.51-27.74-4.9-55.77-18.59-80.06-8.06-13.08-16.77-27.22-30.69-34.59-13.66-6.82-16.13,9.85-14.88,19.58-.87,1.97-2.05-.84-3.14-1.84-7.1-6.95-13.68-15.64-23.26-19.13l-.16-.04c-13.62-3.13-13.6,12.69-11.86,21.89-.03,3.97,1.62,7.61,1.51,11.35-.1.26-.35.28-.56.26-7.2-4.56-14.73-12.95-24.21-9.8-11.56,5.82-1.89,26.85,1.55,36.01,1.33,4.2,3.63,7.93,5.63,11.86,1.15,2.67,3.8,4.19,5.45,6.33,1.11,1.97.2,4.76-1.47,6.22-3,1.9-7.62,1.21-10.65,3.53-10.89,5.43-13.27,21.63-6.88,31.36,18.69,19.11,14.71-3.87,18.94,34.25-.2,5.81-7.87,8.2-10.53,12.89-9.58,11.83-13.68,26.71-16.41,41.35-1.32,2.58-5.14,8.22-8.63,6.23-4.02-4.27-8.11-8.69-12.86-12.22-4.66-3.65-9.62-6.73-15.25-8.66-2.36-.84-5.06-2.24-7.72-1.98-3.35.49-5.74,4.39-8.99,5.07-2.85.73-7.24-3.23-8.48,1.16-.42,2.35,1.01,4.38,2.06,6.42,2.66,5.31,5.47,10.05,8.15,15.24,7.28,15.58,16.13,30.87,20.08,47.74,1.6,6.41,7.94,8.94,13.05,12.11,5.91,4.92,12.79,8.87,19.59,12.55,7.6,3.94,14.43,8.87,22.29,12.27,2.34,1.26,5.26.79,7.56,1.78,1.44,1.12,1.33,3.37,1.58,5.14.11,3.95.87,7.7,1.2,11.51.75,10.83,2,22.55,1.1,33.48-4.81,6.96-26.91,11.37-22.04,23.05,6.7,6.88,19.06,4.85,27.59,3.7,9.92-.06,20.07-1.29,30.03-2.12,6.67-1.07,15.92-.14,19.61-6.62,3.14-10.92,2.7-22.47,3.68-33.86.38-10.82,2.54,2.91,3.19,5.57,3.18,10.13,4.55,21.04,9.05,30.89,2.55,4.49,8.32,4.29,12.74,5.64,12.4,2.43,57.39,12.16,63.06-1.79,1.7-9.13-9.97-14.7-15.67-20.24-3.45-2.51-3.41-7.16-3.83-11.02-1.78-9.07-.35-39.17-.76-55.61.94-10.61,1.93-20.91,2.46-31.68-.07-2.63,2.26-3.13,4.41-3.19Z"/>
  <text class="st5" transform="translate(103.17 50.88)"><tspan x="0" y="0">CONOCIMIENTO</tspan></text>
  <g>
    <text class="st1" transform="translate(286.34 40.82)"><tspan x="0" y="0">INDEPENDENCIA</tspan><tspan x="0" y="14.63">&amp; REALIZACIÓN</tspan></text>
    <circle class="st6" cx="266.67" cy="37.02" r="8.03"/>
    <line class="st6" x1="260.99" y1="42.7" x2="251.45" y2="52.24"/>
  </g>
  <g>
    <text class="st2" transform="translate(130.62 595.81)"><tspan x="0" y="0">SABIO</tspan></text>
    <text class="st4" transform="translate(35.68 575.58)"><tspan x="0" y="0">EL</tspan></text>
    <rect class="st3" x="71.3" y="559.14" width="6.74" height="66.61" transform="translate(667.11 517.77) rotate(90)"/>
  </g>
  <g>
    <path class="st3" d="M320.75,367.37c3.64-.35,6.82-1.2,10.2-2.28,19.2-5.95,21.42-23.97,18.22-41.14-3.18-14.35-8.98-27.91-13.77-41.79-2.59-7-1.23-9.33-.34-16.36-.29-10.22-4.05-20.69-12.63-26.73-5.39-4.12-12.76-4.47-19.36-4.47-7.18,2.07-9.86-2.48-10.34-9.21,1.51-27.74-4.9-55.77-18.59-80.06-8.06-13.08-16.77-27.22-30.69-34.59-13.66-6.82-16.13,9.85-14.88,19.58-.87,1.97-2.05-.84-3.14-1.84-7.1-6.95-13.68-15.64-23.26-19.13l-.16-.04c-13.62-3.13-13.6,12.69-11.86,21.89-.03,3.97,1.62,7.61,1.51,11.35-.1.26-.35.28-.56.26-7.2-4.56-14.73-12.95-24.21-9.8-11.56,5.82-1.89,26.85,1.55,36.01,1.33,4.2,3.63,7.93,5.63,11.86,1.15,2.67,3.8,4.19,5.45,6.33,1.11,1.97.2,4.76-1.47,6.22-3,1.9-7.62,1.21-10.65,3.53-10.89,5.43-13.27,21.63-6.88,31.36,18.69,19.11,14.71-3.87,18.94,34.25-.2,5.81-7.87,8.2-10.53,12.89-9.58,11.83-13.68,26.71-16.41,41.35-1.32,2.58-5.14,8.22-8.63,6.23-4.02-4.27-8.11-8.69-12.86-12.22-4.66-3.65-9.62-6.73-15.25-8.66-2.36-.84-5.06-2.24-7.72-1.98-3.35.49-5.74,4.39-8.99,5.07-2.85.73-7.24-3.23-8.48,1.16-.42,2.35,1.01,4.38,2.06,6.42,2.66,5.31,5.47,10.05,8.15,15.24,7.28,15.58,16.13,30.87,20.08,47.74,1.6,6.41,7.94,8.94,13.05,12.11,5.91,4.92,12.79,8.87,19.59,12.55,7.6,3.94,14.43,8.87,22.29,12.27,2.34,1.26,5.26.79,7.56,1.78,1.44,1.12,1.33,3.37,1.58,5.14.11,3.95.87,7.7,1.2,11.51.75,10.83,2,22.55,1.1,33.48-4.81,6.96-26.91,11.37-22.04,23.05,6.7,6.88,19.06,4.85,27.59,3.7,9.92-.06,20.07-1.29,30.03-2.12,6.67-1.07,15.92-.14,19.61-6.62,3.14-10.92,2.7-22.47,3.68-33.86.38-10.82,2.54,2.91,3.19,5.57,3.18,10.13,4.55,21.04,9.05,30.89,2.55,4.49,8.32,4.29,12.74,5.64,12.4,2.43,57.39,12.16,63.06-1.79,1.7-9.13-9.97-14.7-15.67-20.24-3.45-2.51-3.41-7.16-3.83-11.02-1.78-9.07-.35-39.17-.76-55.61.94-10.61,1.93-20.91,2.46-31.68-.07-2.63,2.26-3.13,4.41-3.19ZM176.7,213.31c-.15,1.61-.65,3.04-.84,4.63-.22,2.54-.17,6.52-.08,9.36-.01,1.35.57,2.34.04,3.35-.87.93-2.63.38-3.85-.15-4.03-2.05-7.73-5.91-8.59-10.44-1.81-6.48.64-14.21,6.59-17.86,1.45-.86,3.43-1.75,5.31-2.06.75-.14,1.36-.08,1.75.34l.09.1c1.32,1.97-.42,4.36-.44,6.5-.11,1.99.22,4.31.02,6.25ZM335.62,299.19c3.83,9.89,7.32,19.8,9.07,30.25.04,2.7,0,8.36.02,11.63.02,2.51-.4,3.16-1.17,5.28-.87,2.85-2.22,5.1-4.17,7.51-3.2,3.83-8,5.76-12.69,7.1-2.42.44-5.79,1.77-8.47,1.38-1.65-.42-2-3.3-1-4.87l.08-.14c.62-1.02,1.75-1.55,2.57-2.4,2.84-3.02,3.11-8.57.71-11.97-1.15-1.93-4.48-2.01-4.87-4.24-.09-1.35.59-2.42,1.06-3.67,1.63-4.84,3.41-9.61,4.09-14.62,1.22-6.35,1.19-13.02-.03-19.37-.97-5.1-1.53-10.3-3.75-15.04-1.39-3.27-2.56-4.96,1.96-5.87,2.3-.62,4.71-1.29,6.98-2.03,1.29-.39,2.07.34,2.56,1.49,1.57,2.93,2,6.41,3.26,9.46,1.58,3.05,2.2,6.89,3.78,10.12ZM216.12,352.59c.93,1.67.44,4.43.46,6.73.07,2.12.58,4.19,1.94,5.79,1.44,1.95,3.98,3,5.43,4.68.85,1,1.46,2.3,2.23,3.43,1.26,2.07,3.23,3.6,4.87,4.45,3.35,1.61,6.59,2.72,10.36,2.65,2.87,0,7.38,0,10.06,0,1.45,0,2.4.21,2.51.61l.02.06c.03.18-.07.39-.27.59-1.29,1.13-3.02,1.49-4.58,2.23-2.04,1.07-4.51,1.52-6.71,2.32-2.51,1.06-5.05,1.86-7.67,2.68-8.45,3.77-17.31,6.82-26,9.89-3.06,1.23-6.24,2.26-9.29,3.34-1.93.63-3.92,1.69-5.97,1.46-.95-.17-1.66-.83-2.23-1.84-.93-1.91-1.91-3.83-2.83-5.73-.91-1.9-1.6-4.03-2.6-5.92-.9-1.77-2.07-3.96-2.98-5.76-1.08-1.99-1.77-4.41-2.73-6.41-2.29-4.33-4.11-9.04-6.27-13.36-.97-2.1-2.08-3.98-3.11-6.08-1.28-3.04-2.46-6.07-4.02-8.96-1.34-3.05-3.2-5.76-4.3-8.91-.7-1.77-1.43-3.34-2.31-4.89-.46-.85-.79-1.99-.46-2.8.57-1.4,2.4-2.31,3.81-3,3.28-1.77,6.6-3.36,9.94-4.96,2.07-1.05,3.94-2.2,5.93-3.38,2-1.22,4.51-2.09,6.48-3.22,5.46-3.09,11.23-5.8,16.74-8.81,3.09-1.59,6.28-2.97,9.23-4.91,2.08-1.14,4.33-2.14,6.43-3.27.74-.42,1.74-.86,2.45-.66,1.36.39,1.86,2.13,2.45,3.39,1.56,2.87,2.65,5.82,3.92,8.87,1.89,4.34,3.7,8.89,5.67,13.2.19.48.25.45.47,1.07.58,1.64,2.05,3.86,1.07,5.46-.93,1.25-2.51,1.38-3.95,2.01-2.02.61-3.73,1.3-5.63,2.2-2.28,1.04-4.89,2.04-6.65,3.96-3.15,3.33-4,7.73-1.89,11.81ZM249.7,374.91c-6.01.03-12.05.64-17.19-2.25-1.2-1.17,4.37-.99,5.24-1.29l.16-.02c2.61-.56,5.93-.84,8.04-2.74,1.82-1.55.83-4.03-1.29-4.07-1.35-.1-2.66.3-3.97.61-2.2.5-5.04.94-7.45,1-3.67-.07-10.75-1.76-10.99-6.17.44-3.47,5.83-1,8.36-1.41,3.31-.18,5.83-.59,8.69-1.58.82-.33,1.34-.64,1.9-1.21,2.03-2.17-.11-4.45-2.69-3.94-5.02,1.09-11.18,2.22-15.8-.22-4.13-2.38-2.2-6.63,1.45-8.25,2.67-1.54,5.67-2.44,8.49-3.73,2.65-1.12,5.65-1.92,8.13-3.5,1.48-.82,3.8-2.34,2.74-4.25-.61-1.08-2.14-1.18-3.02-1.74-1.21-.63-1.75-1.95-2.29-3.23-3.19-6.25,4.82-3.93,7.96-2.56,2.04.89,3.87,2.27,6.21,2.21,2.33.02,4.5-.89,6.53-1.96,3.59-1.84,6.64-3.85,9.78-6.67,5.9-5.61,10.11-12.04,12.12-19.88.53-2.79-1.02-5.54-.75-8.25.09-1.53.61-3.06,1.01-4.59,1.97-6.29,6.17-11.67,11.4-15.69,1.69-1.31,3.43-2.36,5.26-3.17,1.23-.64,2.41-.96,3.48-.27,1.99,1.69,3.12,5.09,4.52,7.4,1.81,3.69,3.76,7.14,5.09,11.09,4.54,11.17,6.86,23.23,5.1,35.27-.68,4.57-2.15,8.37-3.65,12.57-3.13,6.95-7.27,13.4-12.24,19.16-2.69,2.79-6.04,5.42-9.03,7.88-4.92,3.61-10.2,6.67-15.89,8.97-2.01,1.07-4.03,1.76-6.32,2.32-1.71.43-3.31,1.03-4.91,1.72-2.42,1.07-5.39,1.16-7.98,1.54-2.1.35-3.94.84-6.2.9ZM298.54,241c.72-.33,1.59-.4,2.38-.53,2.25-.31,4.1-1.19,6.15-.52l.16.04c4.66.85,9.69,1.39,13.34,4.68,2.29,1.95,3.73,4.48,5.16,7.05,1.46,2.27,2.41,4.99,2.87,7.65,2.55,7.47.73,13.2-7.54,15.06-2.16.67-4.45,1.62-6.82,1.32-2.16-.29-2.56-1.82-3.56-3.65-.63-1.31-1.3-2.77-1.94-3.84-.71-1.54-2.01-2.83-1.92-4.61.05-1,.46-1.62.81-2.51.89-2.06.66-5.34-.1-7.38-.64-2.09-2.63-3.58-4.61-4.51-1.56-.73-2.81-.96-3.85-1.98-.74-.75-.91-1.84-1.15-2.84-.2-1.18-.7-2.82.64-3.42ZM301.17,254l.13.09c1.52,1.06,2.08,3.29.91,4.35-1.08.95-2.74,1.37-4.01,1.94-3.65,1.68-7.02,3.53-10.22,6.04-5.64,4.59-9.79,10.87-12.4,17.56-1.24,3.04-1.44,6.44-1.72,9.71-.24,1.54-.32,2.41-.17,3.7.41,2.04.45,4.05-.56,5.93-.93,1.56-1.71,3.96-3.1,5.29-1.12.71-1.65-.53-1.91-1.69-.35-1.74-.96-3.16-1.25-4.88-.4-4.2-.37-8.86.85-12.86.48-3.41,1.47-6.82,2.71-9.69,2.27-5.55,5.34-10.75,9.55-15.11,3-3.06,6.47-5.19,9.79-7.33,1.57-.86,3.18-1.58,4.83-2.38,1.93-.94,4.6-1.97,6.58-.66ZM287.26,206.55c-.02,2.43.57,4.64.78,7.03.21,4.42.16,9.44-.19,13.37-.05,2.97,1.64,6.03,2.49,9.09,1.01,3.82,2.51,7.09,2.94,10.97.01.43,0,1.31-.32,1.75-.82,1.43-3.28,2.16-4.66,3.05-3.32,2.07-6.62,4.05-9.5,6.86-5.85,5.55-10.22,12.1-13.03,19.53-1.54,3.73-2.85,7.79-3.02,11.86-.65,3.77-1.47,8.38-.54,12.26.7,3.16.6,6.55,1.75,9.69.24.95.42,1.77.08,2.75-.63,1.75-2.78,2.78-4.16,3.89-1.93,1.41-4.34,2.63-6.78,2.82-2.35.3-4.81-1.23-6.99-2.18-2.03-.95-4.27-1.03-6.61-.95-1.74.07-3.84.07-5.09-1.17-.96-.97-1.48-2.37-2.07-3.6-.73-1.55-1.41-3.13-2.13-4.68-.19-.4-.18-.38-.27-.57l-.14-.29c-1.44-2.41-2.26-5.55-3.29-8.09-.84-2.24-2.69-4.41-5.3-4.22-1.33.02-2.79.23-3.92-.53-1.49-1-3.32-3.15-5.33-3.82-2.74-.8-2.73-3.69-3.3-6.28l-.05-.16c-.25-1.11-1.13-2.27-1.6-3.3-.92-2.05,1.72-2.6,3.13-3.37,12.25-5.97,5.81-18.97-6.12-19.06-3.93-.11-8-.31-11.57.74-3.38.82-7.8,4.38-8.43-1.4-.33-2.95-.65-5.9-1-8.88-.42-2.87-.99-5.64-1.17-8.69-.33-2.55.55-4.29,3.1-4.97,4.11-1.08,7.79-4.03,10.1-7.49.83-1.18,1.76-2.34,2.26-3.69,1.16-2.19,1-5.31,1.65-7.81.46-1.82,2.54-2.54,4.04-1.56,1.73,1.13,1.95,3.51,3.04,5.15,2.68,4.9,7.11,9,12.38,10.9,11.87,3.92,24.82-1.55,28.31-14.12.79-2.3.99-4.51,1.18-6.94,0-3.01,2.35-4.3,4.92-4.84,2.29-.7,4.29-1.14,6.63-1.94,2.98-.96,5.94-1.73,8.89-2.8,2.55-.91,5.6-1.2,8.07-2.41,2.83-1.28,6.53-2.61,9.04,0,2.04,2.13,1.83,5.27,1.8,8.1ZM182.02,211.04c-.19-2.6.56-4.62.71-6.92.09-1.01.19-3.04,1.46-3.04h.11c1.11.1,2.49,1.55,3.59,2.35,2.49,2.38,4.38,5.19,5.4,8.49,1.65,4.9-.29,10.98-3.39,14.97-2.04,2.08-7.67,7.95-7.99,1.57-.55-2.89-.97-6.35-.55-9.26.21-1.49.63-2.87.72-4.39.08-1.23-.03-2.52-.06-3.76ZM210.09,209.85c-.23-9.34,9.44-17.17,18.54-15.06l.16.04c3.94,1.1,7.69,3.83,10.27,7.13,4.3,7.53,3.09,19.09-5.24,23.05-1.97,1.11-4.18,2.15-6.7,2.28-3.01-.1-6.43-1.08-8.99-2.3-5.42-3.52-8.23-8.4-8.04-15.14ZM179.8,180.1c-.66-.94-.94-1.87-1.29-2.9-.53-1.48-1.39-2.94-2.19-4.29-1.27-2.16-2.01-4.7-2.99-6.99-2.38-5.39-4.51-11.36-5.43-17.13-.46-2.36-1.06-5.08-.66-7.56,2.29-10.38,20.94,7.05,24.22,10.9,1.81,2.08,3.06,4.36,4.78,6.57,1.6,2.24,3.96,7.19,7.19,4.76,1.47-1.55.21-3.89-.44-5.75-1.05-2.43-1.98-5.65-2.88-8.15-1.97-4.99-2.93-10.34-3.82-15.56-.87-5.28-1.68-10.95-.81-16.17,2.54-8.9,13.99,2.63,17.65,5.73,4.17,3.94,7.61,8.48,11.16,12.86,3.81,4.57,6.26,9.75,9.39,14.77,1.28,2.12,1.83,5.94,5.02,5.52,4.46-1.09.47-6.86-.21-9.35-1.26-2.48-2.04-5.23-2.47-7.96-1.35-7.33-3.58-16.56,0-23.51,4.13-4.22,13.79,6.3,16.57,9.41,1.78,2.37,4.19,4.52,5.97,6.82,2.39,3.2,4.44,6.49,6.67,9.82,3.93,6.38,7.76,13.09,10.53,20.11,4.32,10.14,8.08,20.69,9.02,31.73.05.76.02,1.44-.06,1.81-.02.23-.19.42-.33.2-.36-.41-.57-2.23-1.26-3.04l-.09-.1c-1.06-.97-2.77-.12-4.07.07-2.83.85-5.13,1.59-7.93,2.14-3.96,1.27-8.05,2.37-12.11,3.77-3.28,1.3-7.22,1.84-10.61,3.37-2.04.79-3.29-.93-4.37-2.61-1.09-1.44-2.19-2.97-3.75-4.29-1.8-1.53-3.41-2.94-5.48-4.07-3.73-1.36-7.9-2.68-11.96-2.04-8.31,1.35-15.68,7.41-17.88,15.63-.36,1.44-.41,3.42-1.78,4.22-1.24.74-2.88,1.04-4.17.35-.91-.48-1.35-1.5-1.86-2.37-.89-1.53-1.86-3.03-3.01-4.39-1.51-1.86-4.08-4.11-5.99-5.1-1.19-.68-2.61-1.27-3.05-2.67-.99-2.87,1.31-5.97.18-8.79-.96-2.72-3.82-3.62-5.4-5.76ZM161.29,302.53c1.18-3.1,2.22-6.49,3.44-9.58,3.29-7.46,7.65-14.76,14.1-19.88,2.7-2.19,5.34-4.45,8.63-5.62,1.16-.46,2.29-1.01,3.42-1.54,1.4-.65,2.75-1.04,4.71-1.27,3.67-.24,8.97-1.06,12.54,0l.13.05c3.44,1.45,5.05,5.72,1.04,7.82-.92.56-1.99,1-3.04,1.32-3.42,1.04-5.99,1.97-9.08.59-2.72-.75-8.47-1.62-10.16,1.35-.95,2.5,2.18,3.72,4.24,3.59,4.11-.08,7.22,1,10.18,3.5,1.09.96,2.64,2.68,2.22,4.17-.3.42-.73.31-1.2.22-1.53-.6-2.96-1.57-4.72-2.13-2.34-.99-10.68-2.03-11.82,1.15-.45,1.17.33,2.49,1.63,2.9,2.62.9,5.95-.06,8.37,1.21,1.33.58,3.65,1.92,1.16,2.86-8.97,3.08-17.48,6.81-25.66,11.65-2.46,1.64-4.94,3.15-7.42,4.75-7.92,6.21-3.77-3.05-2.71-7.11ZM148.84,329.3c9.81-10.3,21.58-18.49,34.24-24.8,3.12-1.58,6.28-2.95,9.45-4.42,2.23-.89,4.66-1.32,6.79-2.26,2.23-1.09,4.77-1.15,7.24-1.46,1.58-.23,3.09-.65,4.66-.39l.15.03c.73.19,1.37.62,1.54,1.31.02,2.28-3.35,2.87-4.84,3.97-2.56,1.44-5.25,2.29-7.75,3.91-5.18,2.85-10.33,5.72-15.65,8.18-1.88.94-3.83,2.16-5.68,3.11-1.8.85-3.55,1.81-5.23,2.87-4.08,1.98-8.18,3.95-12.21,6.02-1.97,1.29-4.5,2.2-6.45,3.24-1.14.86-10.13,4.81-6.25.7ZM104.61,308.05c.9-1.31,2.4-2.43,4.03-2.69h.15c1.94,0,3.56,1.01,5.33,1.73,2.36.82,4.75,1.81,6.93,3.21,3.32,1.71,6.35,3.75,9.11,6.31,1.76,1.63,3.85,2.64,5.36,4.5,2.08,2.78,5.02,5.42,6.78,8.54,1.8,3.81-5.22-.53-6.35-1.06-4.02-2.18-8.19-4.23-11.95-6.79-4.8-3.28-9.75-5.77-14.62-8.93-1.24-.77-2.48-1.45-3.65-2.3-.97-.58-1.75-1.57-1.12-2.51ZM161.1,398.7c-6.52-3.93-13.73-6.99-19.79-11.97-3.07-2.31-6.47-4.09-9.37-6.16-1.12-.63-2.23-1.45-2.98-2.44-2.47-3.6-3.45-8.12-4.75-12.23-2.18-5.61-3.82-11.06-6.54-16.19-2.23-5.66-5.26-10.89-7.85-16.35-2.12-3.92-4.38-7.83-6.4-11.8-.4-1.04-5.52-7.97-3.11-7.83h.1c1.37.2,2.84,1.34,4.06,2.1,1.23.77,2.62,1.61,3.92,2.35,3.47,1.95,7.07,4.2,10.39,6.24,2.02,1.15,4.27,2.35,6.26,3.69,2.86,1.72,3.69,5.1,5.33,7.82,1.34,2.88,3.15,5.65,4.61,8.56,2.26,4.61,4.99,8.39,7.08,13.17,2.4,4.32,4.98,8.48,6.78,13.03.68,1.55,1.66,2.83,2.42,4.31,2.75,5.32,5.87,10.49,8.41,15.98.58,1.97,7.77,11.04,1.45,7.74ZM183.56,408.88c-2.7.47-5.64.02-8-1.39-2.45-1.62-3.81-4.49-5.13-7.11-1.45-2.84-3.01-5.7-4.43-8.53-3.13-5.67-6.06-11.66-9.32-17.15-1.32-2.29-2.3-4.9-3.65-7.12-2.56-5.06-5.7-10.12-8.08-15.26-2.99-4.91-5.5-9.98-8.3-14.93-.67-1.45-.73-2.14.85-2.06,3,.06,6.04,1.59,9.06.83,1.99-.34,3.79-.91,5.78-1.11.41-.04.81.04,1.19.17l.12.05c.7.29,1.25,1.18,1.65,1.95.99,2,2.09,3.68,2.9,5.73,1.11,3.15,3.05,5.9,4.32,8.89,2.06,3.99,3.58,8.3,5.91,12.13,1.08,2.43,2.36,5.56,3.76,7.99.82,1.83,1.51,3.9,2.5,5.6,1.86,3.87,3.94,7.67,5.79,11.61.95,1.96,1.76,4.81,3.07,6.87.28.49.48.83.77,1.38.72,1.38,1.49,2.84,2.2,4.2.69,1.33,1.55,2.75,1.38,4.3-.19,2.01-2.55,2.62-4.32,2.95ZM323.66,480.37c2.33,1.58,5.86,4.38,4.77,7.31-2.03,3.33-6.63,2.19-10.21,2.97-4.98.86-10.12-.13-15-.51-8.03-.36-15.64-2.14-23.58-2.92-5.06-1.55-11.72-1.64-16.07-4.72-3.36-4.51-3.63-10.71-5.38-15.84-3.06-12.08-5.71-24.08-8.74-36.25-1.89-6.66-2.39-14.15-4.91-20.46-1.24-2.06-4.27-1.83-4.64.99-.33,3.22,1,6.52,1.38,9.79.41,2.17-.07,4.13-.2,6.33.13,3.93.29,7.67-.58,11.43-.66,4.27.51,9.29-.2,13.33-1.01,4.67-.19,9.74-1.17,14.33-.04,3.83-.9,7.17-1.39,10.73-.14,1.32-.56,2.74-1.41,3.71-1.41,1.58-3.92,1.69-5.91,2.03-3.38.33-6.18,1.32-9.82,1.31-8.71,1.02-17.71,1.1-26.45,2.21-3.02.08-6.32-.37-9.3-.12-2.3.3-4.21,1.03-6.32.52-1.84-.46-3.95-.45-5.95-.66-7.34-2.06,6.76-8.89,9.04-10.75,3.57-2.45,8.73-3.8,10.65-8.15,1.78-3.61.72-8.23.3-12,.5-5.42-.85-10.57-.67-15.86.14-2.82-.75-4.88-.96-7.41.03-3.15-.1-6.3-.6-9.33.35-3.74-1.77-8,.21-11.31,1.79-2.06,5.08-2.86,7.62-3.69,3.57-.91,6.86-2.65,10.32-3.88,3.62-1.03,6.99-2.57,10.55-3.79,2.04-.48,4.05-1.19,5.82-2.1,3.73-1.31,7.43-2.34,11-4.09,3.92-1.4,7.68-2.75,11.44-4.41,3.34-1.92,12.62-2.84,12.71-7.44-.05-1.44.05-2.98,1.57-3.6,4.39-1.37,9.43-2.66,13.73-4.38,6.63-2.38,12.67-5.89,18.53-9.79,4.1-2.34,7.06-7.13,11.55-8.58l.15-.02c2.1.07,5.62.31,5.54,3.08.06,2.86.04,9.06.04,12.07-.57,6.74-1.65,13.17-1.46,19.99-1.69,6.19-.81,14.67-.96,21.73.1,2.8-.4,3.53-.78,5.67-.64,6.19-.46,15.79-.18,21.88,1.18,5.28,1.15,10.71.88,16.13.94,4.59.62,9.62,3.08,13.7,2.97,4.36,8.01,7.33,12,10.82ZM314.87,351.02c-2.23.1-4.62.38-6.49-.96-.12-.12-.05-.21.08-.4.19-.24.47-.69.55-.85.23-.5.56-.99.96-1.38.77-.78,1.17-3.24,2.77-2.38l.12.07c.8.82,3.09.5,3.77,1.43,1.13,1.23.15,4.62-1.77,4.47Z"/>
    <path class="st3" d="M230.51,235.28l-.13-.04c-3.18-.59-4,3.22-5.45,5.24-1.63,2.17-3.52,4.25-5.99,5.51-2.83,1.68-5.86,2.46-9.07,3.21-1.5.31-3.59-.05-4.87.67-1.06.53-1.15,1.94-.71,3.04,1.84,3.89,12.57.66,15.45-1.02,3.6-1.53,6.71-3.64,9.1-7.22,1.73-2.16,5.31-7.63,1.66-9.4Z"/>
    <path class="st3" d="M222.93,222.14c.4-.38.86-.81,1.13-1.21.63-1.26.21-3.4.32-4.87.06-1.51.04-2.64-1.06-3.74-.8-1.18-1.74-2.57-3.23-2.78l-.14-.02c-1.68-.26-3.06,1.16-3.37,2.73-.57,2.59-.21,6.25,1.3,8.55,1.35,1.65,3.28,3.06,5.06,1.34Z"/>
    <path class="st3" d="M184.24,223.49c.53.79,1.33,1.48,2.08,2.01,1.44.94,3.24.1,3.97-1.31.58-.94.42-1.9.47-3.1.08-2.3-.04-3.79-1.2-5.68-.57-.87-.78-1.51-1.46-1.9l-.12-.06c-.88-.41-2.96-.57-3.55.52-.44.82-1.16,1.48-1.53,2.31-.32,1.66-.36,3.92.59,5.38.28.52.44,1.27.76,1.83Z"/>
  </g>
  <path class="st3" d="M51,37.26c1.92-3.51,6.29-4.99,10.05-5.77,4.11-.85,11.21-1.36,15.33-.88.6.07,1.05.21,1.47.65l-.15,34.69c-.28.26-.99.42-1.37.43-7.54.31-15.09-1.24-22.01,3.01-1.22.75-2.15,2.15-3.71,2.16-1.44,0-2.35-1.35-3.5-2.1-3.41-2.21-8.14-3.01-12.17-3.23-1.73-.1-10.56.33-11.22-.33l-.08-34.62c.43-.44.88-.58,1.47-.65,5.51-.64,16.27.1,21.21,2.71,1.85.98,3.1,2.63,4.69,3.94ZM49.15,65.69v-24.04c0-1.27-1.7-3.19-2.65-3.99-4.9-4.07-13.64-3.46-19.66-3.58v27.36c7.4-.62,16.21-.5,22.31,4.25ZM74.65,34.08c-6.22-.13-22.35-.19-22.34,8.9,0,7.04.5,14.17.3,21.26-.01.45-.07.78-.28,1.18,1.52-.7,2.87-1.72,4.45-2.32,5.45-2.09,12.13-2.21,17.87-1.66v-27.36Z"/>
</svg>