<?xml version="1.0" encoding="UTF-8"?>
<svg id="Capa_1" xmlns="http://www.w3.org/2000/svg" version="1.1" viewBox="0 0 442.43 630.3">
  <!-- Generator: Adobe Illustrator 30.0.0, SVG Export Plug-In . SVG Version: 2.1.1 Build 123)  -->
  <defs>
    <style>
      .st0 {
        fill: #fff;
      }

      .st1 {
        font-size: 16.67px;
        letter-spacing: .04em;
      }

      .st1, .st2, .st3, .st4, .st5 {
        fill: #1d0981;
      }

      .st1, .st4 {
        font-family: Gabarito-Regular, Gabarito;
      }

      .st2 {
        font-size: 69.81px;
        letter-spacing: .04em;
      }

      .st2, .st5 {
        font-family: Gabarito-Bold, Gabarito;
        font-weight: 700;
      }

      .st6 {
        fill: none;
        stroke: #1d0981;
        stroke-miterlimit: 10;
        stroke-width: 5px;
      }

      .st7 {
        fill: #e9d04f;
      }

      .st4 {
        font-size: 50.61px;
        letter-spacing: .04em;
      }

      .st5 {
        font-size: 18.39px;
        letter-spacing: .04em;
      }
    </style>
  </defs>
  <rect class="st7" y="0" width="442.43" height="630.3" rx="30" ry="30"/>
  <text class="st5" transform="translate(103.17 50.76)"><tspan x="0" y="0">INDEPENDENCIA</tspan></text>
  <g>
    <g>
      <text class="st2" transform="translate(114.21 594.8)"><tspan x="0" y="0">REBELDE</tspan></text>
      <text class="st4" transform="translate(35.17 579.6)"><tspan x="0" y="0">EL</tspan></text>
    </g>
    <rect class="st3" x="61.93" y="567.25" width="5.06" height="50.03" transform="translate(656.73 527.81) rotate(90)"/>
  </g>
  <path class="st3" d="M70.71,41.96c-2.59,1.56-4.58,1.44-7.26.21-.67-.31-1.35-1.19-1.77-1.3-.55-.13-2.75.75-4.12.73-1.45-.03-2.3-.48-3.61-.78,3.27,3.05,3.49,7.38,3.07,11.64-.19,1.94-1.15,2.83-3.18,2.37-2.69-.6-1.54-4.39-1.89-6.5-.33-1.96-2.53-4.7-4.21-5.69-1.92-1.13-5.26-.95-5.59-3.57-.67-5.25,8.74-1.65,9.13-7.77-3.49-.04-6.99.03-10.49.02-1.72,0-3.98-.97-5.52.92-1.84,2.27-1.15,10.42-.17,13.15,1.52,4.25,8.7,8.62,9.29,12.8.81,5.76-1.33,13.74-.75,19.75-.02,2.45-3.23,3.46-4.72,1.73-1.31-1.51.11-10.27.19-12.73.09-2.75-.01-5.55-.11-8.3-2.83-4.6-7.92-7.77-9.25-13.22-.97-3.96-1.16-12.88,1.35-16.2.75-.99,2.43-1.81,2.84-2.5.7-1.18.79-4.87,1.33-6.67,1.39-4.62,3.47-6.68,8.57-5.86,1.19.19,3.04,1.72,3.45,1.75,1.16.07,2.18-1.66,5.69-.61,2.18.65,3.64,3.02,3.89,3.06.98.14,2.73-.67,4.73-.24,2.27.49,2.71,2.22,3.79,2.68s3.4.32,4.87.84c2.27.79,4.14,2.96,4.61,5.29.62,3.1.72,8.81.81,12.14.18,6.84.51,13.16-3.46,19.05l1.15,20.58c-.43,2.3-4.28,2.72-4.92-.4-.68-3.34-1.72-19.44-.99-22.27.49-1.91,3.25-5.35,3.25-7.42v-6.67ZM44,19.53l-2.96-.38-1.19,6.81,3.81.38.34-6.82ZM52.75,20.69l-3.32-.38c-.36.23-1.1,5.76-.82,6.04l3.79-.02.35-5.64ZM55.87,36.23c1.31-.02,2.72,1.04,3.6-.37.45-3.79,1.5-7.65,1.95-11.42.18-1.5-3.1-2.14-3.76-.67-.39.88-2.22,12.01-1.79,12.46ZM64.66,37.35c.88.22,2.96,1.39,3.59.44l1.67-10.15c-.08-1.28-2.77-1.54-3.78-1.68l-1.48,11.38Z"/>
  <g>
    <path class="st0" d="M258.85,138.04c5.58-5.79,19.39-16.54,26.4-7.38,9.74,12.71-8.34,36.41-13.5,48.26-3.55,8.14-6.57,19.25-5.17,28.16.47,2.99,2.68,3.63,3.81,6.49,4.14,10.48,1.19,22.86-3.03,32.79,14.07,4.88,26.9,12.95,40.72,18.61.71.25,1.28-.12,1.89-.37,5.63-2.25,11.45-6.65,16.71-9.71-4.55-11.7-1.63-21.82,10.93-25.56-.6-5.03-3.9-14.23-.89-18.54,4.12-5.91,27.12-15.06,34.2-14.05,5.73.82,4.89,8.56,3.17,12.49-.99,2.26-3.68,2.11-5.9,3.05-4.48,1.92-5.59,2.88-3.27,7.69,8.59-2.85,24.45-12.1,25.27,3.59,7.27,2.34,8.46,9.39,5.67,15.82,7.91,6.14,4.49,13.29-2.34,18.37-.9.67-3.5,1.57-3.53,2.7l10.63,30.59c.97,3.68-4.84,6.88-7.64,8.24-5.96,2.89-21.84,6.72-28.28,6.18-7.11-.61-7.03-6.63-9.14-11.91-.18-.46.24-.77-.71-.61-10.23,9.52-21.64,18.93-35.03,23.6-8.07,2.82-11.83,2.85-20.17,1.15-8.15-1.66-15.93-4.73-23.8-7.3,10.97,51.07,27.67,100.5,44.41,149.84,15.84,5.83,32.61,12.41,47.04,21.22,3.96,2.42,12.65,6.66,8.71,12.15l-102.64.32c-3.34-.25-4.94-.39-6.15-3.7-2.55-6.98-4.16-15.92-6.27-23.27-7.39-25.78-15.65-51.3-26.06-76-5.15,25.76-14.25,50.57-24.77,74.54,8.85,6.7,19.13,13.02,27.24,20.57,2.31,2.15,6.04,5.24,1.81,7.64h-105.22c-4.52-2.39.06-7.07,1.6-10.08,9.74-19.12,20.47-39.81,25.06-60.87,8.04-36.87,1.64-74.69-6.05-111-12.08,7.35-25.95,17.62-40.89,16.06-16.36-1.72-35.55-27.3-43.62-40.53-.49-.8-.64-2.25-1.09-2.72-.92-.97-15.64-6.85-18.4-8.23-2.53-1.27-8.21-3.46-8.77-6.45-.8-4.27,4.49-11.04,5.79-15.21-4.25-5.03-3.21-11.7,1.17-16.28.84-.88,4.32-2.95,4.46-3.18s-.32-2.98-.15-4.15c.47-3.18,3.24-7.46,5.7-9.51,1.39-1.16,4.52-2.46,5.32-3.63,1.61-2.35,2.92-8.49,4.58-11.53,4.26-7.77,11.87.3,17.4,1.96-.55-2.83,2.66-6.08,2.91-8.45.12-1.14-.91-2.63-1.08-3.9-2.19-16.5,15.38-18.03,25.88-9.77,15.27,12,11.73,34.7,2.38,49.3-.51.79-3.09,3.71-3.15,3.99-.11.53,1.08,3.34,1.21,4.46.67,5.61-.89,11.17-2.53,16.45,2.39,3.55,4.45,7.43,6.94,10.91.22.31-.09.76.78.55,13.61-10.68,28.59-21.59,45.44-26.4-3.5-5.04-3.5-11.54-4.03-17.45-5.11,3.02-12.14,5.38-18.12,4.92-15.07-1.17-2.15-14.38,4.68-17.22-4.01-3.56-7.82-8.88-8.45-14.37-1.71-15.07,15.11-5.67,20.09.27.58-21.08,8.45-42.28,19.34-60.11,6.11-10.02,22.98-32.41,35.48-33,8.65-.41,9.83,6.53,9.19,13.66-.24,2.65-1.47,5.19-1.56,7.84,5.82-7.3,13-15.62,20.86-20.77,5.25-3.45,11.95-6.87,18.01-3.32,9.87,5.79,1.97,24.17-1.48,32.15Z"/>
    <g>
      <path class="st3" d="M258.85,138.04c5.58-5.79,19.39-16.54,26.4-7.38,9.74,12.71-8.34,36.41-13.5,48.26-3.55,8.14-6.57,19.25-5.17,28.16.47,2.99,2.68,3.63,3.81,6.49,4.14,10.48,1.19,22.86-3.03,32.79,14.07,4.88,26.9,12.95,40.72,18.61.71.25,1.28-.12,1.89-.37,5.63-2.25,11.45-6.65,16.71-9.71-4.55-11.7-1.63-21.82,10.93-25.56-.6-5.03-3.9-14.23-.89-18.54,4.12-5.91,27.12-15.06,34.2-14.05,5.73.82,4.89,8.56,3.17,12.49-.99,2.26-3.68,2.11-5.9,3.05-4.48,1.92-5.59,2.88-3.27,7.69,8.59-2.85,24.45-12.1,25.27,3.59,7.27,2.34,8.46,9.39,5.67,15.82,7.91,6.14,4.49,13.29-2.34,18.37-.9.67-3.5,1.57-3.53,2.7l10.63,30.59c.97,3.68-4.84,6.88-7.64,8.24-5.96,2.89-21.84,6.72-28.28,6.18-7.11-.61-7.03-6.63-9.14-11.91-.18-.46.24-.77-.71-.61-10.23,9.52-21.64,18.93-35.03,23.6-8.07,2.82-11.83,2.85-20.17,1.15-8.15-1.66-15.93-4.73-23.8-7.3,10.97,51.07,27.67,100.5,44.41,149.84,15.84,5.83,32.61,12.41,47.04,21.22,3.96,2.42,12.65,6.66,8.71,12.15l-102.64.32c-3.34-.25-4.94-.39-6.15-3.7-2.55-6.98-4.16-15.92-6.27-23.27-7.39-25.78-15.65-51.3-26.06-76-5.15,25.76-14.25,50.57-24.77,74.54,8.85,6.7,19.13,13.02,27.24,20.57,2.31,2.15,6.04,5.24,1.81,7.64h-105.22c-4.52-2.39.06-7.07,1.6-10.08,9.74-19.12,20.47-39.81,25.06-60.87,8.04-36.87,1.64-74.69-6.05-111-12.08,7.35-25.95,17.62-40.89,16.06-16.36-1.72-35.55-27.3-43.62-40.53-.49-.8-.64-2.25-1.09-2.72-.92-.97-15.64-6.85-18.4-8.23-2.53-1.27-8.21-3.46-8.77-6.45-.8-4.27,4.49-11.04,5.79-15.21-4.25-5.03-3.21-11.7,1.17-16.28.84-.88,4.32-2.95,4.46-3.18s-.32-2.98-.15-4.15c.47-3.18,3.24-7.46,5.7-9.51,1.39-1.16,4.52-2.46,5.32-3.63,1.61-2.35,2.92-8.49,4.58-11.53,4.26-7.77,11.87.3,17.4,1.96-.55-2.83,2.66-6.08,2.91-8.45.12-1.14-.91-2.63-1.08-3.9-2.19-16.5,15.38-18.03,25.88-9.77,15.27,12,11.73,34.7,2.38,49.3-.51.79-3.09,3.71-3.15,3.99-.11.53,1.08,3.34,1.21,4.46.67,5.61-.89,11.17-2.53,16.45,2.39,3.55,4.45,7.43,6.94,10.91.22.31-.09.76.78.55,13.61-10.68,28.59-21.59,45.44-26.4-3.5-5.04-3.5-11.54-4.03-17.45-5.11,3.02-12.14,5.38-18.12,4.92-15.07-1.17-2.15-14.38,4.68-17.22-4.01-3.56-7.82-8.88-8.45-14.37-1.71-15.07,15.11-5.67,20.09.27.58-21.08,8.45-42.28,19.34-60.11,6.11-10.02,22.98-32.41,35.48-33,8.65-.41,9.83,6.53,9.19,13.66-.24,2.65-1.47,5.19-1.56,7.84,5.82-7.3,13-15.62,20.86-20.77,5.25-3.45,11.95-6.87,18.01-3.32,9.87,5.79,1.97,24.17-1.48,32.15ZM261.01,209.58c-1.72-13.9,2.68-27.51,8.79-39.77,3.46-6.94,8.17-13.3,10.54-20.79,4.19-13.2,1.6-21.72-12.25-11.8-8.48,6.08-15.55,15.98-21.97,24.12-2.4,1.46-5.61-.31-4.53-3.18,5.18-11.99,19.22-29.79,17.7-43.18-1.17-10.22-14.42-.08-18.12,2.92-10.86,8.81-19.33,20.22-26.55,32.08-1.54,2.52-3.64,7.56-5.25,9.52-2.17,2.63-6.19,1.3-5.4-2.23,3.27-8.23,7.6-16.08,10.45-24.49,2.58-7.62,8.21-25.11-6.56-15.51-9.23,5.99-18.52,17.8-24.4,27.08-12.65,19.98-19.66,43.17-18.1,67.04,23.65,7.58,49.81,8.6,74.25,4.32,7.31-1.28,14.61-3.13,21.4-6.12ZM111.15,232.92c5.44-7.61,7.97-19.57,7.17-28.88-.7-8.13-8.04-15.83-16.11-17.01-5.48-.81-11.37,3.87-7.83,9.18,2.23,3.36,11.44,5.08,12.49,7.2,1.81,3.65-2.69,8.46-3.33,12.06,4.11.72,9.71,3.19,10.26,7.88.41,3.54-1.62,6.39-2.65,9.58ZM159.04,213.68c-.91-6.83-7.63-13.5-14.32-14.77-1.21,5.19,6.38,15.34,11.38,15.24.93-.02,1.93-.61,2.94-.47ZM369.84,206.51c-.23-3.13,1.28-5.3-2.79-4.81-3.26.4-21.85,8.84-24.28,11.08-3.48,3.21.15,10.43-.23,14.76,5.5-1.93,12.98,1.81,17.31-3.27,1.09-1.28-1.44-4.55-1.65-6.8-.61-6.61,5.65-10.73,11.64-10.97ZM101.3,206.07l-7.34-2.66-3.4,7.12,7.34,2.64,3.4-7.1ZM106.21,230.24c.26-3.19,4.05-5.65.6-7.98-3.01-2.03-12.85-4.33-17.14-6.13-4.01-1.68-10.15-5.67-13.88-6.72-.63-.18-1.19-.41-1.81,0l-4.92,10.08c5.66,2.31,14.02,6.85,14.77,13.66.65,5.85-1.96,10.15-7.58,11.9,2.61,10.88-8.17,15.9-17.49,13.61-2.14-.53-4.02-1.85-6.26-2.01l-4.74,11.19c6.44,3.56,12.99,7,19.83,9.74,3.05,1.22,13.67,5.6,16.24,4.36l11.98-26.93c-3.42-6-5.51-11.59-4.26-18.6,1.63-9.15,6.83-12,14.64-6.16ZM167.09,230.69c-.29,9.09,5.64,16.84,11.4,23.28,16.05,17.94,38.8,31.63,59.08,44.31.74-.16,1.09-3.95,1.35-4.93,2.84-10.66,7.53-20.25,12.52-30,7.85-15.31,19.61-30.91,13.21-49.22-23.02,9.65-49.77,11.5-74.45,8.44-9.04-1.12-17.98-3.22-26.69-5.75.45,1.03.53,2.13,1.14,3.11,2.99,4.82,10.44,9.99,13.63,14.56.99,1.41,1.3,2.53.34,4.15-.62.62-2.75.72-3.6.46-1.45-.44-6.15-7.22-7.92-8.41ZM142.02,227.1c4.51.42,8.27-.44,12.39-2.16,2.83-1.18,7.95-2.95,4.32-6.27-3.34-1.14-15.4,4.27-16.71,8.43ZM384.06,220.95c-1.8-2.14-12.96,1.89-15.35,3.01-.44.21-1.05.26-1.1.91,1.79-.13,3.74.38,5.37,1.12,1.46.67,2.81,2.34,3.6,2.7,1.42.64,6.93-3.18,8.94-3.38l-1.45-4.36ZM64.03,224.06c-2.84.6-7.25,7.25-5.01,10.18.57.75,12.28,5.91,13.62,6.11,3.64.55,7.42-4.65,5.13-8.31-1.46-2.33-11.23-8.52-13.75-7.99ZM380.62,232.96c-.41.58,2.03,8.19,2.91,8.39,5.03-.69,9.41-3.7,8.04-9.36-1.2-4.94-7.7.67-10.95.97ZM372.52,233.37c1.17-1.07-4-2.99-4.74-3.09-1.28-.18-9.48.3-9.61,1.13l1.67,3.78,12.68-1.82ZM139.34,488.04h90.86c-3.45-3.04-7.11-5.92-10.79-8.68-2.8-2.1-13.99-9.23-15.12-11.31-.75-1.37.07-2.91.51-4.29,2.45-7.75,6.72-16.12,9.63-23.94,7.15-19.26,13.17-39.02,16.79-59.29,2.02-3.07,4.52-2.07,6.09.83,3.26,6.02,6.38,14.98,8.89,21.54,7.26,18.95,13.47,38.8,19.13,58.3,2.57,8.86,5.24,17.79,6.94,26.85h95.33l-6.86-4.11c-12.92-7.78-28.51-11.67-41.78-18.2-1.23-.6-2.72-1.14-3.47-2.35-18.9-53.72-36.27-108.11-47.72-164.03-.09-3.15,3.97-4.12,5.49-.96,1.36,2.85-.5,3.79,3.05,5.46,12.54,5.89,30.63,11.57,43.97,6.39,11.95-4.63,23.82-14.49,32.85-23.38-3.02-10.44-7.56-20.71-10.26-31.22-.33-1.29-1.03-2.99-1.18-4.18-.76-5.93,2.15-4.45,6.18-6.28,1-.45,2.73-1.53,3.59-2.23,4.07-3.27,5.5-9.2-1.13-9.98-9.01-1.06-20.8,3.25-19.81,14,.27,2.9,3.07,9.1,1.76,11.27-.56.93-13.38,8.15-15.39,9.22-6.25,3.31-6.57,4.58-13.72,1.93-9.38-3.48-18.07-9.36-27.15-13.58-2.62-1.22-7.08-3.61-9.65-4.24-.6-.15-1.04-.5-1.69-.1-.54.34-5.28,9.11-6.06,10.53-4.45,8.14-9.42,17.84-12.32,26.62-1.72,5.21-2.62,10.11-3.24,15.56-1.6,3.04-4.53,1.58-6.89.42-4.21-2.07-9.06-5.38-13.09-7.95-19.99-12.72-39.96-27.3-54.95-45.77-18.19,4.59-33.6,15.94-47.77,27.71-1.07.71-2.42.51-3.53,0l-10.5-16.46c-.76-3.63,2.25-9.25,2.57-13.33.54-6.83-3.24-13.88-10.02-15.92-2.86,4.56-2.63,11.53-.07,16.17,1.86,3.36,4.83,2.89,3.28,7.71-2.83,8.8-10.02,18.91-13.32,27.85-2.15,2.67-4.35,3.64-7.83,3.35-1.33-.11-2.58-.93-3.81-.66,7.29,10.27,15.16,21.73,25.64,28.96,11.55,7.97,18.47,6.98,30.77,1.03,11.55-5.59,22.44-13.58,33.23-20.48,2.23-1.02,4.02-.06,4.6,2.29.33,2.67-9.87,7.41-11.89,9.26,8.73,40.84,16.05,84.05,4.26,125.06-5.5,19.11-15.37,37-24.39,54.61ZM394.85,291.5l-18.73-53.47c-3.83,1.13-7.91.46-11.82,1.21-4.97.95-3.86,2.34-6.56,5.53-2.67,3.15-6.18,5.59-10.23,6.55l16.07,47.6c1.98,1.67,9.82.13,12.53-.42,6.67-1.34,12.66-4.09,18.73-7.01ZM69.37,252.02c2.31-2.21,1.98-4.73-.6-6.49-1.35-.92-12.28-5.74-13.36-5.71-3.33.11-7.35,7.88-3.22,10.2,3.85,2.16,13.58,5.43,17.17,2ZM387.75,254.41c3.03-.95,10.07-6,5.97-9.33-2.55-2.08-5.58,1.53-8.67,1.28l2.69,8.05Z"/>
      <path class="st3" d="M234.99,192.28c3.06-.92,4,2.22,4.66,4.55.89,3.14,2.63,12.13-2.95,11.02-3.47-.69-5.83-14.33-1.71-15.57Z"/>
      <path class="st3" d="M222.46,194.57c2.28,1.87,5.08,14.52-.51,14.18-3.58-.22-5.14-10.73-3.96-13.31.72-1.57,3.19-1.92,4.47-.87Z"/>
    </g>
  </g>
  <g>
    <text class="st1" transform="translate(343.03 40.82)"><tspan x="0" y="0">CAMBIO</tspan><tspan x="0" y="14.63">Y RIESGO</tspan></text>
    <circle class="st6" cx="323.37" cy="37.02" r="8.03"/>
    <line class="st6" x1="317.69" y1="42.7" x2="308.15" y2="52.24"/>
  </g>
</svg>