<?xml version="1.0" encoding="UTF-8"?>
<svg id="Capa_1" xmlns="http://www.w3.org/2000/svg" version="1.1" viewBox="0 0 442.43 630.3">
  <!-- Generator: Adobe Illustrator 30.0.0, SVG Export Plug-In . SVG Version: 2.1.1 Build 123)  -->
  <defs>
    <style>
      .st0 {
        fill: #63bde0;
      }

      .st1 {
        fill: #fff;
      }

      .st2 {
        font-size: 16.67px;
        letter-spacing: .04em;
      }

      .st2, .st3 {
        font-family: Gabarito-Regular, Gabarito;
      }

      .st2, .st3, .st4, .st5, .st6 {
        fill: #1d0981;
      }

      .st7 {
        fill: none;
        stroke: #1d0981;
        stroke-miterlimit: 10;
        stroke-width: 5px;
      }

      .st3 {
        font-size: 42.5px;
        letter-spacing: .04em;
      }

      .st4 {
        font-size: 58.63px;
        letter-spacing: .04em;
      }

      .st4, .st6 {
        font-family: Gabarito-Bold, Gabarito;
        font-weight: 700;
      }

      .st6 {
        font-size: 18.39px;
        letter-spacing: .04em;
      }
    </style>
  </defs>
  <rect class="st0" y="0" width="442.43" height="630.3" rx="30" ry="30"/>
  <path class="st1" d="M190.3,175.57c-.01.25-1.93,2.25.27.82,8.91-14.08,21.78-28.66,36.57-36.74,30.33-16.57,24.26,19.01,18.15,36.19,8.33-7.34,17.67-15.56,28.44-19.03,19.47-6.27,23.95,6.84,20.05,23.38-7.88,33.34-35.03,58.56-28.98,97.48.41,2.61,2.34,7.4,2.14,9.47-.3,3.09-4.04,4.19-5.75,5.83-.46.44-.51.38-.35,1.15,1.59-.37,2.17,1.74,3.03,1.73,1.41-.03,6.54-2.51,8.63-3.11,33.63-9.62,59.45,13.54,58.04,47.48,15.85,9.95,32.47,24.23,36.56,43.41,7.72,36.15-23.45,62.13-53.51,74.04-1.63.65-5.13,1.06-6.08,1.69-.85.56-2.68,5.36-4.17,6.94-7.67,8.18-27.68,13.47-38.51,15.91-72.16,16.29-207.35,18.23-201.16-87.87,2.22-38.14,31.07-80.4,66.67-94.67-6.92-27.12-4.53-58.43,4.18-84.94,6.33-19.24,20.23-43.28,35.79-56.4,5.42-4.57,12.77-8.85,17.52-.84.76,1.29,2.48,5.69,2.48,6.96,0,3.68.17,7.44,0,11.11Z"/>
  <text class="st6" transform="translate(103.17 50.76)"><tspan x="0" y="0">SERVICIO</tspan></text>
  <g>
    <text class="st2" transform="translate(314.34 40.82)"><tspan x="0" y="0">AFILIACIÓN</tspan><tspan x="0" y="14.63">&amp; CONEXIÓN</tspan></text>
    <circle class="st7" cx="294.67" cy="37.02" r="8.03"/>
    <line class="st7" x1="288.99" y1="42.7" x2="279.45" y2="52.24"/>
  </g>
  <g>
    <path class="st5" d="M41.45,25.11c4.02-.68,6.62.94,9.42,3.54,3.69-3.99,10.4-5.51,13.94-.52,4.55,6.41-1.36,12.99-5.98,17.15-1.24,1.11-5.84,4.96-7.1,5.46-1.14.45-1.49.2-2.48-.35-3.85-2.15-11.55-9.27-13.16-13.35-1.81-4.56-.06-11.02,5.36-11.93Z"/>
    <path class="st5" d="M79.38,32.39c.52.54.85,1.53.93,2.28.65,5.7.28,18.63-2.68,23.56-2.31,3.84-9.98,8.88-10.6,12.57-.28,1.65.47,4.66-2.2,4.2-1.76-.3-1.41-4.01-1.24-5.41.47-3.8,7.79-8.83,10.29-12.04,4.32-5.54,2.5-16.15,2.8-22.74l-1.61,1.04c-.05,3.16-1.39,7-1.44,10.03-.02,1.33.85,2.01.48,3.8-.53,2.51-6.3,7.86-7.82,10.33-1.32.69-2.96-.69-2.68-2.1.33-1.68,5.75-6.7,6.79-8.59.66-1.45-.84-1.77-1.96-1.12-1.23.71-3.79,4.65-5.42,6.02-2.43,2.03-5.25,2.95-6.56,6.28-1.64,4.18.11,9.27-.76,13.2-.43,1.95-3.32,1.83-3.58-.2-.36-2.71-.14-9.76.42-12.45,1.14-5.46,4.92-6.73,8.53-9.89,2.91-2.54,4.67-7.36,9.2-6.85.94-3.62.26-10.82,4.41-12.47,1.46-.58,3.57-.62,4.72.58Z"/>
    <path class="st5" d="M24.49,34.81c.14,6.65-.69,13.6,1.66,19.97,1.95,5.28,11.05,9.83,11.7,15.37.15,1.25.42,4.37-1.01,4.79-3.25.96-2.34-2.94-2.66-4.76-.47-2.64-8.98-9.22-10.77-12.67-2.56-4.95-2.81-17.09-2.43-22.71.25-3.75,4.53-4.19,7.11-2.34,2.97,2.13,2.19,8.61,3.22,11.86.3.42,1.71.23,2.39.4,2.54.64,4.51,4.43,6.41,6.15,2.89,2.61,6.32,3.86,8.06,7.85,1.12,2.57,1.6,11.91,1.14,14.74-.35,2.14-3.13,2.15-3.55.24-1.09-4.95,1.67-10.55-2.02-15.28-1.66-2.13-3.74-2.86-5.58-4.47-1.57-1.38-3.61-4.85-5.14-5.74-.8-.46-1.69-.45-2.27.29v.54c.92,1.86,6.85,7.35,7.09,8.87.22,1.39-1.33,2.93-2.74,2.17-1.53-2.59-7.26-7.73-7.75-10.39-.34-1.86.53-2.53.5-3.83-.06-2.92-1.16-6.43-1.19-9.44-.26-.97-1.14-1.66-2.17-1.6Z"/>
  </g>
  <g>
    <path class="st5" d="M190.3,175.57c-.01.25-1.93,2.25.27.82,8.91-14.08,21.78-28.66,36.57-36.74,30.33-16.57,24.26,19.01,18.15,36.19,8.33-7.34,17.67-15.56,28.44-19.03,19.47-6.27,23.95,6.84,20.05,23.38-7.88,33.34-35.03,58.56-28.98,97.48.41,2.61,2.34,7.4,2.14,9.47-.3,3.09-4.04,4.19-5.75,5.83-.46.44-.51.38-.35,1.15,1.59-.37,2.17,1.74,3.03,1.73,1.41-.03,6.54-2.51,8.63-3.11,33.63-9.62,59.45,13.54,58.04,47.48,15.85,9.95,32.47,24.23,36.56,43.41,7.72,36.15-23.45,62.13-53.51,74.04-1.63.65-5.13,1.06-6.08,1.69-.85.56-2.68,5.36-4.17,6.94-7.67,8.18-27.68,13.47-38.51,15.91-72.16,16.29-207.35,18.23-201.16-87.87,2.22-38.14,31.07-80.4,66.67-94.67-6.92-27.12-4.53-58.43,4.18-84.94,6.33-19.24,20.23-43.28,35.79-56.4,5.42-4.57,12.77-8.85,17.52-.84.76,1.29,2.48,5.69,2.48,6.96,0,3.68.17,7.44,0,11.11ZM256.38,300.26l-2.95-2.17c-20.63,11.63-43.87,12.15-62.03-4.22-2.64-2.38-11.05-11.71-11.96-14.7-1.16-3.86,1.9-7.38,5.72-5.71,1.25.55,6.85,9.22,8.74,11.25,13.42,14.43,30.03,17.03,48.19,9.86,2.42-.96,14.72-7.19,15.69-8.76.7-1.14-1.23-9.18-1.39-11.39-2.58-36.8,15.65-56.78,26.8-88.14,4.41-12.4,9.31-29.46-11.08-19.96-12.24,5.7-25.45,18.93-34.04,29.27-1.9,2.28-5.81,8.93-7.5,10.27-3.33,2.65-7.85-.19-6.85-4.61.42-1.85,4.55-7.51,5.74-9.83,5.75-11.27,14.39-32.7,12.45-45.24-.13-.86-.42-1.67-1.07-2.28-2.84-1.73-14.18,5.69-16.85,7.62-16.75,12.09-30.17,32.43-39.17,50.8-1.38,2.82-1.31,6.89-5.35,6.92-2.76.02-4.31-1.43-4.19-4.19,2.63-12,7.95-27.13,6.68-39.46-.57-5.49-2.98-3.62-6.11-1.12-30.5,24.34-44.75,78.63-41.09,116.07.64,6.57,3.43,14.31,3.85,20.07.43,6-8.21,7.48-12.75,9.91-47.31,25.35-77.41,103.83-32.21,144.41,39.71,35.65,122.55,30.06,171.16,18.98,6.67-1.52,31.86-8.13,34.21-14.66.31-.87.64-2.47-.72-2.4-3.7.19-12.69,4.83-17.2,6.13-4.98,1.44-15.05,3.87-20,3.92-3.76.04-6.15-3.71-3.62-6.44,1.81-1.96,14.43-3.16,18.13-4.08,7.87-1.95,17.71-5.97,24.26-10.73,1.29-.94,7.05-4.96,4.3-6.87-1.4-.97-13.37,3.39-16.02,4.04-7.82,1.94-18.51,4.37-26.47,4.62-2.5.08-6.15.5-6.85-2.64-1.41-6.28,6.67-5.14,10.64-5.79,10.44-1.7,22.17-3.81,31.83-8.15,3.03-1.36,10.83-5.27,3.42-7.5-2.11-.64-8.81-.95-11.32-.95-8.56,0-21.18,1.23-29.48,3.28-3.39.84-9.95,4.54-12.65,2.79-1.76-1.14-2.41-4.74-.9-6.34,5.16-3.79,11.28-6.26,16.12-10.53,6.34-5.6,6.17-8.64-3.37-7.25-12.92,1.88-28.76,10.98-39.24,18.52-34.34,1.49-85.82-1.48-77.76-49.44.6-3.59,3.51-18.63,9.59-12.67,2.7,2.65-.36,7.98-1.04,11.23-2.95,14.2-1.47,26.57,11.68,34.78,2.12,1.33,5.68,3.18,7.94,3.17-6.36-6.05-16.91-13.22-15.57-23.36.43-3.27,3.41-2.99,3.88-3.63s-2.64-6.75,2.29-10.75c.79-.64,3.37-1.6,3.7-2.13.39-.62.35-2.29.83-3.34,5.31-11.65,14.12-6.57,21.81-.41,5.51-8.75,14.1-3.61,17.95,3.72,1.7,3.24,2.21,8.3,4.24,10.75,3.17,3.82,18.64,8.44,23.23,7.09l14.27-12.1c-8.88-3.01-13.84-11.55-15.38-20.44-3.2-18.44,6.95-39.28,20.38-51.49,1.33-1.21,3.3-2.21,4.45-3.59ZM162.54,389.66c-.04,1.19.9,2.24,1.53,3.18,5,7.36,21.61,20.53,30.46,21.75,7.26,1,15.24.56,22.57.48,12.54-9.3,30.04-17.49,45.66-19.33,1.39-.16,3.25.5,4.2.25,1.15-.3,5.01-4.12,6.46-5.13,10.7-7.41,22.43-13.81,34.79-17.97l.88-.79c12.93-17.81,20.38-47.32,2.3-64.38-26.89-25.37-69.92,4.09-72.24,37.2-.29,4.19.34,15.05,3.96,17.75,1.77,1.32,9.13,4.56,11.34,4.77,5.86.55,7.22-2.36,11.24-3.21,4.88-1.03,7.64,3.5,3.76,7.09-3.87,3.58-9.95,3.05-12.47,4.75-.48.33-2.42,4.08-3.9,5.54-4.83,4.74-12.01,8.66-16.81,13.73-10.17,1.81-25.82-1.94-33.45-9.03-2.87-2.66-2.56-9.61-5.59-13.84-1.06-1.48-3.39-4.44-3.98-1.29-.4,2.16.65,5.85-2.21,6.69-4.91,1.45-7.18-4.64-10.86-7.23-2.08-1.47-4.56-2.68-7.06-3.21-2.29,5.94,4.39,10.06,6.77,14.61.9,1.73,1.49,2.85-.48,4.2-4.46,1.49-11.52-10.33-13.51-8.26-.55,5.25,9.15,12.07,7.67,16.82-1.77,5.72-9.04-3.95-11-5.16ZM306.92,450.74c6.42-1.27,13.56-4.94,19.25-8.23,35.64-20.61,48.44-56.99,13.22-86.16-1.82-1.51-8.26-6.51-10.04-7.19-.93-.36-.69.16-.9.64-1.23,2.79-1.94,6.4-3.29,9.5-1.64,3.77-3.83,7.71-6.03,11.19,6.42,6.38-2.3,7.49-6.8,9.3-13.91,5.58-26.3,12.01-38.71,20.45,3.2,5.68.4,11.55-4.46,14.96,0,.97,2.44.61,3.07.57,10.35-.72,41.57-6.21,39.08,11.87-.23,1.68-1.76,3.75-1.63,5.02.11,1.1,2.11,2.56,2.54,4.17,1.53,5.81-1.5,10.02-5.29,13.89Z"/>
    <path class="st5" d="M205.14,244.82c2.75-.82,5.67,1.15,5.72,4.04.03,1.27-1.56,8.96-2.12,10.13-2.07,4.32-7.86,2.59-7.9-1.76-.02-2.31,1.85-11.68,4.3-12.41Z"/>
    <path class="st5" d="M224.34,249.87c2.05-2.42,6.46-1.23,7.05,1.8.38,1.98-1.3,11.45-2.78,12.74-2.41,2.09-6.21.26-6.63-2.81-.23-1.66,1.41-10.6,2.37-11.73Z"/>
    <path class="st5" d="M252.34,334.23c7.12-2.12,4.41,8.22,7.76,9.23,1.11.33,6.9.29,8.09-.03,2.84-.75,6.59-6.77,10.1-1.51,3.93,5.89-9.94,11.08-14.41,11.08-8.18,0-15.99-7.09-14.04-15.71.23-1.01,1.51-2.77,2.5-3.06Z"/>
  </g>
  <g>
    <g>
      <text class="st4" transform="translate(100.35 593.97)"><tspan x="0" y="0">CUIDADOR</tspan></text>
      <text class="st3" transform="translate(33.97 581.21)"><tspan x="0" y="0">EL</tspan></text>
    </g>
    <rect class="st5" x="56.44" y="570.84" width="4.25" height="42.02" transform="translate(650.41 533.27) rotate(90)"/>
  </g>
</svg>