<?xml version="1.0" encoding="UTF-8"?>
<svg id="Capa_1" xmlns="http://www.w3.org/2000/svg" version="1.1" viewBox="0 0 442.43 630.3">
  <!-- Generator: Adobe Illustrator 30.0.0, SVG Export Plug-In . SVG Version: 2.1.1 Build 123)  -->
  <defs>
    <style>
      .st0 {
        font-size: 62px;
        letter-spacing: .04em;
      }

      .st0, .st1, .st2, .st3, .st4 {
        fill: #1d0981;
      }

      .st0, .st2 {
        font-family: Gabarito-Regular, Gabarito;
      }

      .st5 {
        fill: #fff;
      }

      .st1 {
        font-size: 85.52px;
        letter-spacing: .04em;
      }

      .st1, .st4 {
        font-family: Gabarito-Bold, Gabarito;
        font-weight: 700;
      }

      .st2 {
        font-size: 16.67px;
        letter-spacing: .04em;
      }

      .st6 {
        fill: none;
        stroke: #1d0981;
        stroke-miterlimit: 10;
        stroke-width: 5px;
      }

      .st7 {
        fill: #e9d04f;
      }

      .st4 {
        font-size: 18.39px;
        letter-spacing: .04em;
      }
    </style>
  </defs>
  <rect class="st7" width="442.43" height="630.3" rx="30" ry="30"/>
  <text class="st4" transform="translate(103.17 50.76)"><tspan x="0" y="0">SUPERACIÓN</tspan></text>
  <g>
    <text class="st2" transform="translate(343.03 40.82)"><tspan x="0" y="0">CAMBIO</tspan><tspan x="0" y="14.63">Y RIESGO</tspan></text>
    <circle class="st6" cx="323.37" cy="37.02" r="8.03"/>
    <line class="st6" x1="317.69" y1="42.7" x2="308.15" y2="52.24"/>
  </g>
  <g>
    <g>
      <text class="st1" transform="translate(130.11 593.92)"><tspan x="0" y="0">HÉROE</tspan></text>
      <text class="st0" transform="translate(33.29 575.31)"><tspan x="0" y="0">EL</tspan></text>
    </g>
    <rect class="st3" x="66.07" y="560.18" width="6.2" height="61.29" transform="translate(659.99 521.66) rotate(90)"/>
  </g>
  <g>
    <path class="st5" d="M381.23,214.54c11.62-14.18,18.26-33.34,7.81-50.26-11.39-18.45-39.27-24.28-51.46-3.33-.83,1.42-2.94,7.18-3.31,7.54-.66.63-2.12.54-3.05,1.01-9.64,4.84-8.07,20-3.59,28.04-7.79,12.26-19.93,22.79-32.86,29.42-2.07,1.07-9.84,4.87-11.62,5.09-.99.12-2.17-.49-3.49-.37-3.12.29-6.28.92-9.27,1.82l-2.64,1.57c0-.82.07-1.58.34-2.17.09-.2.96-.98,2.04-1.95,1.67-1.48,3.87-3.38,4.55-4.19,5.01-5.98,3.57-7.59.63-10.77-1.01-1.1-2.21-2.38-3.37-4.1-.53-.77-1-1.54-1.44-2.31-.38-.65-.72-1.3-1.03-1.95-1.71-3.51-2.61-7.02-2.89-10.52-1.17-14.35,7.87-28.56,12.9-42.49.86-2.38,2.13-5.76,3.16-9.4,1.71-6.07,2.72-12.89,0-17.12-.84-1.31-2.03-2.38-3.68-3.09-5.22-2.26-11.42-.07-17.16,3.54-2.73,1.72-5.35,3.76-7.72,5.79-2.67,2.3-5.01,4.59-6.81,6.43,1.13-3.49,1.77-8.59,1.37-13.36-.25-2.93-.89-5.74-2.03-7.99-2.13-4.14-6-6.34-12.42-3.72-2.17.89-4.3,2.37-6.33,4.23-2.26,2.08-4.41,4.63-6.41,7.38-4.37,6.01-8.01,12.95-10.44,17.87-.81.13-.45-.66-.49-1.21-.23-3.98-.33-10.26-2.74-13.83-1.48-2.17-3.81-3.34-7.56-2.36-.55.14-1.1.35-1.66.61-7.88,3.73-16.35,18.76-19.48,25.77-10.98,24.54-13.7,54.82-4.07,80.18l1.23,2.21c.51,1.54,1.04,3.08,1.59,4.61-15.91.49-31.62,6.36-45.46,13.93-7.78,4.25-14.91,9.62-22.71,13.86-22.11,12.01-48.98,20.03-73.85,11.93-6.61-.2-2.98,12.16-1.98,16.01,2.9,11.21,9.05,21.56,17.79,29.17,5.53,4.81,12.07,7.51,16.68,13.57,6.96,9.15,6.24,21.02,12.89,30.91,13.02,19.35,34.27,13.99,50.78,26.42,6.97,5.24,12.84,12.36,21.92,14.44l-28,44.02-36.41,24.77c-1.88,2.06-1.35,5.15,1.06,6.52l64.04-.34c7.47-1.45,16.04.38,23.46-.47,6.13-.7,4.05-6.96,4.27-11.53.16-3.33.64-6.77.7-10.14,19.95-21.34,38.19-44.26,57.78-65.93.93-1.02,5.08-5.87,5.87-5.87l30.48,18.97-25.26,65.2c.09,2.15,2.44,4.52,4.69,4.35h98.02c4.59-.24,5.86-5.37,1.98-7.88l-36.04-23.52c7.45-11.48,16.03-25.84,17.05-39.8,1.83-24.94-25.46-44.17-43.69-56.46,3.73-20.05,3.58-40.76.02-60.84,17.9-9.62,35.28-20.31,50.28-34.12,14.16-13.03,24.93-29.04,37.02-43.8Z"/>
    <g>
      <path class="st3" d="M381.23,214.54c11.62-14.18,18.26-33.34,7.81-50.26-11.39-18.45-39.27-24.28-51.46-3.33-.83,1.42-2.94,7.18-3.31,7.54-.66.63-2.12.54-3.05,1.01-9.64,4.84-8.07,20-3.59,28.04-7.79,12.26-19.93,22.79-32.86,29.42-2.07,1.07-9.84,4.87-11.62,5.09-.99.12-2.17-.49-3.49-.37-3.12.29-6.28.92-9.27,1.82l-2.64,1.57c0-.82.07-1.58.34-2.17.09-.2.96-.98,2.04-1.95,1.67-1.48,3.87-3.38,4.55-4.19,5.01-5.98,3.57-7.59.63-10.77-1.01-1.1-2.21-2.38-3.37-4.1-.53-.77-1-1.54-1.44-2.31-.38-.65-.72-1.3-1.03-1.95-1.71-3.51-2.61-7.02-2.89-10.52-1.17-14.35,7.87-28.56,12.9-42.49.86-2.38,2.13-5.76,3.16-9.4,1.71-6.07,2.72-12.89,0-17.12-.84-1.31-2.03-2.38-3.68-3.09-5.22-2.26-11.42-.07-17.16,3.54-2.73,1.72-5.35,3.76-7.72,5.79-2.67,2.3-5.01,4.59-6.81,6.43,1.13-3.49,1.77-8.59,1.37-13.36-.25-2.93-.89-5.74-2.03-7.99-2.13-4.14-6-6.34-12.42-3.72-2.17.89-4.3,2.37-6.33,4.23-2.26,2.08-4.41,4.63-6.41,7.38-4.37,6.01-8.01,12.95-10.44,17.87-.81.13-.45-.66-.49-1.21-.23-3.98-.33-10.26-2.74-13.83-1.48-2.17-3.81-3.34-7.56-2.36-.55.14-1.1.35-1.66.61-7.88,3.73-16.35,18.76-19.48,25.77-10.98,24.54-13.7,54.82-4.07,80.18l1.23,2.21c.51,1.54,1.04,3.08,1.59,4.61-15.91.49-31.62,6.36-45.46,13.93-7.78,4.25-14.91,9.62-22.71,13.86-22.11,12.01-48.98,20.03-73.85,11.93-6.61-.2-2.98,12.16-1.98,16.01,2.9,11.21,9.05,21.56,17.79,29.17,5.53,4.81,12.07,7.51,16.68,13.57,6.96,9.15,6.24,21.02,12.89,30.91,13.02,19.35,34.27,13.99,50.78,26.42,6.97,5.24,12.84,12.36,21.92,14.44l-28,44.02-36.41,24.77c-1.88,2.06-1.35,5.15,1.06,6.52l64.04-.34c7.47-1.45,16.04.38,23.46-.47,6.13-.7,4.05-6.96,4.27-11.53.16-3.33.64-6.77.7-10.14,19.95-21.34,38.19-44.26,57.78-65.93.93-1.02,5.08-5.87,5.87-5.87l30.48,18.97-25.26,65.2c.09,2.15,2.44,4.52,4.69,4.35h98.02c4.59-.24,5.86-5.37,1.98-7.88l-36.04-23.52c7.45-11.48,16.03-25.84,17.05-39.8,1.83-24.94-25.46-44.17-43.69-56.46,3.73-20.05,3.58-40.76.02-60.84,17.9-9.62,35.28-20.31,50.28-34.12,14.16-13.03,24.93-29.04,37.02-43.8ZM269.44,240.92l8.15-2c-1.99,8.91-7.88,16.89-16.24,20.77l-1.62-6.33c4.41-3.23,7.93-7.18,9.71-12.43ZM246.79,253.91c9.81-1.4,9.97,13.79-.08,12.51-7.35-.93-6.7-11.54.08-12.51ZM242.29,277.43c-2.12,3.75-5.21,7.04-8.48,9.79.07-5.98,1.49-12.52,6.09-16.69,4.16,3.44,5.41,1.55,2.39,6.9ZM251.86,272.79l4.81-2.68c5.21,3.27,6.93,9.94,6.48,15.77-2.28-.29-11.91-12.27-11.29-13.08ZM187.38,153.18c3.27-6.45,8.38-14.77,14.78-18.29.06.3.1.59.15.89,1.36,8.2.98,17.04-.22,25.25-.43,2.96-2.66,8.51-1.52,10.98.81,1.76,3.8,2.1,5.31,1.13.76-.49,2.25-4.46,3.55-8.11.89-2.49,1.69-4.83,2.12-5.82,2.89-6.65,10.08-20.63,16.94-29.34,2.39-3.03,4.74-5.43,6.86-6.65,1.22-.7,3.62-2.34,4.82-1.09.15.38.28.77.4,1.16.94,3.04,1.04,6.38.71,9.73-.36,3.68-1.24,7.38-2.11,10.68-1.5,5.72-5.64,13.43-6.5,18.49-.62,3.69.96,6.11,4.93,4.93,1.47-.44,4.83-7.38,6.02-9.16,2.22-3.34,4.73-6.92,7.5-10.34,3.12-3.85,6.55-7.5,10.28-10.35.99-.76,2.01-1.47,3.04-2.1,2.12-1.31,10.12-5.58,12.1-3.59,1.83,1.84-.42,10.08-1.11,12.62-3.99,14.71-13.7,30.01-15.72,45.51-.51,3.86-.53,7.73.12,11.61.58,3.44,1.71,6.89,3.52,10.34.63,1.2,1.38,2.32,2.16,3.41,1.52,2.12,3.18,4.13,4.42,6.34.04.07.1.15.13.22-.69.8-1.4,1.54-2.12,2.25-1.82,1.8-3.73,3.31-5.68,4.53-6.28,3.9-13.13,4.87-19.86,3.25-5.62-1.35-11.16-4.51-16.22-9.29-1.87-1.76-6.93-10.27-9.83-5.42-.67,1.12-.66,2.34-.27,3.56.94,2.89,4.09,5.82,5.92,7.51,10.89,10.05,24.61,14.93,38.96,8.8,0,.81-.04,1.59-.11,2.38-.15,1.52-.44,2.98-.86,4.37-.15.19-.28.38-.44.56-.75.91-3.89,3.99-4.86,4.19-1.03.21-3.39-1.11-4.86-1.27-5.24-.6-9.81.94-12.73,5.45-15.85-3.5-31.06-9.99-47.35-11.32-.61-.05-1.22-.09-1.82-.13-2.06-2.54-3.82-5.31-5.31-8.24-11.94-23.51-6.27-57.91,4.77-79.62ZM152.05,403.52c-8.62-4.39-14.33-12.2-22.99-16.74-13.61-7.12-29.93-5.04-40.63-18.06-7.92-9.64-6.48-21.9-13.64-31.96-6.47-9.09-16.44-12.45-23.38-20.41-6.63-7.6-10.35-17.24-12.21-27.08,18.46,3.71,37.25,1.13,54.75-5.31,27.84-10.24,47.88-31.93,78.74-35.5,22.09-2.55,40.41,5.06,61.26,10.42,1.29.61.71,2.66.71,3.93-9.71,2.31-18.42,1.44-28.03-.54-16.27-3.36-27.82-9.64-44.61-3.24-18.4,7.01-51.17,34.49-48.2,56.31,1.95,14.39,22.57,29.26,33.52,37.37.11,3.07-.5,6.1-.17,9.2,1.51,14.25,18.05,19.85,29.29,12.48l-18.51,31.6c-1.85-1.04-4-1.5-5.88-2.46ZM292.72,284.97c-1.03-1.63-.61-5.05-2.59-5.99-2.26-1.06-4.87.14-5.29,2.62,1.25,6.76,2.7,13.52,3.53,20.36,1.84,15.05,2.06,30-.53,44.96-.43,2.53-2.27,6.72-1.58,9.07.43,1.44,12.25,8.65,14.5,10.33,10.62,7.88,27.03,22.49,29.54,35.93,2.08,11.2-3.98,23.77-9.29,33.38-2.08,3.76-6.99,9.96-8.3,13.36-.86,2.22-.26,3.61,1.48,5.04,6.05,4.97,16.86,10.39,23.86,14.96,2.46,1.61,5.08,3.18,7.26,5.15h-85.33c6.93-17.88,14.52-35.59,21.11-53.62,1.13-3.11,4.25-9.16,2.76-12.02l-32.47-21.27c-.74-.59-.24-.48.02-.9,1.18-1.98,4.08-3.81,4.09-6.33.01-3.16-4.03-4.53-6.19-2.32l-72.6,83.39c-1.72,5.68-.98,12.08-1.15,18.04l-73.15.9c3.53-2.9,7.38-5.47,11.15-8.04,6.15-4.19,12.86-7.83,18.4-12.76,16.08-26.4,33.81-51.79,49.09-78.68,1.58-2.79,4.17-9.26,5.77-11.28.56-.71,2.86-1.76,4.08-3.26,1.01-1.24,2.16-4.48,2.35-4.65.16-.13,2.77-.69,3.84-1.35,3.11-1.93,5.99-8.07,6.41-11.65,1.31-11.11-5.23-17.76-14.87-21.7l-.9-23.84c.4-2.34,8.54-3.64,7.05-8.39-1.75-5.57-9.02.94-11.69,2.36-6.96,3.71-14.33,6.64-21.7,9.46-2.9,2.35-1.15,4.67.63,6.92,2.21,2.79,5.47,5.67,7.9,8.36,2,2.23,4.19,5.81,6.29,7.7,1.84,1.66,7.06,2.66,9.72,3.82,8.54,3.75,14.21,9.57,8.78,19.15-2.23,3.94-3.98,1.28-5.94,2.87-1.54,1.25-1.95,5.54-4.63,7.78-2.82,2.35-2.43.75-4.76.63-2.87-.15-3.98,3.09-6.13,4.74-9.69,7.47-22-1.03-18.8-13.39.36-1.39,2.05-2.11.99-4.4-.66-1.43-10.67-8.06-12.81-9.76-7.58-6.01-21.76-17.71-22.14-28.03-.63-17.24,28.15-40.42,42.69-46.59,16.09-6.83,27.72.15,43.51,3.32,8.18,1.65,16.07,2.16,24.39,1.13-2.21,4.07-3.71,9.14-4.06,13.77-.91,11.84,1.36,17.18,11.95,7.88,3.81-3.35,6.88-7.39,9.49-11.72,3.17,4.64,6.72,8.46,11.37,11.65,2.84,1.94,6.51,4.81,9.18.76,1.33-2.01,1.13-9.92.85-12.59-.27-2.58-1.38-5.25-2.26-7.68l-4.46-6.6c11.82-3.94,18.97-15.78,22.14-27.31,18.04-6.55,33.8-17.36,45.33-32.79,1.18-1.58,4.74-6.23,4.81-7.87.08-1.74-2.66-5.77-3.32-7.99-.96-3.23-1.53-7.43-.48-10.66,1.91-5.81,6.88-3.89,11.22-2.34,4.32,1.54,12.64,5.12,10.85,10.87-1.97,6.32-8.96-1.49-11.56,1.98-4.74,6.33,11.99,10.41,15.16,4.77h.67c.24,1.84,1.61,4.58,2.94,5.86,6.92,6.67,24.3-2.68,19.41-9.02-2.58-3.34-5.06,1.29-6.56,2.45-3.14,2.41-10.42,3.56-9.39-2.12.42-2.29,9.84-10.69,11.68-14.09,2.09-3.86-1.16-5.83-4.78-4.32l-10.58,11.76c-.13-3.59-2.03-5.71-4.07-8.34.9-2.85,9.6-10.29,5.22-12.9-4.55-2.72-8.62,6.01-10.67,9.03l-9.41-3.85c7.88-24.47,39.41-15.12,44.52,6.04,3.39,14-3.3,26.22-11.82,36.67-10.61,13.01-20.3,27.12-32.51,38.83-14.49,13.91-31.44,25.07-49.23,34.3ZM181.65,324.26l-12.4-13.32c0-.66,10.75-4.67,12.18-5.19l.22,18.51Z"/>
      <path class="st3" d="M229.44,207.84c3.96,2.08,4.83-2.87,4.45-5.94-.36-2.91-1.75-10.22-5.52-10.11-.12,0-.25.02-.37.03-4.14.63-2.18,11.71.49,15.16.31.39.62.7.94.86Z"/>
      <path class="st3" d="M244.62,205.38c7.05,3.73,4.69-14,.18-15.4-.21-.07-.43-.1-.65-.09-1.11.05-2.45.92-2.9,1.96-.88,2.07.11,8.56,1.89,11.81.45.82.95,1.44,1.48,1.72Z"/>
    </g>
  </g>
  <g>
    <path class="st3" d="M59.9,49.66l.69-11.3c-8.61-.13-16-7.18-7.88-14.57,3.56-3.24,6.37-4.7,11.4-3.85,3.84.65,8.89,9.2,10.71,12.59,4.61,8.58,9.9,25.48,6.39,34.85-1.74,4.65-4.67,3.76-8.35,5.02-2.24.77-4.3,1.86-6.72,2.53-10.13,2.82-20.76,3.29-30.34-1.54-2.48,1.74-8.68,6.39-11.67,6.09-1.88-.19-2.66-2.43-1.42-3.78.6-.65,4.93-2.11,6.33-2.92,1.18-.68,2.77-1.81,3.8-2.71,1.37-1.18,1.3-2.92,3.78-2.08.91.31,1.06,1.28,1.94,1.83,9.52,5.96,23.82,1.59,33.32-1.81,1.59-.57,4.02-.12,5.08-2.12,1.61-3.02.57-11.08-.04-14.55-1.38-7.84-4.75-15.69-9.41-22.11-2.41-3.32-4.11-6.38-8.75-4.15-3.63,1.75-8.08,5.74-2.13,8.17,3.42,1.4,4.95-.49,7.54,0,3.04.57.8,4.92.56,6.71-.46,3.42-.56,7.76-.74,11.26-.08,1.63.74,5.02-.75,5.76-1.99,1-2.32-1.18-3.57-2.1-2.77-2.05-8.21-2.88-11.57-2.42-1.37.19-2.9,1.55-3.98,1.21s-2.41-3.26-3.27-4.29c-3.32-3.95-8.41-4.77-13.16-2.94-1.61.62-3.67,2.7-5.3.84-2.65-3.04,4.71-5.77,6.93-6.07,6.73-.91,12.6,1.52,16.17,7.29,4.91-1.52,9.66-.24,14.4,1.19Z"/>
    <path class="st3" d="M57.68,62.17c1.54.04,2.32,1.59,1.71,2.91-1.81,3.92-14.53,5.53-15.86,1.13-1.18-3.91,3.31-1.98,4.9-1.81,1.67.17,3.91-.13,5.5-.67,1.26-.43,2.47-1.6,3.76-1.56Z"/>
  </g>
</svg>