<?xml version="1.0" encoding="UTF-8"?>
<svg id="Capa_1" xmlns="http://www.w3.org/2000/svg" version="1.1" viewBox="0 0 442.43 630.3">
  <!-- Generator: Adobe Illustrator 30.0.0, SVG Export Plug-In . SVG Version: 2.1.1 Build 123)  -->
  <defs>
    <style>
      .st0 {
        font-size: 34.24px;
        letter-spacing: .04em;
      }

      .st0, .st1 {
        font-family: Gabarito-Regular, Gabarito;
      }

      .st0, .st1, .st2, .st3, .st4 {
        fill: #1d0981;
      }

      .st5 {
        fill: #41af59;
      }

      .st6 {
        fill: #fff;
      }

      .st1 {
        font-size: 16.67px;
        letter-spacing: .04em;
      }

      .st7 {
        fill: none;
        stroke: #1d0981;
        stroke-miterlimit: 10;
        stroke-width: 5px;
      }

      .st3 {
        font-size: 47.23px;
        letter-spacing: .04em;
      }

      .st3, .st4 {
        font-family: Gabarito-Bold, Gabarito;
        font-weight: 700;
      }

      .st4 {
        font-size: 18.39px;
        letter-spacing: .04em;
      }
    </style>
  </defs>
  <rect class="st5" width="442.43" height="630.3" rx="30" ry="30"/>
  <path class="st6" d="M362.05,272.9l3.99-40.16c7.14-3.91,8.87-12.88,4.35-19.52,14.16-9.53,7.87-32.68-9.72-32.53-12.27.1-20.24,12.5-16.15,23.85.96,2.64,2.85,4.74,4.41,7.01-5.18,4.4-6.59,12.15-1.96,17.52,1,1.16,2.67,1.46,2.43,3.16l-4.41,37.49c-7.11-2.36-13.6.2-18.23,5.77-2.85,3.41-3.79,6.76-5.05,10.92-4.76,1.64-10.53,4.4-15.5,5.03-10.47,1.33-30.31-9.63-40.57-13.97-2.61-1.1-5.25-2.21-7.91-3.25l-1.12-14.89c.27-.86,8.46-6.32,9.86-7.61,1.91-1.76,2.01-2.98.21-4.99-2.15-2.4-5.51-4.63-7.74-7.33-17.24-20.8.17-45.06,8.5-65.26,3.46-8.39,13.92-34.5-3.95-32.52-4.67.52-8.61,4.2-12.64,5.63-.4.14-.39.56-.86-.06-1.76-9.95-3.14-19.95-5.54-29.77-1.75-7.17-2.91-19.26-12.32-9.94l-23.79,27.78-22.23-18.63c2.23-3.89,3.75-8.03,1.76-12.46-.94-2.08-3.91-5.24-6.2-5.7-10.41-2.11-15.86,9.54-9.23,17.05.65.74,2.72,1.75,2.7,2.81l-9.06,30.43c-7.8-2.71-15.11-6.78-22.73-9.99-3.09-1.3-10.87-5.05-13.77-4.52-4.45.82-2.52,7.02-1.85,10.22,4.01,19.02,14.1,38.25,19.62,56.95-.07,19.78.04,39.38,2.94,58.95,1.13,7.61,2.78,15.15,4.31,22.69l-1.16.77c-6.9,2.26-13.88,4.4-20.56,7.25-12.98,5.53-41.56,18.78-43.26,34.49-1.75,16.12,22.19,38.66,33.82,48.1.28.23.6.41.98.4-1.59,1.81-2.91,2.29-3.76,4.76-3.16,9.13,6.73,19.35,15.46,20.22s16.13-2.23,22.81-7.53l-17.76,81.62c-8.6,6.87-18.23,12.42-27.19,18.82-2.06,1.47-10.79,7.48-11.48,9.15-.88,2.13-.05,3.8,2.07,4.48l85.12.2,3.75-1.02,35.31-102.54c2.5,10.76,5.7,21.35,8.14,32.13,4.2,18.51,7.43,37.04,6.56,56.16-.16,3.48-1.49,9.18-1.23,12.28.14,1.54,1.24,3.15,2.98,3l101-.22c2.21-.43,2.54-3.19,1.18-4.77-1.14-1.34-6.62-4.33-8.47-5.42-12.59-7.4-26.17-13.04-39.28-19.43-.79-.38-3.55-1.55-3.77-2.19l-.46-28.89c-1.3-19.76-3.12-39.48-6.47-58.99-2.96-17.26-7.04-34.38-12.17-51.1,6.34,1.95,12.93,3.98,19.62,4.38,14.92.89,28.32-6.06,41.87-11.13-.76,8.86-2.55,17.61-3.52,26.43-.22,2.04-1.08,7.37-.75,8.99,1.26,6.31,16.13,8.48,17.73,1.25l4.05-36.42c.25-.78,6.55-1.82,8.15-2.56,5.49-2.54,8.74-8.21,8.88-14.17.01-.77-.5-1.67-.36-2.28.08-.35,2.71-2.98,3.33-4.23,2.1-4.27,1.91-9.01-1.37-12.57,6.21-10.01-1.51-19.7-12.34-19.58ZM160.12,329.23l1.99,20.63c-.69.18-.8-.27-1.2-.59-5.61-4.46-10.19-10.25-15.46-15.08l14.67-4.96Z"/>
  <text class="st4" transform="translate(103.17 50.76)"><tspan x="0" y="0">AUTORIDAD</tspan></text>
  <g>
    <text class="st1" transform="translate(314.34 40.82)"><tspan x="0" y="0">ESTABILIDAD</tspan><tspan x="0" y="14.63">&amp; CONTROL</tspan></text>
    <circle class="st7" cx="294.67" cy="37.02" r="8.03"/>
    <line class="st7" x1="288.99" y1="42.7" x2="279.45" y2="52.24"/>
  </g>
  <g>
    <g>
      <text class="st3" transform="translate(88.99 594.01)"><tspan x="0" y="0">GOBERNANTE</tspan></text>
      <text class="st0" transform="translate(35.53 583.73)"><tspan x="0" y="0">EL</tspan></text>
    </g>
    <rect class="st2" x="53.63" y="575.38" width="3.42" height="33.85" transform="translate(647.64 536.96) rotate(90)"/>
  </g>
  <path class="st2" d="M54.02,24.58l11.17,19.56,14.52-13.24c1.84-1.62,4.14-.22,3.69,2.12l-7.94,37.92-1.08,1.1-43.9-.07-1.19-1.62c-1.83-11.95-5.34-23.93-7.22-35.82-.22-1.41-.88-2.97.55-3.94,1.06-.72,1.82-.33,2.77.31l14.51,13.23,10.95-19.01c.7-1.19,2.05-1.24,3.17-.55ZM77.51,38.22c-.03.28-.12.56-.33.75-4.05,3.54-7.82,7.49-12.07,10.75-.89.18-1.75-.32-2.21-1.1l-10.34-18.19-11,19.11c-.91.43-1.83.28-2.58-.39l-12.01-10.92,4.64,21.97,41.8.15,4.7-21.97-.61-.15ZM72.51,64.42h-39.93l.82,3.76h38.3s.81-3.76.81-3.76Z"/>
  <g>
    <path class="st2" d="M219.67,235.47c3.27-1.06.37-7.31-.41-9.56-.92-2.66-2.62-9.16-6.06-8.45-1.18.24-1.89,1.29-1.85,2.46.05,1.71,2.38,7.62,3.14,9.58.96,2.48,1.7,7.11,5.18,5.97Z"/>
    <path class="st2" d="M233.33,233.25c1.25-1.45-.17-5.39-.69-7.21-.6-2.1-2.07-8-4.75-7.77-3.63.31-2.08,5.36-1.47,7.63.6,2.2,3.67,11.09,6.9,7.35Z"/>
    <path class="st2" d="M362.05,272.9l3.99-40.16c7.14-3.91,8.87-12.88,4.35-19.52,14.16-9.53,7.87-32.68-9.72-32.53-12.27.1-20.24,12.5-16.15,23.85.96,2.64,2.85,4.74,4.41,7.01-5.18,4.4-6.59,12.15-1.96,17.52,1,1.16,2.67,1.46,2.43,3.16l-4.41,37.49c-7.11-2.36-13.6.2-18.23,5.77-2.85,3.41-3.79,6.76-5.05,10.92-4.76,1.64-10.53,4.4-15.5,5.03-10.47,1.33-30.31-9.63-40.57-13.97-2.61-1.1-5.25-2.21-7.91-3.25l-1.12-14.89c.27-.86,8.46-6.32,9.86-7.61,1.91-1.76,2.01-2.98.21-4.99-2.15-2.4-5.51-4.63-7.74-7.33-17.24-20.8.17-45.06,8.5-65.26,3.46-8.39,13.92-34.5-3.95-32.52-4.67.52-8.61,4.2-12.64,5.63-.4.14-.39.56-.86-.06-1.76-9.95-3.14-19.95-5.54-29.77-1.75-7.17-2.91-19.26-12.32-9.94l-23.79,27.78-22.23-18.63c2.23-3.89,3.75-8.03,1.76-12.46-.94-2.08-3.91-5.24-6.2-5.7-10.41-2.11-15.86,9.54-9.23,17.05.65.74,2.72,1.75,2.7,2.81l-9.06,30.43c-7.8-2.71-15.11-6.78-22.73-9.99-3.09-1.3-10.87-5.05-13.77-4.52-4.45.82-2.52,7.02-1.85,10.22,4.01,19.02,14.1,38.25,19.62,56.95-.07,19.78.04,39.38,2.94,58.95,1.13,7.61,2.78,15.15,4.31,22.69l-1.16.77c-6.9,2.26-13.88,4.4-20.56,7.25-12.98,5.53-41.56,18.78-43.26,34.49-1.75,16.12,22.19,38.66,33.82,48.1.28.23.6.41.98.4-1.59,1.81-2.91,2.29-3.76,4.76-3.16,9.13,6.73,19.35,15.46,20.22s16.13-2.23,22.81-7.53l-17.76,81.62c-8.6,6.87-18.23,12.42-27.19,18.82-2.06,1.47-10.79,7.48-11.48,9.15-.88,2.13-.05,3.8,2.07,4.48l85.12.2,3.75-1.02,35.31-102.54c2.5,10.76,5.7,21.35,8.14,32.13,4.2,18.51,7.43,37.04,6.56,56.16-.16,3.48-1.49,9.18-1.23,12.28.14,1.54,1.24,3.15,2.98,3l101-.22c2.21-.43,2.54-3.19,1.18-4.77-1.14-1.34-6.62-4.33-8.47-5.42-12.59-7.4-26.17-13.04-39.28-19.43-.79-.38-3.55-1.55-3.77-2.19l-.46-28.89c-1.3-19.76-3.12-39.48-6.47-58.99-2.96-17.26-7.04-34.38-12.17-51.1,6.34,1.95,12.93,3.98,19.62,4.38,14.92.89,28.32-6.06,41.87-11.13-.76,8.86-2.55,17.61-3.52,26.43-.22,2.04-1.08,7.37-.75,8.99,1.26,6.31,16.13,8.48,17.73,1.25l4.05-36.42c.25-.78,6.55-1.82,8.15-2.56,5.49-2.54,8.74-8.21,8.88-14.17.01-.77-.5-1.67-.36-2.28.08-.35,2.71-2.98,3.33-4.23,2.1-4.27,1.91-9.01-1.37-12.57,6.21-10.01-1.51-19.7-12.34-19.58ZM369.59,289.16c-5.65-1.75-11.13-2.33-17.06-1.98l-.79-7.53c7.22-1.66,22.35-2.04,17.85,9.51ZM350.55,273.69l4.76-40.46,4.37.39-3.95,39.02-5.18,1.05ZM366.32,222.62c-.94,5.47-8.69,5.65-12.69,3.75-5.18-2.45-3.51-9.97,1.97-10.9,5.36-.91,11.88.41,10.72,7.15ZM359.18,187.31c15.91-2.27,17.53,24.06-.46,21.68-11.91-1.57-11.64-19.95.46-21.68ZM177.49,103.61c5.34-1.59,7.98,7.82,3.3,9.27-6.84,2.11-6.95-8.19-3.3-9.27ZM150.23,193.19l-15.19-44.12-1.87-8.24,35.41,15.41,2.3-2.1,10.1-33.94c5.3,4.14,10.5,8.54,15.67,12.88,2.71,2.28,5.42,5.2,8.13,7.34,3.01,2.36,4.15,3.37,7.14.41,6.58-6.52,13.06-16.21,19.43-23.42,1.06-1.2,3.26-4,4.36-4.76.34-.23.39-.55.99-.39,4.05,12.52,5.38,25.72,7.56,38.66l-16.86,16.9-1.4.19,2.37-13.5c1.16-11.23-7.54-7.96-13.85-4.33-11.44,6.6-20.18,18.49-28.28,28.64-12.92,2.06-24.45,8.69-36.01,14.37ZM339.39,320.65l-.62.58c-13.38,4.66-26.98,12.42-41.6,11.59-7.76-.44-15.74-2.93-22.82-5.84-2.85-8.76-6.66-17.16-10.49-25.51-3.65-2.81-6.19-.09-4.86,4.07,2.09,6.55,6.1,13.68,8.53,20.42,1.42,3.93,2.67,7.99,3.87,12,13.47,44.93,18.74,92.46,18.14,139.37l44.35,22.49h-85.3l1.21-10.89c1.14-27.57-8.38-69.06-17.28-95.43-.69-2.06-1.17-5.18-3.96-5.18-2,0-2.61,1.59-3.28,3.09-5.3,11.92-9.78,28.35-14.09,41.06-7.53,22.2-14.54,44.58-22.09,66.77l-75,.58c8.86-7.14,19.27-12.67,28.29-19.51,1.64-1.24,3.37-2.45,4.54-4.19l14.26-65.09c2.02-9.21,3.46-19.32,5.79-28.33,1.93-7.48,6.41-13.97,3.37-22.24-.51-1.39-2.08-3.03-2.28-4.07-.47-2.55.15-6.69,0-9.52-.32-6.07-.88-13.8-2.12-19.69-.84-3.96-1.09-5.41-5.85-4.51l-22.57,7.97c-2.47,1.83-.88,3.55.57,5.34,6.77,8.39,18.94,15.83,24.96,24.63,2.96,4.32,2.03,8.69.42,13.44-3.62,10.67-14.79,20-26.52,18.62-4.46-.53-10.8-5.22-10.59-10.07.25-5.48,9.93-2.24,7.67-8.44-10.19-8.57-21.02-17.34-29.22-27.91-4.18-5.39-10.73-14.86-8.48-21.89,2.63-8.21,16.01-16.06,23.31-19.93,12.56-6.68,25.71-11.49,39.15-15.81.63-.74,1.2-1.52,1.65-2.38.14-.26.27-.52.38-.8.03-.08.05-.15.08-.23h0c.45-1.24.56-2.54.52-3.84-.33.03-.67.05-1,.07-.07.03-.15.06-.22.08-5.7-25.66-8.49-51.84-7.23-78.23.09-1.87.61-3.74.5-5.65,6.32-3.48,12.91-6.53,19.65-9.11.62-.23,9.1-3.53,8.83-2.68-1.3,2.02-4.47,8.56-.5,9.27,3.19.57,3.83-4.35,4.94-6.42,5.27-9.86,21.1-27.97,30.75-33.51.88-.51,4.5-2.55,5.24-2.03.14.43.36.87.36,1.34.06,4.74-2.31,14.48-3.7,19.25-.67,2.33-3.69,9.02-3.75,10.56-.07,1.96,1.91,2.99,3.67,2.46.53-.16,1.62-1.41,2.07-1.9,11.68-12.54,22.77-30.37,39.77-36.81,4.8-1.82,7.15-1.98,6.86,4.09-.9,18.6-16.68,38.11-20.52,56.44-3.24,15.48.97,30.61,13.75,40.34-6.67,6.33-15.63,11.64-25.18,10.91-6.57-.51-13.7-4.52-18.64-8.73-1.71-1.47-6.46-7.11-8.03-7.45-5.23-1.16-3.43,3.9-1.31,6.47,6.38,7.75,17.47,14.86,27.63,15.61,5.89.44,10.77-1.13,16.02-3.51,0,2.21,0,4.45.05,6.68.07.19.12.4.14.63.05.81.04,1.65.03,2.49h-.01c0,.97,0,1.95.14,2.87,0,.03.01.06.01.09.03.18.06.36.1.54.01.04.02.08.03.11.06.24.13.47.21.69,0,.03.02.06.03.09.09.23.2.46.33.68.02.04.05.09.07.13.13.22.28.43.45.64.03.03.06.07.09.1.18.22.38.42.62.62.31.26.65.5.99.72.09.06.18.12.27.17.3.19.61.37.93.54l.12.06c1.46.76,3.03,1.36,4.46,2.12.95.39,1.68.69,2.01.83,11.19,4.57,31.19,15.71,42.68,14.87,7.46-.54,15.6-4.68,22.74-6.81-.56-6.81,4.51-16.42,12.15-16.24,4.92.11,6.24,6.2,6.55,10.15.23,2.98.52,10.95-3.77,10.95-6.35,0-2.16-14.67-8.91-12.52-2.94.95-1.64,6.62-1.08,8.99.94,4.07,3.74,8.04,7.81,9.44v.59c-2.9,2.43-3.74,6.09-3,9.75.35,1.69,2.08,3.29,2.22,4.16.19,1.23-.67,2.92-.46,4.29ZM162.11,349.86c-.69.18-.8-.27-1.2-.59-5.61-4.46-10.19-10.25-15.46-15.08l14.67-4.96,1.99,20.63ZM345.78,361.95c-.6,2.17-5.53,1.42-5.58-.78l5.19-41.06,5.16,1.19-4.77,40.65ZM361.26,320.11c.87-6.18-4.85-3.96-8.82-4.47-3.11-.39-11.4-3.19-8.59-7.59,2.38-3.76,17.61-1.67,21.12,1.41,4.05,3.55-.18,8.63-3.71,10.65ZM369.14,304.18c-.82.48-2.3-.98-3.12-1.32-5.64-2.36-10.99-3-17.06-3.18,1.58-1.85,2.82-4.09,3.22-6.51,4.23-.44,16.42.26,18.51,4.61,1.29,2.7-.51,4.12-1.55,6.4Z"/>
    <path class="st5" d="M162.11,349.86c-.69.18-.8-.27-1.2-.59-5.61-4.46-10.19-10.25-15.46-15.08l14.67-4.96,1.99,20.63Z"/>
  </g>
</svg>