<?xml version="1.0" encoding="UTF-8"?>
<svg id="Capa_1" xmlns="http://www.w3.org/2000/svg" version="1.1" viewBox="0 0 442.43 630.3">
  <!-- Generator: Adobe Illustrator 30.0.0, SVG Export Plug-In . SVG Version: 2.1.1 Build 123)  -->
  <defs>
    <style>
      .st0 {
        fill: #63bde0;
      }

      .st1 {
        fill: #fff;
      }

      .st2 {
        font-size: 16.67px;
        letter-spacing: .04em;
      }

      .st2, .st3, .st4, .st5, .st6 {
        fill: #1d0981;
      }

      .st2, .st4 {
        font-family: Gabarito-Regular, Gabarito;
      }

      .st7 {
        fill: none;
        stroke: #1d0981;
        stroke-miterlimit: 10;
        stroke-width: 5px;
      }

      .st4 {
        font-size: 50.86px;
        letter-spacing: .04em;
      }

      .st5 {
        font-size: 18.39px;
        letter-spacing: .04em;
      }

      .st5, .st6 {
        font-family: Gabarito-Bold, Gabarito;
        font-weight: 700;
      }

      .st6 {
        font-size: 70.16px;
        letter-spacing: .04em;
      }
    </style>
  </defs>
  <rect class="st0" width="442.43" height="630.3" rx="30" ry="30"/>
  <g>
    <g>
      <text class="st6" transform="translate(114.34 593.96)"><tspan x="0" y="0">AMANTE</tspan></text>
      <text class="st4" transform="translate(34.92 578.69)"><tspan x="0" y="0">EL</tspan></text>
    </g>
    <rect class="st3" x="61.8" y="566.28" width="5.09" height="50.28" transform="translate(655.76 527.07) rotate(90)"/>
  </g>
  <text class="st5" transform="translate(103.17 50.76)"><tspan x="0" y="0">INTIMIDAD</tspan></text>
  <g>
    <path class="st3" d="M38.72,23.45c3.81-.14,8.74,1.73,11.56,4.3.66.6,2.12,3.06,2.89,2.9,8.78-12.67,28.96-7.1,30.18,8.22,1.12,13.99-11.56,23.72-20.83,32.14-1.56,1.41-7.74,7.84-9.1,8.07-.36.06-.69.07-1.04-.08l-17.06-15.11c-6.75-7.39-14.72-15.78-12.49-26.73,1.56-7.68,7.94-13.42,15.9-13.71ZM38.34,28.2c-8.29.64-12.57,9.05-10.63,16.63,1.91,7.43,11.27,16.22,16.9,21.44,1,.93,7.99,7.17,8.53,7.08,6.17-5.93,13.21-11.61,18.87-18.03,4.58-5.19,8.1-11.34,6.09-18.53-2.48-8.87-14.38-11.6-20.33-4.48-1.51,1.8-2.21,5.42-4.93,5.31-2.4-.1-3.36-3.93-4.95-5.67-2.27-2.48-6.2-4.01-9.56-3.75Z"/>
    <path class="st3" d="M52.98,80.12c-.3,0-.64-.05-.99-.2l-.15-.06-17.26-15.29-.47-.52c-6.82-7.45-14.54-15.9-12.26-27.09,1.68-8.24,8.6-14.21,16.84-14.51,4.05-.15,9.21,1.77,12.27,4.56.28.25.59.67.96,1.14.23.31.64.84.97,1.2,4.29-5.57,11.41-7.95,18.4-6.07,7.34,1.98,12.47,8.07,13.06,15.51,1.05,13.17-9.32,22.41-18.47,30.55-.92.82-1.82,1.62-2.69,2.41-.37.34-1.01.97-1.79,1.73-4.39,4.31-6.68,6.4-7.82,6.58-.17.03-.37.05-.59.05ZM52.88,78.11c.08.01.19,0,.37-.02.9-.3,5-4.32,6.75-6.04.8-.79,1.46-1.44,1.85-1.78.88-.79,1.78-1.6,2.7-2.42,8.8-7.84,18.78-16.72,17.81-28.9-.53-6.59-5.07-11.99-11.59-13.74-5.14-1.38-12.24-.53-16.77,6.01l-.23.33-.39.08c-1.13.23-2.07-.98-3.05-2.26-.27-.35-.57-.74-.71-.88-2.67-2.43-7.33-4.17-10.85-4.03h0c-7.31.27-13.46,5.58-14.96,12.91-2.08,10.19,5.28,18.24,11.78,25.34l.44.48,16.86,14.93ZM53.25,74.34c-1.16,0-5.68-3.97-9.31-7.34-5.3-4.93-15.18-14.1-17.19-21.93-1.13-4.4-.3-9.13,2.21-12.64,2.21-3.08,5.51-4.94,9.31-5.24,3.65-.29,7.92,1.39,10.37,4.07.62.67,1.12,1.58,1.61,2.45.79,1.41,1.61,2.86,2.64,2.9,1.18.05,1.83-1.01,2.77-2.77.41-.76.83-1.55,1.36-2.18,3-3.59,7.62-5.13,12.34-4.11,4.73,1.02,8.45,4.45,9.72,8.96,2.34,8.37-2.48,15.11-6.3,19.46-3.75,4.26-8.14,8.22-12.39,12.06-2.18,1.97-4.43,4.01-6.54,6.03l-.22.21-.3.05s-.05,0-.07,0ZM38.42,29.19c-3.2.25-5.98,1.81-7.84,4.41-2.17,3.04-2.88,7.14-1.9,10.98,1.87,7.26,11.46,16.17,16.61,20.96,1.43,1.33,6.09,5.42,7.69,6.58,1.97-1.88,4.04-3.75,6.05-5.56,4.2-3.8,8.55-7.72,12.23-11.9,5.59-6.35,7.46-11.94,5.88-17.6-1.06-3.8-4.21-6.69-8.21-7.55-3.99-.86-7.87.43-10.39,3.44-.4.47-.75,1.14-1.13,1.84-.94,1.75-2.1,3.93-4.61,3.82-2.15-.09-3.29-2.12-4.3-3.92-.45-.81-.88-1.57-1.34-2.08-2.07-2.26-5.66-3.67-8.74-3.43h0Z"/>
  </g>
  <path class="st1" d="M290.28,351.31c8.52,34.05,17.33,68.11,22.19,102.96.67,1.28,6.55,3.61,8.32,4.6,8.6,4.83,20.62,11.43,27.88,17.87,7.97,7.07,4.07,9.69-4.8,10.24-25.33,1.57-54.69.03-80.21-.59-6.73-.16-13.49.39-20.21-.25l-24.49-91.25-20.73,90.7c-.76.57-1.48.72-2.41.82-5.82.64-13.32-.17-19.41-.03-25.24.58-51.21,1.6-76.42.03-3.67-.23-11.81,1.32-10.38-5,.51-2.28,6.27-6.3,8.34-7.82,9.61-7.1,20.66-13.06,31.29-18.5,4-33.81,11.85-66.95,18.41-100.29.06-1.12,0-.69-.8-.8-1.47-.21-3.28.14-4.86,0-44.16-3.94-53.41-46.58-30.86-79.83,13-19.16,34.89-32.86,56.96-39.13-1.49-4.32-2.8-8.83-3.61-13.34-5.24-29.19,4.16-61.91,19.54-86.73,4.94-7.97,13.21-19.68,21.26-24.49,13.47-8.06,14.93,3.14,14.51,13.97-.04,1.09-1.19,3.66-.03,4.01,2.33-4.04,5.53-8.55,8.63-12.09,4.46-5.09,16.9-17.52,23.13-9.16,5.85,7.85-.96,26.3-2.68,35.25,7.06-5.28,17.43-15.52,26.64-8.61,6.78,5.09,4.79,17.92,3.03,25.1-3.09,12.62-11.09,25.79-11.94,38.66-.77,11.7,2.71,23.69-2.09,34.98,5.18,2.16,10.81,3.74,16.1,5.98,30,12.66,59.43,39.9,56.53,75.34-1.51,18.43-18.84,37.42-37.94,37.42h-8.88Z"/>
  <g>
    <path class="st3" d="M290.28,351.31c8.52,34.05,17.33,68.11,22.19,102.96.67,1.28,6.55,3.61,8.32,4.6,8.6,4.83,20.62,11.43,27.88,17.87,7.97,7.07,4.07,9.69-4.8,10.24-25.33,1.57-54.69.03-80.21-.59-6.73-.16-13.49.39-20.21-.25l-24.49-91.25-20.73,90.7c-.76.57-1.48.72-2.41.82-5.82.64-13.32-.17-19.41-.03-25.24.58-51.21,1.6-76.42.03-3.67-.23-11.81,1.32-10.38-5,.51-2.28,6.27-6.3,8.34-7.82,9.61-7.1,20.66-13.06,31.29-18.5,4-33.81,11.85-66.95,18.41-100.29.06-1.12,0-.69-.8-.8-1.47-.21-3.28.14-4.86,0-44.16-3.94-53.41-46.58-30.86-79.83,13-19.16,34.89-32.86,56.96-39.13-1.49-4.32-2.8-8.83-3.61-13.34-5.24-29.19,4.16-61.91,19.54-86.73,4.94-7.97,13.21-19.68,21.26-24.49,13.47-8.06,14.93,3.14,14.51,13.97-.04,1.09-1.19,3.66-.03,4.01,2.33-4.04,5.53-8.55,8.63-12.09,4.46-5.09,16.9-17.52,23.13-9.16,5.85,7.85-.96,26.3-2.68,35.25,7.06-5.28,17.43-15.52,26.64-8.61,6.78,5.09,4.79,17.92,3.03,25.1-3.09,12.62-11.09,25.79-11.94,38.66-.77,11.7,2.71,23.69-2.09,34.98,5.18,2.16,10.81,3.74,16.1,5.98,30,12.66,59.43,39.9,56.53,75.34-1.51,18.43-18.84,37.42-37.94,37.42h-8.88ZM287.05,283.22c.37,3.1-.27,6.79,0,9.96.77.11.84-1.48.93-2.03.63-4.19-.35-10.08,6.11-6.76,1.25,1.97-.04,14.51-1.89,15.83-1.15.82-2.27.6-3.56.25-4.67-1.27-11.6-5.46-16.93-7.29-4.12-1.41-15.5-5.45-19.08-2.91-1.09.78-1.97,2.76-1.57,4.14.59,2.04,13.17,7.4,15.88,8.91,2.92,1.62,11.69,5.26,8.3,9.56-1.25,1.26-2.71.81-4.21.33-5.31-1.68-12.9-7.8-19-10.06-2.65-.98-5.08-1.82-7.99-1.28-2.51,5.2,5.41,9.53,9.12,11.99,4,2.65,21.35,9.57,11.49,13.77l-22.17-11.75c-8.77.66,2.21,11.42,4.97,13.92,32.25,29.22,96.82,17.77,81.29-35.54-8.48-29.12-39.72-48-67.3-55.82-1.31.14-1.77,4.87-6.34,3.49-4.38-1.31.99-7.14,2.05-9.03,6.15-10.9,2.2-22.98,2.93-34.75.95-15.33,9.42-28,12.48-42.43.97-4.57,3.38-17.82-4.09-17.6-6.25.19-17.27,11.62-21.56,16.17-2.66,2.81-6.38,10.57-9.96,4.02,1.5-6.95,4.32-13.76,6.2-20.7,2.23-8.24,5.44-18.03,3.2-26.4-1.15.11-2.26.5-3.29,1.01-8.23,4.03-18.95,20.44-23.76,28.46-3.2,5.33-6.65,14.27-9.88,18.65-1.65,2.25-5,1.88-5.72-.57-.81-2.77,2.75-9.06,3.8-12.12,3.39-9.92,7.12-21.1,5.21-31.61-3.45-2.92-16.74,13.75-18.72,16.49-18.48,25.66-29.43,61.82-22.34,93.2.67,2.95,4.16,11.97,3.14,14.09-.45.71-1.15,1.02-1.89,1.34-3.74,1.65-9.23,2.63-13.45,4.31-29.12,11.64-64.24,44.97-51.55,79.53,13.82,37.65,73.14,24.06,97.79,5.47,3.18-2.4,12.95-9.9,6.34-13.04l-22.81,9.45c-3.72-1.04-4.85-4.41-1.2-6.51,6.45-3.71,19.11-6.34,24.44-10.58,4.3-3.42,1.68-6.86-3.16-6.41-9.07.85-19.53,8.54-27.02,9.62-4.4.63-6.19-3.78-2.77-6.02l23.82-9.56c4.38-6.49-2.46-6.88-7.54-6.46-13.7,1.12-27.21,9.32-40.53,11.15-4.81.66-7.92,1.78-7.65-4.42.09-2.18.97-9.78,2.81-10.64,6.04-2.82,5.45,5.26,4.18,8.75l6.78-1.59c-8.18-37.04,47.8-55.38,62.93-20.48,10.79-23.74,45.45-23.44,58.1-1.57,1.74,3,4.22,8.69,4.62,12.07ZM343.03,480.5c-8.59-6.67-18.09-12.12-27.63-17.31-2.41-1.31-7.79-2.97-8.85-5.14-4.66-36.19-13.66-71.58-22.99-106.74l-15.35-2.95-12.12-4.98c-5.78,5.32-24.05,24.1-31.27,24.61-3.24.23-9.75-4.77-12.53-6.77-6.92-4.99-13.1-10.9-19.24-16.79-12.39,5.17-25.4,8.89-38.89,9.65-7.4,34.33-14.36,68.8-18.79,103.69-.28.66-.52,1.26-1.05,1.77-2.1,2-11.93,6.16-15.38,8.16-6.62,3.84-13.06,8.01-19.22,12.54l94.15-.32c5.91-24.42,10.24-49.22,15.93-73.7.93-3.99,3.79-18.74,5.9-21.01s5.27-2.15,6.87.72c1.83,3.3,3.79,11.9,5,15.99,7.62,25.69,13.1,52.06,19.67,78.03l95.79.56Z"/>
    <path class="st3" d="M207.12,213.75c2.5.01,2.98,2.22,4.3,3.53,6.9,6.87,14.49,13.5,24.78,7.54,2.71-1.57,6.95-7.61,8.17-7.98,2.73-.82,4.74,1.18,4.46,3.88s-6.42,8.17-8.78,9.57c-9.44,5.62-20.49,3.51-28.62-3.35-1.91-1.61-7.18-7.09-7.33-9.4-.13-1.98.87-3.81,3.01-3.8Z"/>
    <path class="st3" d="M236.04,205.31c-1.43-1.47-1.48-11.28-1.17-13.57.65-4.68,6.21-4.94,6.93-.54.32,1.97.33,10.38-.08,12.23-.64,2.9-3.42,3.14-5.68,1.88Z"/>
    <path class="st3" d="M215.31,188.32c2.39-.71,4.04.5,4.43,2.88.34,2.05.34,9.73,0,11.78-.69,4.21-5.8,3.84-6.41.56-.32-1.7-.32-11.19,0-12.89.17-.92,1.09-2.06,1.99-2.33Z"/>
  </g>
  <g>
    <text class="st2" transform="translate(314.34 40.82)"><tspan x="0" y="0">AFILIACIÓN</tspan><tspan x="0" y="14.63">&amp; CONEXIÓN</tspan></text>
    <circle class="st7" cx="294.67" cy="37.02" r="8.03"/>
    <line class="st7" x1="288.99" y1="42.7" x2="279.45" y2="52.24"/>
  </g>
</svg>