<?xml version="1.0" encoding="UTF-8"?>
<svg id="Capa_1" xmlns="http://www.w3.org/2000/svg" version="1.1" viewBox="0 0 442.43 630.3">
  <!-- Generator: Adobe Illustrator 30.0.0, SVG Export Plug-In . SVG Version: 2.1.1 Build 123)  -->
  <defs>
    <style>
      .st0 {
        fill: #63bde0;
      }

      .st1 {
        fill: #fff;
      }

      .st2 {
        font-size: 83.19px;
        letter-spacing: .04em;
      }

      .st2, .st3, .st4, .st5, .st6 {
        fill: #1d0981;
      }

      .st2, .st6 {
        font-family: Gabarito-Bold, Gabarito;
        font-weight: 700;
      }

      .st3 {
        font-size: 16.67px;
        letter-spacing: .04em;
      }

      .st3, .st4 {
        font-family: Gabarito-Regular, Gabarito;
      }

      .st7 {
        fill: none;
        stroke: #1d0981;
        stroke-miterlimit: 10;
        stroke-width: 5px;
      }

      .st4 {
        font-size: 60.31px;
        letter-spacing: .04em;
      }

      .st6 {
        font-size: 18.39px;
        letter-spacing: .04em;
      }
    </style>
  </defs>
  <rect class="st0" y="0" width="442.43" height="630.3" rx="30" ry="30"/>
  <path class="st1" d="M410.08,232.48c-8.07-13.73-28.02-16.14-40.93-7.73-4.34-7.53-12.65-11.29-20.76-6.69-2.26,1.28-4.78,3.92-5.75,6.36-2.08,5.25,0,7.45,2.92,9.38.13-.62.35-1.22.64-1.71.76-1.29,1.8-1.92,3.08-2.48,0,0,0,0,0,0-.26.11-.53.22-.79.33.25-.11.49-.24.73-.37-1.58-.96-2.45-2.06-.67-4.56,3.48-4.91,11.71-3.78,14.93,1.05.96,1.44,1.56,4.33,2.47,5.27,2.19,2.25,4.76-1.08,6.66-2.11,6.97-3.78,13.57-5.04,21.35-2.66,1.48.45,11.48,5.42,9.78,7.4-7.97,1.06-14.21,6.33-19.84,11.62-6.07-8.25-15.2-12.5-25.08-8.42-.33.34-.7.62-1.08.8-.66.31-1.28.68-1.9,1.05-.9.53-1.84.94-2.81,1.35.06.12.12.23.17.36l-2.24,3.41-3.14-4.35c-9.46-7.54-24.29,3.7-17.59,14.21.75,1.17,4.86,4.4,4.75,4.89-7.53,6.83-22.97,20.37-33.57,19.59-7.75-.57-14.64-6.46-20.64-10.85-.22-.87,2.86-2.32,3.65-3.13,4.69-4.81,1.59-9.47-4.13-10.92-5.46-1.38-12.34-.81-17.92-.24,1.53-7.07,1.2-14.35.09-21.44,1.98-2.89,5.04-5.08,6.3-8.72,3.54-10.23-5.81-13.4-13.91-14.86-2.58-13.4-10.82-23.99-15.96-36.34-3.83-9.2-8.31-22.64-6.99-32.62.08-.6.54-2.58,1.15-2.64l26.82,6.29c-1.09,20.54,29.51,18.1,25.99-2.03-1.61-9.24-13.35-13.06-20.78-7.77-7.28-6.33-15-12.26-22.92-17.78-12.64-8.82-21.52-15.75-37.28-6.95-10.62,5.93-15.61,16.63-17.83,28.17-11.62-17.55-39.32-44.01-60.54-25.2-1.95,1.73-3.87,4.06-5.54,6.08-10.15,12.22-18.44,26.78-25.75,40.82-21.36-3.03-21.89,29.01-.69,26.18,7.6-1.01,12.38-10.07,10-17.19l.4-.95,25.69-15.49c1.21-.46,2.51-.24,3.68.22,5.08,2.03,9.96,17.95,10.85,23.28-14.14-5.99-37.48.46-42.25,16.1-2.41,7.92-.92,14.75.94,22.56,2.15,9.03,5.78,17.92,7.89,27-1.3,1.89-3.44,2.55-5.02,4.6-5.28,6.87-2.72,17.01,5.39,20.18,15.52,6.06,25.62-16.17,10.87-23.7l-.12-.62,6.57-21.07c4.83,3.1,9.9,7.17,13.57,11.61,3.55,4.28,4.24,8.95,6.45,13.89,3.77,8.44,7.95,16.82,13.64,24.13-5.02,1.96-19.54,7.02-20.71,12.7-1.33,6.46,5.53,8.96,10.54,10.06l-13.3,15.76c-2.91,3.42-7.14,1.15-10.8.11-6.89-1.96-13.48-4.93-20.33-7.03-3.55-9.65-11.68-24.68-23.85-16.34l-1.47-8.93c2.05-2.83,4.33-5.04,5.71-8.37,3.19-7.74,1.74-17.82-3.51-24.34-.93-1.16-5.32-4.65-5.48-5.17-.82-2.67.87-9.45,2.6-11.74.51-.67,1.17-1.61,2.14-1.48-.14,7.68,9.4,12.16,15.25,6.77,5.08-4.67,3.78-13.27-2.67-15.73-1.45-.55-3.97-.49-4.83-.98-.44-.25-.92-1.56-1.7-2.17-9.77-7.69-22.5-2.97-28.57,6.77-.78.02-8.72-11.23-9.2-12.61-.38-1.12.98-3.23,1.17-4.61,1.26-9.38-7.64-16.56-16.55-13.17-11.95,4.55-9.35,21.91,2.98,23.68l1.07,14.66c-9.9,1.35-21.78,10.32-22.27,20.94-.08,1.73,1.02,4.66.82,5.68-.12.63-1.33,1.3-1.75,2.06-2.01,3.68-1.45,8.86,1.86,11.56,7.4,6.04,17.74-2.12,13.81-10.91-.83-1.85-2.74-2.43-3.15-4.34,3.93-2.35,8.08-.21,10.87,2.87-1.85,12.82,7.25,26.59,20.59,27.64l1.39,7.44c-21.76,13.2-11.33,44.94,9.43,53.15,3.18,1.26,6.38,1.48,9.26,2.84l10.06,32.07c4.79,10.86,20.17,6.13,18.65-5.58-.69-5.3-3.58-11.07-4.71-16.34,11.32,1.47,23.65,4.79,35.12,3.89,10.93-.86,22.6-10.67,30.24-17.93,1.63,11.66-1.11,25.07-8.24,34.61-4.05,5.43-18.2,17.1-18.41,23.27-.22,6.58,7.44,5.81,11.88,6.52l10.41-.97c-.92,3.55-3.41,6.33-6.07,8.7-1.13.25-.86-2.45-3.83-1.92-2.44.43-2.06,3.34-2.48,3.42-7.45.56-23.61-4.85-28.98,1.46-7.21,8.47-9.31,33.44-8.51,44.26,1.77,23.98,20.54,38.95,44.24,31.32,4.25,5.9,11.6,7.83,17.5,2.83,10.61-8.98-1.97-26.26-14.53-17.43-1.53,1.08-1.69,2.98-3.98,2.04-4.98-2.05-7.85-9.62-6.71-14.67.42-.6,12.59-1.3,14.5-1.48,1.5-.14,3.56-.93,4.94-.94,1.87,0,2.61,1.52,4.7.9,1.97-.58,1.58-2.99,2.09-3.35.53-.38,4.83-1.09,6.11-1.54,25.18-8.8,29.98-28.37,41.46-49.57,2.97-5.49,6.36-10.77,9.53-16.14,6.54,4.15,10.92,10.55,14.96,16.99,8.26,13.13,14.57,27.56,19.1,42.41l.07.64c-5.03.82-2.74,6.9,1.93,4.84,2.52,8.02,5.19,16.06,8.36,23.85,1.41,3.48,3.17,10.63,7.46,10.84,4.5.22,14.3-3.05,18.82-4.66,26.34-9.36,55.02-28.43,50.15-60.47,12.08-4.52,10.15-22.63-2.83-24.16-9.62-1.13-16.53,8.62-13.09,17.45.53,1.37,2.74,3.69,2.78,4.43.05.97-1.43,3.79-2.01,4.77-3.31,5.57-11.47,10.18-17.84,10.3-.34-.24-2.37-5.71-2.4-6.38-.05-1.42,1.67-2.48,1.24-4.08-.69-2.57-3.13-1.59-3.61-1.98-.46-.37-2.93-9.52-3.57-11.2-1.9-5.01-4.02-9.99-6.65-14.65,3.95.77,10.65,1.37,11.52-4,.86-5.36-7.17-15.15-10.56-19.23-4.77-5.74-10.33-10.62-15.38-16.09-.39-12.46-2.87-24.7-4.94-36.94,19.12,3.66,37.89-3.04,54.89-11.21,8.73-4.19,17.09-9.28,25.25-14.45,2.28,8.6,14.17,10.19,19.59,3.62,5.19-6.29,2.18-15.39-5.8-16.93,5.76-3.4,11.98-5.91,17.68-9.43,5.52-3.42,19.27-13.07,20.05-19.67.38-3.21-1.63-7.27-1.4-9.62.11-1.13,2.16-3.28,2.38-5.4.81-7.82-5.85-14.71-13.49-10.38Z"/>
  <text class="st6" transform="translate(103.17 50.76)"><tspan x="0" y="0">DIVERSIÓN</tspan></text>
  <g>
    <text class="st3" transform="translate(314.34 40.82)"><tspan x="0" y="0">AFILIACIÓN</tspan><tspan x="0" y="14.63">&amp; CONEXIÓN</tspan></text>
    <circle class="st7" cx="294.67" cy="37.02" r="8.03"/>
    <line class="st7" x1="288.99" y1="42.7" x2="279.45" y2="52.24"/>
  </g>
  <g>
    <path class="st5" d="M410.08,232.48c-8.07-13.73-28.02-16.14-40.93-7.73-4.34-7.53-12.65-11.29-20.76-6.69-2.26,1.28-4.78,3.92-5.75,6.36-2.08,5.25,0,7.45,2.92,9.38.13-.62.35-1.22.64-1.71.76-1.29,1.8-1.92,3.08-2.48,0,0,0,0,0,0-.26.11-.53.22-.79.33.25-.11.49-.24.73-.37-1.58-.96-2.45-2.06-.67-4.56,3.48-4.91,11.71-3.78,14.93,1.05.96,1.44,1.56,4.33,2.47,5.27,2.19,2.25,4.76-1.08,6.66-2.11,6.97-3.78,13.57-5.04,21.35-2.66,1.48.45,11.48,5.42,9.78,7.4-7.97,1.06-14.21,6.33-19.84,11.62-6.07-8.25-15.2-12.5-25.08-8.42-.33.34-.7.62-1.08.8-.66.31-1.28.68-1.9,1.05-.9.53-1.84.94-2.81,1.35.06.12.12.23.17.36l-2.24,3.41-3.14-4.35c-9.46-7.54-24.29,3.7-17.59,14.21.75,1.17,4.86,4.4,4.75,4.89-7.53,6.83-22.97,20.37-33.57,19.59-7.75-.57-14.64-6.46-20.64-10.85-.22-.87,2.86-2.32,3.65-3.13,4.69-4.81,1.59-9.47-4.13-10.92-5.46-1.38-12.34-.81-17.92-.24,1.53-7.07,1.2-14.35.09-21.44,1.98-2.89,5.04-5.08,6.3-8.72,3.54-10.23-5.81-13.4-13.91-14.86-2.58-13.4-10.82-23.99-15.96-36.34-3.83-9.2-8.31-22.64-6.99-32.62.08-.6.54-2.58,1.15-2.64l26.82,6.29c-1.09,20.54,29.51,18.1,25.99-2.03-1.61-9.24-13.35-13.06-20.78-7.77-7.28-6.33-15-12.26-22.92-17.78-12.64-8.82-21.52-15.75-37.28-6.95-10.62,5.93-15.61,16.63-17.83,28.17-11.62-17.55-39.32-44.01-60.54-25.2-1.95,1.73-3.87,4.06-5.54,6.08-10.15,12.22-18.44,26.78-25.75,40.82-21.36-3.03-21.89,29.01-.69,26.18,7.6-1.01,12.38-10.07,10-17.19l.4-.95,25.69-15.49c1.21-.46,2.51-.24,3.68.22,5.08,2.03,9.96,17.95,10.85,23.28-14.14-5.99-37.48.46-42.25,16.1-2.41,7.92-.92,14.75.94,22.56,2.15,9.03,5.78,17.92,7.89,27-1.3,1.89-3.44,2.55-5.02,4.6-5.28,6.87-2.72,17.01,5.39,20.18,15.52,6.06,25.62-16.17,10.87-23.7l-.12-.62,6.57-21.07c4.83,3.1,9.9,7.17,13.57,11.61,3.55,4.28,4.24,8.95,6.45,13.89,3.77,8.44,7.95,16.82,13.64,24.13-5.02,1.96-19.54,7.02-20.71,12.7-1.33,6.46,5.53,8.96,10.54,10.06l-13.3,15.76c-2.91,3.42-7.14,1.15-10.8.11-6.89-1.96-13.48-4.93-20.33-7.03-3.55-9.65-11.68-24.68-23.85-16.34l-1.47-8.93c2.05-2.83,4.33-5.04,5.71-8.37,3.19-7.74,1.74-17.82-3.51-24.34-.93-1.16-5.32-4.65-5.48-5.17-.82-2.67.87-9.45,2.6-11.74.51-.67,1.17-1.61,2.14-1.48-.14,7.68,9.4,12.16,15.25,6.77,5.08-4.67,3.78-13.27-2.67-15.73-1.45-.55-3.97-.49-4.83-.98-.44-.25-.92-1.56-1.7-2.17-9.77-7.69-22.5-2.97-28.57,6.77-.78.02-8.72-11.23-9.2-12.61-.38-1.12.98-3.23,1.17-4.61,1.26-9.38-7.64-16.56-16.55-13.17-11.95,4.55-9.35,21.91,2.98,23.68l1.07,14.66c-9.9,1.35-21.78,10.32-22.27,20.94-.08,1.73,1.02,4.66.82,5.68-.12.63-1.33,1.3-1.75,2.06-2.01,3.68-1.45,8.86,1.86,11.56,7.4,6.04,17.74-2.12,13.81-10.91-.83-1.85-2.74-2.43-3.15-4.34,3.93-2.35,8.08-.21,10.87,2.87-1.85,12.82,7.25,26.59,20.59,27.64l1.39,7.44c-21.76,13.2-11.33,44.94,9.43,53.15,3.18,1.26,6.38,1.48,9.26,2.84l10.06,32.07c4.79,10.86,20.17,6.13,18.65-5.58-.69-5.3-3.58-11.07-4.71-16.34,11.32,1.47,23.65,4.79,35.12,3.89,10.93-.86,22.6-10.67,30.24-17.93,1.63,11.66-1.11,25.07-8.24,34.61-4.05,5.43-18.2,17.1-18.41,23.27-.22,6.58,7.44,5.81,11.88,6.52l10.41-.97c-.92,3.55-3.41,6.33-6.07,8.7-1.13.25-.86-2.45-3.83-1.92-2.44.43-2.06,3.34-2.48,3.42-7.45.56-23.61-4.85-28.98,1.46-7.21,8.47-9.31,33.44-8.51,44.26,1.77,23.98,20.54,38.95,44.24,31.32,4.25,5.9,11.6,7.83,17.5,2.83,10.61-8.98-1.97-26.26-14.53-17.43-1.53,1.08-1.69,2.98-3.98,2.04-4.98-2.05-7.85-9.62-6.71-14.67.42-.6,12.59-1.3,14.5-1.48,1.5-.14,3.56-.93,4.94-.94,1.87,0,2.61,1.52,4.7.9,1.97-.58,1.58-2.99,2.09-3.35.53-.38,4.83-1.09,6.11-1.54,25.18-8.8,29.98-28.37,41.46-49.57,2.97-5.49,6.36-10.77,9.53-16.14,6.54,4.15,10.92,10.55,14.96,16.99,8.26,13.13,14.57,27.56,19.1,42.41l.07.64c-5.03.82-2.74,6.9,1.93,4.84,2.52,8.02,5.19,16.06,8.36,23.85,1.41,3.48,3.17,10.63,7.46,10.84,4.5.22,14.3-3.05,18.82-4.66,26.34-9.36,55.02-28.43,50.15-60.47,12.08-4.52,10.15-22.63-2.83-24.16-9.62-1.13-16.53,8.62-13.09,17.45.53,1.37,2.74,3.69,2.78,4.43.05.97-1.43,3.79-2.01,4.77-3.31,5.57-11.47,10.18-17.84,10.3-.34-.24-2.37-5.71-2.4-6.38-.05-1.42,1.67-2.48,1.24-4.08-.69-2.57-3.13-1.59-3.61-1.98-.46-.37-2.93-9.52-3.57-11.2-1.9-5.01-4.02-9.99-6.65-14.65,3.95.77,10.65,1.37,11.52-4,.86-5.36-7.17-15.15-10.56-19.23-4.77-5.74-10.33-10.62-15.38-16.09-.39-12.46-2.87-24.7-4.94-36.94,19.12,3.66,37.89-3.04,54.89-11.21,8.73-4.19,17.09-9.28,25.25-14.45,2.28,8.6,14.17,10.19,19.59,3.62,5.19-6.29,2.18-15.39-5.8-16.93,5.76-3.4,11.98-5.91,17.68-9.43,5.52-3.42,19.27-13.07,20.05-19.67.38-3.21-1.63-7.27-1.4-9.62.11-1.13,2.16-3.28,2.38-5.4.81-7.82-5.85-14.71-13.49-10.38ZM278.11,138.54c7.41,7.07-3.48,18.27-10.75,10.99-6.99-6.99,3.51-17.91,10.75-10.99ZM170.22,481.01c8.75-1.79,10.33,10.78,2.67,11.89-8.04,1.16-9.23-10.55-2.67-11.89ZM92.13,179.25c-9.63.19-10.58-14.04-1.3-15.41,10.65-1.57,12.12,15.2,1.3,15.41ZM115.42,260.07c-7.69-1.22-7.89-13.57.09-14.86,11.92-1.94,12.03,16.77-.09,14.86ZM147.59,227.17c-.67.14-.62.1-1-.31-1.94-2.05-3.6-4.36-5.76-6.23-2.89-2.5-14.36-11.35-16.83-5.19-2.16,5.38-3.44,13.07-5.32,18.89-.32,1-.66,2.97-1.58,3.5-2.58-12.85-12.95-32.97-8.75-45.78,3.17-9.65,17.03-14.92,26.41-14.25,4.62.33,10.4,3.35,14.05,3.42.69.01,2.08-.17,2.55-.64,1.86-1.86-1.74-13.02-2.65-15.76-2.92-8.82-8.69-23.77-20.65-18.93l-26.62,16c-.45.64-1.24.01-1.29-.34-.18-1.3,9.88-18.56,11.42-21.01,5.3-8.45,17.06-26.85,26.8-29.36,17.34-4.47,37.37,18.41,45.75,31.3,1.47,2.27,4.5,11,7.92,7.59,1.14-1.14.43-8.59.61-10.77,1.25-15.4,13.18-31.34,30.14-28.7,5.63.88,20.48,12.5,25.69,16.44,4.04,3.05,7.95,6.26,11.95,9.36-.55.55-1.81.19-2.53.11-8.2-1-17.18-4.14-25.38-5.65-4.91-.25-6.21,6.54-6.49,10.37-.93,12.7,4.74,25.51,9.22,37.06-36.52-6.51-74.65,14.06-87.65,48.91ZM153.66,240.24c-.62-1.66-2.22-5.48-2.23-7.01-.01-2.07,3.04-8.3,4.15-10.43,15.72-30.01,49.7-45.73,82.94-38.13,3.17,5.66,6.65,11.5,8.69,17.7.74,2.26,1.88,9.29,2.61,10.46,1.45,2.32,11.86,1.2,13.63,5.25,2.04,4.65-7.19,11.28-10.62,13.34-13.44,8.1-33.11,12.73-47.26,3.87-2.08-1.3-6.42-6.14-8.24-6.08-5.28.18-1.44,8.17-.26,10.7,3.89,8.41,11.23,18.05,20.54,20.62,13.25,3.66,23.13-4.67,24.54-17.77l15.38-7.38c-.33,4.43.44,9.44,0,13.8-2.83,27.9-44.33,39.8-67.2,32.82-18.4-5.61-30.27-24.66-36.65-41.79ZM235.72,244.61c-4.22,19.78-25.8,9.9-31.47-3.39,9.74,5.17,20.81,5.21,31.47,3.39ZM148.06,283.56c-.05-.64-.1-.77.33-1.22.39-.41,3.99-2.35,4.84-2.8,1.86-.98,12.72-5.85,13.99-5.72,13.59,14.48,30.52,17.82,49.72,14.71,17.85-2.89,36.4-11.73,43.59-29.29,6.7-1.13,13.54-1.54,20.22-.11.12,1.27-1.3,1.82-2.17,2.43-4.05,2.87-9.08,4.65-13.5,6.83-1.02.68-1.42,1.79-1.2,2.96.31,1.68,8.5,9.76,10.19,12.61,3.63,6.11,1.12,6.67-5.12,6.09-6.05-.56-11.95-3.8-17.12-4.67-6.25-1.05-4.07,3.85-3.98,7.37.07,2.81.45,11.59-.96,13.49-1.73,2.33-8.07-1.35-10.04-2.49-4.42-2.55-8.04-6.29-12.5-8.78-2.84-.09-5.12,7.25-6.46,9.5-1.56,2.63-5.48,8.39-8.92,7.83-2.83-.46-6.79-5.88-8.2-8.31-1.89-3.27-2.56-9.55-7.36-7.04-3.19,1.67-7.11,6.53-11.11,8.74-8.65,4.78-10.16,1.91-10.51-7.08-.13-3.39.94-7.11.53-10.22-.58-4.31-4.74-1.83-7.54-1.68-5.53.31-11.99-.06-16.72-3.17ZM99.56,293.85c6.64,10.91,10,30.18.34,40.33-.43,0-2.17-4.98-2.15-5.57.04-.86,2.29-3.8,2.66-5.52.91-4.35-1.58-7.83-5.59-9.24v-.71c4.08-2.18,4.34-17.13-1.44-14.53-3.33,1.5.75,6.99-1.92,9.7-3.09,3.13-6.16-5.25-6.66-7.43-2.82-12.28,7.53-18.93,14.77-7.02ZM92.25,220.5c7.27-2.17,7.16,9.67.12,7.43-3.32-1.06-2.99-6.57-.12-7.43ZM35.25,199.34c.19-2.53,2.14-5.42,4.72-5.95,5.86-1.21,10.77,4.07,7.98,9.43-3.32,6.37-13.27,4.14-12.7-3.48ZM27.04,263.77c-4.41,1.34-6.53-5.79-2.58-6.96,5.78-1.72,6.98,5.62,2.58,6.96ZM28.8,247.11l-3.71,3.31c-.84-9.69,7.24-15.79,15.85-17.8,2.32-.54,6.43.69,6.39-3.2l-1.45-17.93,3.41-1.26c1.1,2.83,3.28,5.72,5.13,8.19,1.18,1.57,5.94,7.93,7.34,8.2,3.48.67,4.63-4.89,6.66-7.19,4.37-4.97,14.4-8.59,19.13-2.18-1.73,1.12-3.84,1.01-5.76,1.99-5.3,2.69-7.32,10.66-7.31,16.17-11.56-3.01-25.75,2.17-30.51,13.56-4.73-2.9-9.89-5.11-15.17-1.86ZM64.69,239.9c22.87-2.72,28.56,28.01,7.62,35.71-26.98,9.92-36.52-32.27-7.62-35.71ZM79.8,288.18c-3.94-.99-7.2-1-11.13,0l-.97-5.81,10.65-3.39,1.45,9.2ZM80.53,339.52c-14.28-2.17-25.09-17.47-23.43-31.67.86-7.35,7.39-13.91,14.77-14.77,8.07-.94,6.64.88,7.45,7.69-3.05-1.1-6.73.55-9.67,1.7-2.44.96-6.99,2.3-6.83,5.31.24,4.78,8.92-.23,11.41-1.22,2.24-.9,4.28-.68,6.06-2.89.64,3.31,2.69,6.39,4.84,8.96-3.29,1.37-14.18,5.03-15.27,8.45-.74,2.3.89,4.34,3.18,3.7,1.69-.47,5.61-3.85,8.23-4.88,3.27-1.28,15.94-4.11,13.66,2.52-2.13,6.21-15.12,7.83-16.61,10.14-2.34,3.62,3.02,3.85,2.21,6.95ZM97.49,375.33l-12.37-39.9,8.24-3.67,12.57,41.95c.27,4.8-7.09,6.67-8.44,1.62ZM140.13,460.61c-2.31.33-3.89,1.44-3.1,3.98.91,2.92,9.58.6,12.02.83-1.74,5.76,1.25,13.36,5.81,17.19,3.18,2.67,10.72,3.86,1.47,5.82-29.18,6.18-35.49-22.53-32.88-44.99.54-4.61,3.65-20.71,7.43-23.07,4.96-3.1,17.98,1.69,23.98.49-.56,14.08,4.6,27.74,15.01,37.28l-29.74,2.47ZM176.86,455.75c-.78.14-1.29-.11-1.93-.48-.7-.41-4.79-4.68-5.55-5.58-6.56-7.76-9.64-19.2-9.12-29.24,7.22-2.06,11.56-9.65,13.6-16.42,7.62-2.01,15.23-4.59,21.93-8.82,2.69,7.56,5.93,17.49,11.17,23.68,2.73,3.22,4.83,3.93,8.91,2.46-7.5,17.31-19.21,31.68-39.01,34.4ZM351.8,409.35c10.92-2.27,11.99,12.76,2.67,13.84-8.58.99-10.15-12.29-2.67-13.84ZM317.32,436.36c1.02-.17.57.16.76.66,1.52,3.89,1.88,9.81,6.96,9.5,10.53-.63,21.49-8.41,25.43-18.19l2.35.35c4.1,26.67-18.65,42.78-40.27,51.82-2.97,1.24-20.8,7.72-22.53,6.62-2.94-6.52-5.53-13.23-7.83-20.01-.79-2.35-3.08-7.81-3.3-9.82-.07-.62-.12-.87.39-1.33,1.02-.94,9.8-3.98,11.97-4.99,9-4.19,17.84-9.05,26.07-14.61ZM316.03,430.8c-12.29,8.22-25.63,15.41-39.63,20.09-2.99-12.24-8.8-23.51-14.04-34.87,14.66,11.43,19.52-4,20.75-16.28.18-1.74-.17-3.68.06-5.27.09-.63-.26-.87.72-.72,2,.31,6.4,2.61,8.71,3.4,2.44.84,9.29,2.43,10.69,3.84.75.76,2.26,3.7,2.89,4.86,4.26,7.91,6.54,16.66,9.84,24.96ZM385.81,293.29c5.97,4.29-3.79,14.09-9.1,5.71-1.59-2.51-1.14-7.03-5.04-5.86-20.25,12.9-50.66,31.63-75.59,27.9-1.38-.21-5.26-.89-6.27-1.48-2.37-1.38-1.69-10.03-5.48-10.44-1.13-.12-2.56.68-2.89,1.8-.38,1.26,2.91,12.09,3.44,14.53,2.85,13.13,4.93,26.41,5.66,39.85,6.04,6.57,12.79,12.43,18.29,19.48,2.83,3.63,6.24,7.83,7.27,12.33-1.48,1.42-20.44-4.74-23.49-5.8-2.91-1.02-10.55-4.97-12.96-4.26-2.89.84-1.58,7.22-1.8,9.82-.34,3.97-1.53,14.16-4.57,16.73-.89.76-1.06,1.07-2.4.94-4-.37-16.52-13.88-20.14-17.2-1.98-1.81-11.32-10.42-12.94-10.79-1.9-.43-2.59-.05-3.73,1.39-5.94,7.48-9.98,18.35-16.75,25.86-1.71,1.89-3.62,4-6.06,1.73-2.52-2.34-6.06-10.08-7.37-13.45-1.01-2.59-2.93-10.94-3.96-12.38-.29-.4-1.86-1.15-2.32-1.21-1.63-.2-9.25,4.6-11.58,5.65-10.79,4.86-23.76,7.59-35.52,5.87,5.77-9.83,16.09-16.16,21.39-26.29,4.88-9.33,6.49-21.6,5.71-32.04-1.24-16.62-8.11-4.72-14.03.48-8.68,7.63-17.38,12.96-29.3,12.34-9.7-.5-19.35-3.14-28.94-4.47-1.85-.76-3.11-8.08-3.67-10.2,9.11-8.11,11.77-21.31,8.15-32.77,7.67,2.13,14.94,5.82,22.76,7.5,2.03.44,4.38,1.09,6.44.62,4-.92,17.12-18.52,20.3-22.55l7.16-.59v11.86c0,.3,1.31,4.15,1.58,4.71,5.66,11.9,20.3.45,26.49-4.95,1.82,5.84,8.54,14.48,15.18,14.34,7.37-.16,13.22-9.54,15.33-15.8,6.47,4.93,23.3,18.13,27.62,4.63.2-.63.94-3.52.94-3.9,0-3.21.15-6.48,0-9.68-.01-.26-1.28-1.43.23-1.21,5.39.77,10.77,3.63,16.93,3.89,12.13.52,12.75-8.18,6.96-16.64-1.37-2-5.5-5.72-6.21-7.36-.41-.95,3.18-1.9,3.84-1.45,8.52,6.6,17.31,14.19,28.86,13.34,9.17-.68,20.51-8.87,27.57-14.56,2.17-1.75,9.49-7.79,10.63-9.72,2.98-5.02-8.06-4.97-8.21-10.84-.16-6.37,11.23-8.51,11.88,0,.14,1.88-.89,4.07-.04,5.35.64.96,10.32,6.24,12.63,8.2,8.64,7.3,14.36,17.64,16.9,28.61,1.16,1.38,7.61.55,10.19,2.4ZM414.55,246.46c-6.23,5.11-14.77,8.95-21.31,13.78-1.64,2.45.23,5.13,3.13,4.39l19.72-12.76c.93,2.17,1.12,4.71.16,6.94-.73,1.7-5.51,5.95-7.18,7.35-8.77,7.31-19.71,12.43-30.02,17.18-4.18-13.6-13.98-24.55-26.09-31.7,2.62-6.69,8.72-11.36,16.17-10.43,3.23.4,7.95,4.44,10.16,6.78,1.45,1.54,2.69,5.02,5.1,4.65,1.67-.26,5.64-5.51,7.5-7.06,3-2.5,8.73-5.98,12.64-6.27,1.88-.14,3.48.72,5.15.36,2.03-.44,5.58-5.05,7.56-1.54,1.98,3.5-.09,6.2-2.69,8.33Z"/>
    <path class="st5" d="M211.88,206.95c.41.42,2.57,10.31,2.51,11.25-.15,2.3-2.72,3.6-4.62,2.23-1.57-1.12-6.08-18.3,2.11-13.48Z"/>
    <path class="st5" d="M225.9,203.55c2.13-.63,3.25.26,3.88,2.21.78,2.41,2.91,10.76-.22,11.65-1.66.36-3.14-.22-3.78-1.84-.45-1.15-1.82-8.32-1.73-9.46.09-1.04.79-2.25,1.84-2.56Z"/>
    <path class="st5" d="M73.85,261.16c3.45-1.08,4.44,2.12,2.79,4.73-2.43,3.85-8.63,6.17-13.05,5.83-3.32-.26-8.87-2.08-5.58-6.05,2.8-1.38,7.17,2.87,12.56-1,1.23-.88,2.4-3.24,3.27-3.51Z"/>
    <path class="st5" d="M67.57,246.62c2.94-.45,5.45,7.3,4.45,8.81-3.77,5.7-9.72-8-4.45-8.81Z"/>
    <path class="st5" d="M57.4,250.97c2.76-.74,6.18,5.74,5.22,7.67-2.66,5.39-10.39-6.3-5.22-7.67Z"/>
  </g>
  <g>
    <g>
      <text class="st2" transform="translate(125.3 593.62)"><tspan x="0" y="0">BUFÓN</tspan></text>
      <text class="st4" transform="translate(31.12 575.51)"><tspan x="0" y="0">EL</tspan></text>
    </g>
    <rect class="st5" x="63" y="560.79" width="6.03" height="59.62" transform="translate(656.62 524.58) rotate(90)"/>
  </g>
  <g>
    <path class="st5" d="M56.34,28.47c4.61-3.57,10.42-6.65,16.18-3.7.97.5,3.62,2.89,3.9,2.97.67.17,1.45-.31,2.27-.28,5.67.25,8.57,7.85,3.99,11.79-5.57,4.78-13.08-.85-10.61-7.7-6.96-.33-2.74,9.81-1.86,13.66.35,1.53.29,3.27.84,4.81,3.44-1.08,7.57,2.06,7.87,5.64.32,3.87-1.81,7.17-5.24,8.79-.8.38-2.36.52-2.81.96-.31.3-1.54,3.59-2.04,4.46-9.26,16.14-26.73,14.46-35.02-1.6-.39-.76-.89-2.79-1.24-3.2-.19-.21-3.74-1-5.12-2.06-6.23-4.78-3.49-14.22,4.94-13.35.31-2.17.61-4.37,1.21-6.48,1.71-5.95,6.74-11.95-4.28-11.63,1.02,2.19.92,4.2-.4,6.27-2.49,3.92-8.26,4.29-11.04.55-3.29-4.43-.31-10.45,5.16-10.91.78-.07,1.47.48,2.17.17.62-.27,1.94-2.57,2.57-3.27,9.15-10.02,22.59-7.64,28.58,4.11ZM39.57,40.79h10.43l3.19-8.13c-2.42-9.92-15.13-14.03-21.83-5.56,8.24-.18,11.51,6.54,8.21,13.69ZM22.37,31.97c-2.13.49-2.19,3.93-.27,4.56,4.61,1.52,4.97-5.64.27-4.56ZM77.44,31.97c-2.79.64-2.01,5.79,1.91,4.64,2.05-.6,2.1-5.56-1.91-4.64ZM65.91,45.58l-28.36.03c-2.35,10.37-3.01,20.71,5.96,28.01,10.62,8.64,22.87-2.03,23.76-13.51.38-4.92-.75-9.7-1.37-14.53Z"/>
    <path class="st5" d="M43.22,61.71c1.69-.58,8.54,1.74,11.89,1.28,1.52-.21,4.5-2.2,5.5.04.64,1.42-1.06,4.36-1.94,5.57-3.65,5.01-10.06,5.44-13.77.21-.82-1.16-3.83-6.37-1.68-7.11ZM54.62,67.13c-2.08.04-4.19.09-6.15-.69.62,2.11,2.77,2.12,4.53,1.63.37-.1,1.57-.47,1.62-.94Z"/>
    <path class="st5" d="M57.61,50.1c2.98-.62,7.63,2.51,6.09,5.06-1.38,2.28-3.97-1.25-4.8-1.26-1.59,0-2.19,4.33-4.47,2.65s.9-5.97,3.18-6.45Z"/>
    <path class="st5" d="M43.24,50.45c3.37-.7,8.33,2.76,6.07,5.38-1.76,2.04-2.7-1.17-4.46-1.35-1.67-.17-3.1,2.19-4.43.7-1.61-1.79,1.06-4.37,2.83-4.73Z"/>
  </g>
</svg>