<?xml version="1.0" encoding="UTF-8"?>
<svg id="Capa_1" xmlns="http://www.w3.org/2000/svg" version="1.1" viewBox="0 0 442.43 630.3">
  <!-- Generator: Adobe Illustrator 30.0.0, SVG Export Plug-In . SVG Version: 2.1.1 Build 123)  -->
  <defs>
    <style>
      .st0 {
        fill: #fff;
      }

      .st1 {
        font-size: 16.67px;
        letter-spacing: .04em;
      }

      .st1, .st2 {
        font-family: Gabarito-Regular, Gabarito;
      }

      .st1, .st2, .st3, .st4, .st5 {
        fill: #1d0981;
      }

      .st6 {
        fill: none;
        stroke: #1d0981;
        stroke-miterlimit: 10;
        stroke-width: 5px;
      }

      .st2 {
        font-size: 33.96px;
        letter-spacing: .04em;
      }

      .st7 {
        fill: #e1384f;
      }

      .st4 {
        font-size: 46.85px;
        letter-spacing: .04em;
      }

      .st4, .st5 {
        font-family: Gabarito-Bold, Gabarito;
        font-weight: 700;
      }

      .st5 {
        font-size: 18.39px;
        letter-spacing: .04em;
      }
    </style>
  </defs>
  <rect class="st7" y="1.41" width="442.43" height="630.3" rx="30" ry="30"/>
  <g>
    <text class="st1" transform="translate(286.34 40.82)"><tspan x="0" y="0">INDEPENDENCIA</tspan><tspan x="0" y="14.63">&amp; REALIZACIÓN</tspan></text>
    <circle class="st6" cx="266.67" cy="37.02" r="8.03"/>
    <line class="st6" x1="260.99" y1="42.7" x2="251.45" y2="52.24"/>
  </g>
  <g>
    <text class="st4" transform="translate(90.88 596.15)"><tspan x="0" y="0">EXPLORADOR</tspan></text>
    <text class="st2" transform="translate(38.98 585.95)"><tspan x="0" y="0">EL</tspan></text>
    <rect class="st3" x="56.94" y="577.66" width="3.4" height="33.57" transform="translate(653.09 535.82) rotate(90)"/>
  </g>
  <path class="st3" d="M55.9,33.44v1.43s22.12,33.83,22.12,33.83c.52,1.24-.29,2.75-1.76,2.56l-53.99-.13c-1.23-.37-1.24-1.68-.89-2.76l14.68-22.61c2.77-2.65,4.66,2.8,5.9,4.57l.54.16,9.73-15.35c.29-2.14-.54-10.81.33-11.88,1.31-1.61,4.17,0,3.6,2.03,2.88-.41,5.72.13,8.67,0,.21,1.73-1.46,2.82-2.62,3.81.67.22,3.87,4.33,2.23,4.33h-8.53ZM61.68,49.98l-7.61-11.03c-.74,2.22-3.5,4.65-4.27,6.65-.19.48-.16.4.04.84.18.4,3.58,4.52,3.87,4.57l3.15-2.56,4.82,1.52ZM31.48,67.84l8.56-13.65c.27-.95-2.09-3.08-2.26-4.21l-11.81,17.86h5.51Z"/>
  <g>
    <path class="st0" d="M431.98,372.54c.11.17.23.34.36.51-.12-.18-.24-.35-.36-.51Z"/>
    <path class="st0" d="M431.46,371.8c.11.16.23.33.35.5-.12-.18-.24-.34-.35-.5Z"/>
    <path class="st0" d="M431,371.14c.1.14.2.29.32.45-.11-.16-.22-.31-.32-.45Z"/>
    <path class="st0" d="M434.55,376.28c.11.16.22.32.33.48-.11-.16-.22-.33-.33-.48Z"/>
    <path class="st0" d="M430.62,370.6c.09.12.17.24.27.38-.1-.14-.19-.26-.27-.38Z"/>
    <path class="st0" d="M433.84,375.25c.12.18.24.36.37.54-.12-.18-.25-.36-.37-.54Z"/>
    <path class="st0" d="M432.56,373.39c.12.17.24.35.37.53-.12-.18-.25-.36-.37-.53Z"/>
    <path class="st0" d="M430.25,370.07c.08.11.18.25.29.4-.11-.15-.2-.29-.29-.4Z"/>
    <path class="st0" d="M435.29,377.38c.07.11.15.22.22.33-.07-.11-.15-.22-.22-.33Z"/>
    <path class="st0" d="M433.17,374.28c.12.18.25.36.37.54-.13-.19-.25-.37-.37-.54Z"/>
    <path class="st0" d="M450.49,407.26c-.13-1.44-.64-2.9-.58-4.34.05-1.08.14-2.3-.45-3.24.21.45.34.8.35.99.21,3.85-3.74,5.12-6.84,2.2-5.37-5.07-13.95-21.56-19.11-28.69-3.48-4.81-7.12-9.56-11.24-13.85-1.17-.52-8.99,7.72-13.26,7.27-5.5-.59-19.93-30.52-25.82-34.9l-35.91,42.27,4.5,37.31,102.75.08c2.67-.45,4,1.61,4.13,3.7.18-.41.39-.81.54-1.24.25-.72.33-1.5.52-2.24.43-1.71.57-3.56.41-5.31Z"/>
    <path class="st0" d="M304.05,311.35c-.48-7.21-6.04-11.98-9.17-18.39-1.13-2.32-4.28-7.47-.09-8.72,4.93-1.47,7.34,7.88,9.9,11.05.39.49.91,2.07,1.7,1.35,1.7-1.19,4.31-10.54,4.54-12.92.42-4.4.39-12.61-5.64-12.55-8.8.09-19.87,10.31-30.02,13.31-23.42,6.93-33.81-.74-50.83-15.55.17,15.44.58,31.35-5.21,45.93,24.99,17.41,59.92,11.13,84.81-3.51Z"/>
    <path class="st0" d="M212.53,267.28c-2.04,15.76-3.87,33.22-3.27,49.09.03.92-.57,2.82.75,2.64,6.55-18.3,11-40.27,4.55-59.18l-2.03,7.44Z"/>
    <path class="st0" d="M90.12,244.64c10.37-2.32,21.19-2.11,31.11-6.08l-7.62-32.57-32.59,1.49c11.54,8.11,13.59,24.64,9.11,37.17Z"/>
    <path class="st0" d="M81.39,247.68c7.27-13.64,3.61-40.94-17.29-36.26-3.35.75-9.06,6.82-10.54,9.95-3.46,7.29-3.19,20.64,2.02,27.09,2.22,2.75,7.93,6.17,11.44,5.98,1.9-.1,11.22-6.39,14.37-6.77ZM59.96,245.96c-4.67-4.42-1.93-19.68,2.43-24.11,3.85-3.9,13.48-5.39,11.43,2.32-1.04,2.01-5.95.84-7.94,7.23-1.84,5.91.46,7.28.51,11.49.04,3.22-3.88,5.48-6.43,3.07Z"/>
    <path class="st0" d="M322.97,272.08c-1.41-.82-5.45-1.63-5.93.33l1.48,7.16c3.93.32,5.12-4.2,4.44-7.48Z"/>
    <path class="st0" d="M308.11,263.8c3.17.6,3.89,3.41,7.23.43l-5.54-45.37c-2.5-6.5-15.51-4.8-15.5,2.55l6.81,42.18c2.32.19,4.68-.22,7,.21Z"/>
    <path class="st0" d="M313.02,303.26c-3.23,1.08-3.76,4.89-.54,6.25,3.6,1.52,13.17-.66,15.69-3.61,1.99-2.34.71-5.05-2.38-5.13-1.2-.03-11.35,2.02-12.76,2.49Z"/>
    <path class="st0" d="M327.67,289.03c1.08-6.3-5.94-1.33-8.98-.96l-1.68,6.66c2.65-.66,10.19-2.97,10.66-5.7Z"/>
    <path class="st0" d="M124.62,250.75c20.78,19.36,9.05,52.94-11.5,67.37-1.86,1.31-9.39,5.01-9.72,5.46-.57.77-1.53,6.28-1.14,6.82,28.83-10.12,59.13-48.13,33.4-76.28-3.95-4.32-9.33-9.02-15.57-7.95-2.39.31,3.91,4.01,4.53,4.58Z"/>
    <path class="st0" d="M250.25,409.68c-9.6-26.35-28.06-46.13-48.42-64.64.48-25.78-1.24-53.01,3.24-78.4,1.35-7.67,3.25-15.37,5.71-22.75h-12.52c-3.04,0-13.5-5.19-16.25-7.27-2.35-1.79-13.74-11.81-7.12-13.82,4.47-1.36,5.23,2.59,8.22,5.14,10.76,9.16,24.98,11.43,37.47,4.13,4.1-2.39,14.54-11.44,10.74-16.69-1.86-2.57-9.98-2.82-12.84-6.88-4.16-5.89-6.26-20.28-10.03-27.21,1.09-7.56,5.15-14.7,7.65-21.98,3.89-11.31,8.64-24.04,6.81-36.06-8.7,6.23-15.5,14.74-21.86,23.28-2.9,3.91-10.15,18.17-14.91,17.71-1.84-.34-2.68-1.48-2.66-3.33.06-4.81,5.17-18.05,6.58-23.85,1.31-5.38,2.97-11.34,2.88-16.85-14.94,12.28-26.23,28.78-35.66,45.54-1.49,1.46-7.51,1.17-7.73-1.13,4.53-14.88,9.2-30.21,8.85-45.92-8.49,7.7-15.71,18.37-21.37,28.33-11.8,20.74-18.94,40.91-14.82,65.17.74,4.35,5.41,24.07,7,27.15.63,1.21,6.62,4.62,8.31,6.11,37.17,32.75.28,82.61-37.16,93.32-4.53,14.52-6.92,32.58-15.24,45.46-3.69,5.72-6.32,7.18-12.62,9.39-13.62,4.75-28.94,6.71-42.71,11.17-5.98,23.7-5.18,48.27-2.56,72.38l1.79,5.78c12.23-9.37,18.08-24.48,25.42-37.57,18.96-2.41,40.14-3.27,58.08-10.21,26.29-10.17,39.51-35.87,50.85-59.94l3.72-1.56c4.76,1.46,2.44,6.53.51,9.65l.24,1c9.56,7.29,19.26,16.45,25.79,26.62,15.23,23.72,17.27,53.1,20.56,80.38,27.87-6.07,55.54-13.51,82.33-23.15-11.42-5.84-24.5-6.23-36.86-8.68-1.53-17.17-3.5-33.5-9.42-49.76ZM197.29,192.8c1.6-.69,4.4-.77,5.7.46,2.63,2.47,4.91,19.5-1.57,19.33-6.68-.18-7.25-18.44-4.13-19.78ZM181.71,193.93c8.06-2.44,11.49,22.72,2.29,20.25-4.47-1.2-7.35-18.72-2.29-20.25Z"/>
    <path class="st0" d="M335.22,417.29c-3.58-33.55-9.25-66.92-12.14-100.55-3.95.47-7.44,1.47-11.37,0,4.04,35.39,10.09,70.66,15.06,105.96,1.83,12.97,2.4,26.38,4.77,39.25.62,3.36.85,7.5,4.72,8.77,1.31-.91,3.13-2.71,3.41-4.29.2-1.15-.51-7.75-.65-9.68-.9-12.84-2.43-26.6-3.8-39.46Z"/>
    <path class="st0" d="M299.94,358.49l-42.52,47.81,1.17,6.05h59.19l-6.11-39.8c-2.79-5.54-7.42-9.77-11.72-14.06Z"/>
    <path class="st0" d="M85.96,363.04l17.07-63.75c-11.2,2.86-30.63,14.91-31.16,27.68-.36,8.52,4.61,12.42-1.89,21.59-2.41,3.4-6.55,3.68-3.36,8.01,3.74,5.08,12.26,5.66,17.9,7.18l1.45-.71Z"/>
    <path class="st0" d="M64.27,326.98c.47-16.49,24.19-34.22,39.2-35.98,16.02-1.88,1.81,15.14,2.59,22.7.55.63,6.42-3.91,7.18-4.57,10.3-8.96,18.31-26.55,14.45-40.21-2.18-7.73-12.61-20.09-21.24-19.72-28.75,1.23-53.51,22.05-67.03,46.07-2.41,4.27-4.08,9.35-6.35,13.37-2.44,4.31-6.05,7.77-8.11,12.38-2.28,5.11-5.63,15.85-.87,20,.07-3.09,1.11-7.39,4.9-6.85,6.3.9-1.65,15.06,4.75,16.61,4.88,1.18,2.75-7.57,7.48-8.27,7.78-1.14,1.69,9.39,2.71,12.43,2.54,3.25,6.71-.03,8.58-2.59,2.85-3.9,3.16-13.07,9.35-10.4l.95,4.38c6.21-4.58,1.28-13.18,1.46-19.35Z"/>
    <path class="st3" d="M430.53,370.47s.06.09.09.13c-.03-.04-.06-.09-.09-.13Z"/>
    <path class="st3" d="M433.55,374.82c.1.14.2.29.3.43-.1-.15-.2-.29-.3-.43Z"/>
    <path class="st3" d="M434.88,376.77c.14.2.27.4.41.61-.14-.21-.28-.41-.41-.61Z"/>
    <path class="st3" d="M434.21,375.79c.11.16.22.32.34.49-.11-.17-.22-.33-.34-.49Z"/>
    <path class="st3" d="M430.89,370.98s.07.1.11.15c-.04-.05-.07-.11-.11-.15Z"/>
    <path class="st3" d="M449.47,399.68c-1.63-3.51-8.76-14.31-13.96-21.97,5.19,7.66,12.32,18.46,13.96,21.97h0Z"/>
    <path class="st3" d="M431.32,371.59c.05.07.09.14.14.2-.05-.07-.1-.14-.14-.2Z"/>
    <path class="st3" d="M431.81,372.3c.05.08.11.16.17.24-.06-.08-.11-.16-.17-.24Z"/>
    <path class="st3" d="M432.93,373.92c.08.12.16.24.24.36-.08-.12-.16-.24-.24-.36Z"/>
    <path class="st3" d="M432.33,373.05c.08.11.15.22.23.34-.08-.11-.16-.23-.23-.34Z"/>
    <path class="st3" d="M445.61,412.29c-.23,0-.47.02-.72.06l-102.76-.08-4.49-37.32,35.9-42.26c5.89,4.38,20.32,34.31,25.82,34.9,4.28.46,12.1-7.78,13.26-7.27,4.12,4.29,7.77,9.04,11.25,13.85,5.16,7.13,13.74,23.62,19.11,28.69,3.09,2.92,7.04,1.66,6.84-2.2-.01-.18-.14-.53-.35-.98h0c-.31-.67-.81-1.58-1.45-2.68-.22-.37-.45-.76-.69-1.16-.37-.61-.77-1.26-1.19-1.95-1.28-2.05-2.79-4.39-4.36-6.8-2.1-3.21-4.32-6.52-6.27-9.39-.07-.11-.15-.22-.22-.32-.14-.21-.28-.41-.41-.61-.11-.16-.23-.33-.33-.49-.12-.16-.23-.33-.34-.49-.12-.18-.25-.36-.37-.54-.1-.14-.2-.29-.29-.43-.13-.18-.25-.37-.38-.54l-.24-.36c-.13-.18-.25-.36-.37-.53-.07-.11-.15-.23-.23-.34-.12-.17-.24-.34-.35-.51-.06-.08-.12-.16-.17-.24-.12-.18-.24-.34-.35-.51-.05-.06-.1-.13-.14-.2-.11-.16-.22-.31-.32-.45-.03-.05-.07-.11-.11-.16-.09-.14-.18-.26-.27-.38-.03-.04-.06-.09-.09-.13-.11-.15-.2-.29-.29-.4-2.65-3.69-12.33-17.37-15.92-18.27-4.85-1.21-12.35,7.81-13.85,7.1-6.26-8.09-10.67-17.56-16.82-25.71-2.93-3.88-7.27-11.26-12.7-7.66l-34.96,39.77-5.7-51.6c4.86-2.88,7.63-7.8,5.94-13.53-.48-1.62-3.03-4.55-3.04-5.05,0-1.17,2.51-3.76,1.97-8.28-.6-5.02-4.09-6.02-4.83-8-.29-.77.55-4.67.36-6.51-.48-4.54-3.52-7.17-7.63-8.48l-5.49-45.18c-3.25-8.7-9.43-12.58-18.81-10.86-9.41,1.73-11.84,8.81-11.33,17.48.76,12.92,5.16,27.27,6.56,40.28-9.24,8.51-25.4,15.24-38.06,13.98-13.32-1.34-27.83-19.37-39.47-25.8-.76-1.23,1.38-10.97,2.07-11.96.34-.5,8.38-4.35,10.39-5.93,8.68-6.83,16.86-20.22,4.87-28.27-2.27-1.52-8.33-2.94-9.3-4.36l-8.4-22.76c4.27-13.19,11.09-25.82,13.43-39.62.98-5.79,3.85-26.69-6.04-25.82-6.84.6-21.01,17.29-25.6,22.63.88-5.94,8.53-30.41-3.66-26.82-5.16,1.52-16.41,12.64-20.26,16.94l-10.22,12.91c.81-5.72,5.53-29.66-1.3-31.73-7.26-.77-14.54,8.98-18.76,14.34-11.49,14.6-28.1,45.68-30.03,64.06-.37,3.48.26,7.46,0,11-27.51.93-72.72-2.28-69.84,37.59.75,10.4,5.28,20.01,15.2,24.25-10.55,8.48-19.18,19.3-25.93,30.99-4.31,7.46-8.77,15.24-12.9,22.76-5.22,9.51-10.42,25.79.19,33.47,1,.72,2.96.7,3.56,1.37.42.48,1.06,3.54,2.12,5.08,3.62,5.21,6.96,3.23,10.94,5,2.4,1.07,3.11,4.44,7.97,4.94,6.68.68,8.71-2.88,14.02-5.32,4.18,9.46,15.42,10.9,24.3,13.26-2.93,4.38-3.98,10.3-8.91,13.09-11.29,6.41-34.52,7.88-47.41,12.53-5,1.81-5.58,9.97-6.43,14.82-3.5,20.05-3.86,50.19-.03,70.16,2.34,12.16,9.6,8.95,16.9,2.87,10.19-8.5,14.48-21.79,21.37-32.51,26.49-3.54,52.73-4.89,74.86-21.52,13.67-10.27,22.79-25.08,30.48-40.09,27.96,18.97,35.93,48.37,40.5,80.16.69,4.84,1.49,24.88,3.9,27.2,2.26,2.18,6.36.55,9.1.03,21.91-4.18,54.09-12.78,74.75-20.87,12.55-4.91,20.05-11.24,3.04-18.24-8.84-3.63-19.74-5.53-29.23-6.05.32-11.35-2.71-22.32-4.55-33.39h57.67c.09,1.62-.19,3.31.01,4.93,1.47,12.35,2.75,32.77,6.1,43.97,2.26,7.58,9.01,12.24,16.28,7.26,6.12-4.2,5.26-11.97,4.92-18.59-.65-12.48-3.33-25.05-3.79-37.57h103.58c.24,0,.46-.03.66-.09.08-.03.15-.07.22-.1.12-.05.24-.09.35-.16.09-.06.17-.14.25-.21.07-.06.15-.11.22-.18.09-.11.17-.22.25-.34.04-.06.08-.11.12-.16.09-.15.16-.32.23-.48.02-.04.03-.07.05-.11.07-.19.13-.4.18-.61v-.03c.1-.46.13-.94.1-1.42-.12-1.89-1.22-3.76-3.41-3.76ZM328.16,305.9c-2.51,2.95-12.09,5.13-15.68,3.61-3.22-1.36-2.69-5.17.54-6.25,1.41-.47,11.56-2.52,12.76-2.49,3.09.08,4.37,2.78,2.38,5.13ZM322.97,272.07c.68,3.28-.5,7.81-4.44,7.49l-1.48-7.16c.48-1.96,4.51-1.15,5.92-.33ZM318.69,288.07c3.04-.37,10.06-5.34,8.98.96-.47,2.73-8,5.04-10.66,5.7l1.68-6.66ZM309.8,218.85l5.54,45.37c-3.34,2.99-4.06.17-7.23-.42-2.31-.44-4.68-.03-7-.22l-6.81-42.18c-.01-7.35,13-9.05,15.5-2.55ZM224.44,268.93c17.02,14.81,27.41,22.48,50.83,15.56,10.15-3.01,21.23-13.23,30.03-13.31,6.02-.06,6.05,8.14,5.63,12.54-.22,2.38-2.84,11.73-4.54,12.92-.79.73-1.31-.86-1.7-1.35-2.57-3.17-4.97-12.52-9.9-11.05-4.19,1.25-1.05,6.4.09,8.72,3.12,6.41,8.68,11.18,9.17,18.39-24.89,14.64-59.82,20.92-84.81,3.51,5.78-14.57,5.37-30.49,5.2-45.93ZM309.42,356.96c-4.17-3.41-7.7-8.68-13.64-4.92l-41.37,47.4c-10-21.16-24.65-38.19-41.35-54.26-1.44-1.38-3.33-1.52-3.79-3.8-1.24-6.14,6-12.35,6.83-18.57,27.15,15.24,61.59,12.39,88-3.03l5.32,37.18ZM210.01,319.01c-1.32.18-.72-1.72-.75-2.64-.6-15.87,1.23-33.33,3.27-49.09l2.03-7.45c6.45,18.91,2,40.88-4.55,59.18ZM113.61,205.99l7.62,32.57c-9.92,3.97-20.74,3.76-31.11,6.08,4.49-12.52,2.44-29.05-9.1-37.16l32.59-1.49ZM135.67,254.12c25.73,28.15-4.57,66.16-33.4,76.28-.39-.54.57-6.05,1.14-6.82.33-.45,7.86-4.16,9.72-5.46,20.54-14.43,32.27-48.02,11.49-67.37-.61-.57-6.91-4.28-4.52-4.59,6.24-1.07,11.62,3.64,15.57,7.96ZM55.58,248.46c-5.21-6.45-5.48-19.8-2.02-27.09,1.49-3.13,7.19-9.2,10.54-9.95,20.9-4.68,24.56,22.62,17.29,36.26-3.16.38-12.48,6.66-14.38,6.77-3.51.18-9.21-3.24-11.43-5.99ZM62.81,346.33l-.95-4.37c-6.19-2.67-6.51,6.49-9.35,10.39-1.87,2.56-6.04,5.84-8.58,2.6-1.02-3.05,5.07-13.58-2.71-12.44-4.74.7-2.6,9.45-7.48,8.27-6.39-1.54,1.55-15.7-4.75-16.6-3.78-.55-4.82,3.75-4.89,6.84-4.76-4.15-1.41-14.89.87-20,2.06-4.61,5.67-8.07,8.11-12.38,2.27-4.02,3.95-9.1,6.35-13.37,13.52-24.02,38.28-44.84,67.03-46.07,8.62-.37,19.05,11.99,21.24,19.72,3.86,13.66-4.15,31.25-14.46,40.21-.76.66-6.63,5.2-7.18,4.57-.78-7.56,13.43-24.58-2.59-22.7-15.01,1.76-38.73,19.49-39.2,35.98-.17,6.18,4.75,14.78-1.46,19.35ZM66.61,356.57c-3.19-4.33.95-4.61,3.35-8.01,6.5-9.16,1.54-13.07,1.9-21.58.53-12.78,19.96-24.82,31.16-27.69l-17.07,63.75-1.45.71c-5.64-1.52-14.15-2.1-17.89-7.18ZM296.53,468.13c-26.79,9.64-54.47,17.08-82.33,23.15-3.29-27.28-5.34-56.66-20.56-80.38-6.53-10.18-16.23-19.33-25.79-26.62l-.24-1c1.92-3.12,4.24-8.19-.51-9.65l-3.73,1.57c-11.33,24.06-24.55,49.76-50.85,59.93-17.93,6.94-39.12,7.81-58.08,10.22-7.33,13.08-13.19,28.2-25.42,37.56l-1.79-5.77c-2.62-24.11-3.42-48.68,2.56-72.38,13.78-4.46,29.09-6.41,42.72-11.16,6.3-2.2,8.92-3.67,12.62-9.39,8.32-12.89,10.7-30.95,15.24-45.46,37.44-10.7,74.33-60.57,37.16-93.32-1.7-1.49-7.68-4.9-8.31-6.11-1.6-3.07-6.27-22.79-7-27.14-4.12-24.26,3.02-44.43,14.82-65.17,5.66-9.95,12.88-20.63,21.37-28.33.34,15.72-4.33,31.05-8.86,45.93.23,2.3,6.25,2.59,7.74,1.13,9.43-16.75,20.71-33.25,35.66-45.53.08,5.5-1.57,11.46-2.88,16.84-1.41,5.8-6.53,19.04-6.59,23.85-.02,1.85.83,2.99,2.66,3.33,4.76.46,12.01-13.8,14.91-17.71,6.35-8.54,13.16-17.05,21.86-23.28,1.83,12.01-2.91,24.75-6.81,36.06-2.51,7.28-6.56,14.42-7.65,21.98,3.76,6.93,5.86,21.33,10.02,27.21,2.87,4.06,10.99,4.31,12.85,6.88,3.79,5.25-6.64,14.3-10.74,16.7-12.5,7.29-26.72,5.02-37.48-4.14-2.98-2.54-3.74-6.5-8.21-5.13-6.62,2.01,4.76,12.03,7.12,13.82,2.75,2.08,13.2,7.27,16.24,7.27h12.53c-2.47,7.37-4.36,15.08-5.71,22.75-4.48,25.39-2.76,52.62-3.25,78.4,20.37,18.51,38.83,38.29,48.43,64.64,5.92,16.26,7.9,32.6,9.42,49.77,12.36,2.44,25.44,2.83,36.86,8.68ZM258.58,412.35l-1.17-6.05,42.53-47.81c4.3,4.29,8.93,8.53,11.72,14.06l6.11,39.8h-59.19ZM339.66,466.43c-.27,1.58-2.1,3.38-3.41,4.29-3.86-1.27-4.1-5.41-4.72-8.77-2.37-12.87-2.94-26.28-4.76-39.25-4.97-35.3-11.02-70.57-15.07-105.96,3.94,1.46,7.42.47,11.38,0,2.89,33.63,8.56,67,12.14,100.55,1.37,12.86,2.9,26.62,3.79,39.46.14,1.92.85,8.53.65,9.68Z"/>
    <path class="st7" d="M309.42,356.96c-4.17-3.41-7.7-8.68-13.64-4.92l-41.37,47.4c-10-21.16-24.65-38.19-41.35-54.26-1.44-1.38-3.33-1.52-3.79-3.8-1.24-6.14,6-12.35,6.83-18.57,27.15,15.24,61.59,12.39,88-3.03l5.32,37.18Z"/>
    <path class="st3" d="M184.01,214.19c9.19,2.47,5.77-22.7-2.29-20.25-5.05,1.53-2.18,19.05,2.29,20.25Z"/>
    <path class="st3" d="M201.42,212.58c6.48.17,4.2-16.86,1.57-19.33-1.31-1.23-4.1-1.15-5.7-.46-3.12,1.34-2.55,19.61,4.13,19.78Z"/>
    <path class="st3" d="M65.88,231.41c1.99-6.4,6.9-5.23,7.94-7.23,2.05-7.71-7.57-6.22-11.43-2.32-4.36,4.42-7.1,19.69-2.43,24.11,2.55,2.41,6.47.15,6.43-3.07-.05-4.21-2.35-5.58-.51-11.49Z"/>
  </g>
  <text class="st5" transform="translate(103.17 50.76)"><tspan x="0" y="0">LIBERTAD</tspan></text>
</svg>