<?xml version="1.0" encoding="UTF-8"?>
<svg id="Capa_1" xmlns="http://www.w3.org/2000/svg" version="1.1" viewBox="0 0 442.43 630.3">
  <!-- Generator: Adobe Illustrator 30.0.0, SVG Export Plug-In . SVG Version: 2.1.1 Build 123)  -->
  <defs>
    <style>
      .st0 {
        fill: #41af59;
      }

      .st1 {
        fill: #fff;
      }

      .st2 {
        font-size: 46.3px;
        letter-spacing: .04em;
      }

      .st2, .st3 {
        font-family: Gabarito-Regular, Gabarito;
      }

      .st2, .st3, .st4, .st5, .st6 {
        fill: #1d0981;
      }

      .st3 {
        font-size: 16.67px;
        letter-spacing: .04em;
      }

      .st7 {
        fill: none;
        stroke: #1d0981;
        stroke-miterlimit: 10;
        stroke-width: 5px;
      }

      .st4 {
        font-size: 63.87px;
        letter-spacing: .04em;
      }

      .st4, .st6 {
        font-family: Gabarito-Bold, Gabarito;
        font-weight: 700;
      }

      .st6 {
        font-size: 18.39px;
        letter-spacing: .04em;
      }
    </style>
  </defs>
  <rect class="st0" y="0" width="442.43" height="630.3" rx="30" ry="30"/>
  <text class="st6" transform="translate(103.17 50.76)"><tspan x="0" y="0">IMAGINACIÓN</tspan></text>
  <g>
    <text class="st3" transform="translate(314.34 40.82)"><tspan x="0" y="0">ESTABILIDAD</tspan><tspan x="0" y="14.63">&amp; CONTROL</tspan></text>
    <circle class="st7" cx="294.67" cy="37.02" r="8.03"/>
    <line class="st7" x1="288.99" y1="42.7" x2="279.45" y2="52.24"/>
  </g>
  <g>
    <g>
      <text class="st4" transform="translate(106.37 594.39)"><tspan x="0" y="0">CREADOR</tspan></text>
      <text class="st2" transform="translate(34.06 580.49)"><tspan x="0" y="0">EL</tspan></text>
    </g>
    <rect class="st5" x="58.54" y="569.19" width="4.63" height="45.77" transform="translate(652.93 531.23) rotate(90)"/>
  </g>
  <g>
    <path class="st5" d="M51.94,16.39c1.25-.36,2.34.42,2.54,1.66.17,1.09.27,5.66-.28,6.48-.91,1.35-3.01.94-3.4-.64.41-1.87-1.39-6.77,1.14-7.5Z"/>
    <g>
      <path class="st5" d="M57.63,73.19c-.13.08-.45,1.21-.72,1.59-2.15,2.95-6.6,2.77-8.56-.3-.25-.39-.29-1.23-.39-1.31-.24-.2-2.3,0-3.36-1.12-1.8-1.89-.49-9.22-1.06-12.21-.46-2.44-2.23-3.33-3.56-5.09-9.46-12.56,1.08-29.57,16.73-25.99,10.55,2.42,15.53,15.29,9.76,24.39-2.01,3.16-4.56,3.78-4.9,8.07-.2,2.61.54,7.59-.13,9.75-.2.64-.92,1.27-1.5,1.59-.88.49-2.06.45-2.32.61ZM57.89,61.41c-.96-5.95,4.96-7.92,6.5-13.11,2.92-9.87-5.89-18.34-15.76-15.45-6.81,1.99-9.81,9.86-7.33,16.29,1.71,4.43,6.79,6.46,6.15,11.76l.42.51h10.03ZM57.89,65.42h-10.19v3.7h10.19v-3.7Z"/>
      <path class="st5" d="M25.38,41.09c.59-.18,6.39-.18,6.98,0,1.69.51,1.38,3.44-.62,3.89-.92.21-4.81.21-5.73,0-2.01-.45-2.31-3.38-.62-3.89Z"/>
      <path class="st5" d="M32.65,22.9c1.69-1.6,5.27,2.29,6.26,3.62,1.64,2.2.24,4.59-2.01,3.55-.27-.12-3.83-3.7-4.18-4.15-.73-.96-1.09-2.05-.07-3.01Z"/>
      <path class="st5" d="M72.63,23.2c1.91,1.75-3.12,6.58-4.33,7.11-2.21.96-3.5-1.39-1.93-3.48.31-.42,3.62-3.73,3.87-3.85.76-.35,1.69-.19,2.39.22Z"/>
      <path class="st5" d="M36.81,55.59c1.47-.23,2.66,1.46,2.01,2.96-.16.38-4.08,4.4-4.4,4.55-1.94.89-3.32-1.05-2.54-2.85.3-.69,4.25-4.55,4.93-4.66Z"/>
      <path class="st5" d="M66.93,56.25c1.94-1.57,6.4,3.22,6.65,4.76.21,1.27-1.51,2.66-2.72,2.1-.24-.11-3.52-3.22-3.84-3.59-.85-.99-1.24-2.34-.1-3.27Z"/>
      <path class="st5" d="M72.47,41.72c.28-.28.91-.34,1.31-.38.78-.08,5.16-.23,5.66-.11,1.87.46,1.52,3.34.15,3.75-.32.09-5.9.24-6.21.16-1.41-.35-1.74-2.6-.91-3.43Z"/>
    </g>
  </g>
  <g>
    <path class="st5" d="M195.31,138.13l16.36-13.28c4.58-2.32,9.33-5.42,14.78-4.85,16.45,1.7,1.04,26.37,2.07,27.63,12.46-8.36,33.91-15.47,30.77,8.24-1.61,12.18-18.3,26.99-22.9,40.37-5.48,15.95.26,30.86-8.26,47.09-.98,1.87-5.11,6.38-4.27,7.8,12.58,5.78,19.49,18.22,29.13,27.46,8.12-3.62,2.12-8.96,1.7-15.22-.2-2.97.27-5.65,1.94-8.15.98-1.46,5.94-4.38,5.1-5.56-3.46-2.57-5.16-.67-8.29-.75-3.57-.09-7.13-3.84-6.73-7.5.33-3.1,11.22-16.37,14.28-17.46s9.28,3.21,9.34,6.28c.05,2.55-2.36,5.25,1.93,6.98,3.12,1.26,6.16-3.78,11.01-3.23,6.01.68,6.13,5.5,7.05,6.06,1.62.99,6.1-.85,9.81,3.24,1.85,2.04,1.9,5.1,3.13,6.36,1.05,1.08,3.46,1.19,5.18,2.73,5.27,4.73,3.58,11.22,1.87,17.04,5.06,4.12,10.39,8.11,14.71,13.03,3.29,3.74,5.34,8.6,9.46,11.49l1.89-10.32c-.52-2.5-6.74-4.93-7.4-8.28-.51-2.56,1.55-18.24,3.15-19.75l15.02-2.78c-3.8-3.51-10.39.15-11.67-6.91-1.95-10.73,1.52-25.31,3.05-36.11.77-1.19,9.74-6.47,11.44-6.74,3.76-.6,21.42,1.57,26,2.36,3.72.64,10.76,8.59,11.87,11.85.74,2.17.51,4.45.42,6.68-.29,7.03-1.93,14.98-2.36,22.15-.04,2.81-8.5,3.85-7.91,6.31.51,2.1,12.24,2.58,14.29,5.48.97,9.56,4.83,23.84,3.1,33.28-.65,3.53-7.06,2.57-7.83,4.86,1.34,6.98.7,14.98,1.72,21.81.91,6.14,4.87,5.63,8.34,9.85l.93,18.44,12.67.38c3.31,1.65,2.49,15.05,2.02,18.65l-7.48.83c-1.31,6.33.01,12.43-8.79,10.98,1.34,12.44.63,25.05.76,37.6.02,1.87.85,3.6.86,5.47.08,18.32-1.54,36.6-.82,54.99,8.15-1.11,5.58,5.54,7.85,10.74,1.84.79,6.09-.31,7.18,1.72,1.18,2.19,1.53,16.36-.53,17.66-17.8,2.12-35.76,1.38-53.67,1.55-15.46-2.27-31.92.24-47.45-.79-2.14-.14-8.05-.7-9.01-2.06-1.57-2.25-1.54-13.19-.46-15.38s6.16-2.56,8.32-2.36c-.63-6.78.14-10.81,7.9-10.29l-.18-97.69-1.15-.99c-6.47.43-5.93-6.67-7.46-11.13-8.83,2.32-8.89-9.57-7.78-15.5.85-4.53,13.54-3.22,17.38-3.58.11-6.44-.99-14.11,7.91-12.65-.08-5.4.08-10.83.03-16.25-.04-4.41-2.11-5.29.89-10.11,1.32-2.12,3.89-3.25,4.61-5.66-.25-1.05-16.83-7.37-19.52-8.95-3.8-2.23-6.4-5.86-10.27-7.95-1.48-.13-4.11,3.62-5.4,4.62s-4.17,1.63-4.9,2.61c-.96,1.29-2.82,8.8-4.05,11.38-10.95,23.02-31.52,32.41-53.9,16.86,2.11,18.1,7.12,35.79,10.82,53.62,2.51,12.12,7.53,29.97,8.17,41.7.29,5.39-2.42,4.58-6.67,5.81l-.54,1.27,7.57,47.87c.17.84.64,1.35,1.27,1.89,2.53,2.16,10.59,5.75,14.11,8.03,4.99,3.23,23.91,14.6,22.1,21.12-.71,2.55-5.84,2.8-8.16,2.97-20.96,1.5-43.88-.19-64.85-.86-7.51-.24-15.1.57-22.58-.35l-17.75-75.59-8.25.13-18.26,75.45c-8.01.91-16.13.12-24.16.35-23.35.66-48.6,3.96-71.88.78-8.39-1.15-3.52-7.68.34-11.43,8.61-8.37,21.42-14.74,30.82-22.36,4.49-35.26,13.22-69.86,18.11-105.06,2.67-19.27,3.75-38.59,4.85-58.01-.59-.61-13.24,6.32-15.4,7.13-28.59,10.79-41.62-2.78-49.22-29.11-.88-3.05-1.65-10.39-2.74-12.28s-6.2-3.63-8.16-5.28c-6.57-5.55-2.17-8.71.99-14.64-4.86-5.61-7.97-11.41-4.2-18.62.88-1.68,3.2-3.46,3.49-4.48.58-2.06-.82-3.73.07-6.96,1.98-7.2,6.73-5.64,9.54-8.68,1.05-1.14.84-3.15,1.68-4.65,2.96-5.28,10.91-6.56,16.13-3.92l11.92-17.89c.36-1.54-9.55-7-11.47-8.41-2.78-2.04-8-4.67-7.04-8.42,2.65-3.6,6.44-15.79,10.69-17.04,2.1-.62,5.07.06,7.56-.35,2.96-.49,6.19-3.33,8.27-3.62,3.16-.44,7.08,3.49,10.12,4.41,1.49-.13,1.82-5.48,8.62-4.53,2.09.29,8.18,4.09,9.2,5.85,2.35,4.05-1.42,6.88-.49,8.35,2.02,3.21,15.75,6.8,15.31,13.62-.25,3.9-11.86,24.73-15.06,26.13-2.21.96-2.92.41-4.97-.17-3.29-.93-12.17-6.94-13.54-7.08-1.14-.11-1.21.5-1.73,1.22-4.04,5.51-6.53,13.86-10.42,19.68l.38,1.19c8.05,3.74,10.44,9.65,8.96,18.37-.97,5.71-6.89,10.06-5.8,15.65.28,1.44,1.95,5.38,2.66,6.86.37.77-.25,1.31,1.24.91,2.17-.59,11.13-8.42,14.17-10.36,8.89-5.68,18.65-10.01,29.05-12.08l.73-.78c-13.43-38.58,7.73-83.86,37.21-109.15,14.81-12.71,36.17-21.28,28.48,9.1ZM155.05,278.82c6.94,1.11,13.89.6,20.88.87,11.74.45,23.66.78,35.59-.02,1.67-.11,8.8-.87,8.98-1.94l-5.81-19.39-.78-.78c-1.71,1.79-4.14,3.35-6.39,1.62l-1-1.89c.23-2.68,5.73-4.82,7.72-6.53,19.96-17.2,9.89-35.62,17.1-56.44,4.71-13.59,23.37-31.35,23.15-43.94-.09-5.27-3.89-4.68-8.15-4.32-4.98.43-9.48,2.77-13.63,5.35-2.93,1.82-12.77,10.92-14.24,11.15-1.71.26-3.28-1.02-3.41-2.71-.16-1.97,7.67-13.77,9.15-16.94,2.17-4.62,9.15-19.17-.62-17.24-8.31,1.65-20.04,12.24-25.91,18.38-2.59,2.71-11.1,14.69-13.84,14.63-2.25-.42-2.98-1.97-2.62-4.13.63-3.74,7-13.27,8.6-18.36,3.61-11.47,3.02-16.6-9.26-10.05-34.19,18.23-61.48,78.88-44.16,115.6,1.35,2.86,4.63,5.37,6.28,7.95,5.69,8.89,10.05,18.78,12.38,29.13ZM104.37,161.85l.44-2.39-6.4-3.95c-1.59-.13-2.9,2.34-1.41,3.18l7.38,3.16ZM81.23,156.45c-1.52.23-3.97,2.2-5.94,2.81-2.46.75-7.14.73-8.54,1.74-1.62,1.16-5.54,9.42-5.51,11.91.78,1.61,24.05,15.57,27.59,17.55,3.3,1.85,12.67,7.52,15.55,8.23.94.23,1.36.52,2.37-.02,1.44-.78,11.99-19.11,11.5-20.22-3.39-3.61-7.87-5.95-12.06-8.51-5.88-3.61-16.14-10.26-22.06-12.75-1.04-.43-1.6-.93-2.88-.73ZM72.75,215.62l11.76-20.31c.13-1.44-5.9-5.63-7.42-3.42-1.08,4.74-7.96,11.73-8.95,15.64-.96,3.75,4.25,4.7,4.62,8.1ZM355.05,346.1h37.96v-13.44c-2.81.32-4.33,3.97-6.93,4.59-2.38.56-4.19-.96-6.7-.5-3.07.57-5.82,4.41-9.29,3.81-1.95-1.88,7.47-8.79,9.79-8.69,1.57.07,3.24,1.55,4.72,1.39.64-.07,6.59-3.7,6.83-4.17l-6.95-7.28-1.86-25.03c-.55-2.05-7.62.18-9.78.28-2.31.1-4.61.12-6.91-.19-2.64-.36-12.78-3.13-13.25-5.73-.39-2.16-.18-13.92.97-15.23,3.02-.35,7.13-3.12,9.68-3.4,3.73-.41,6.35,1.73,9.9,1.64-.13-2.62-.19-5.29,1.99-7.12,3.18-.74,1.76,9.8,1.85,11.74-7.17,2.56-13.74-7.01-19.65,2.1l-.46,8.33c10.71,5.39,22.4,1.68,33.55-.15l-2.61-27.61c-3.53-2.09-13.81-2.35-14.66-6.69-1.7-8.65,2.68-6.94,7.76-11.19.87-4.37.54-9,.93-13.3.29-3.22,2.16-7.81,1.24-10.72-.46-1.46-5.92-8.09-7.34-8.51-7.67.45-19.24-4.31-26.37-2.17-3.89,1.17-8.41,4.82-7.12,9.44.66,2.36,8.92-1.77,8.8,6.42-.04,2.83-1.26,6.23-1.64,9.09,13.26,1.43,3.1,8.26-4.04,2.83-2.46-5.44,6.4-14.79-3.86-13.09-.87,7.27-1.7,14.32-.84,21.61l21.71,3.63c2.32,6.82-9.25,1.94-10.57,3.25l-1.63,5.09-14.91,2.89-1.56,13.58c6.04,5.77,11.52,12.56,12.52,21.11-1.34,1.5-4.86-4.75-5.3-5.32-.51-.66.01-1.45-1.81-.99-.44.56-.43,11.97-1.15,14.27-.91,2.91-5.98,5.52-6.72,9.88-1.07,6.28,2.49,17.25.59,23.53-.77,2.53-5.5,3.06-7.76,2.92.93,3.62-2.88,7.42,1.94,7.94,7.98.87,16.19-.97,24.16-.83l.79-25.7c1.04-3.31,2.81-2.36,3.19.76.97,8.03,1.85,17.01.76,24.94ZM68.68,221.06c3.28-5.29-18.65-17.45-18.87-5.44,3.69.27,7.13,1.7,10.23,3.61,1.3.8,2.55,3.1,3.77,3.41.82.21,4.7-1.31,4.87-1.58ZM38.73,228.27c6.33-.63,11.63,1.73,16.97,4.74l4.23-6.73c-5.27-5.63-21.12-9.5-21.2,1.99ZM113.86,306.96c-.72,5.72.53,12.71,0,18.58,12.18-1.36,20.59-.92,28.33-11.61,6.9-9.53,9.31-29.54,6.07-40.58-2.99-10.16-9.49-21.41-17.02-28.89-16.83,1.77-29.99,12.71-43.36,21.9-.69,1.18,4.47,10.62-1.98,8.47-1.92-.64-9.77-19.65-10.03-22.44-.7-7.45,9.33-12.95,6.32-22.09-4.24-12.88-25.08-.42-20.4,9.72,5.54,1.56,8.52-4.07,13.33-4.63,1.84,6.85-7.09,10.21-12.51,10.42l-15.2,27.89c4.41,23.05,12.04,46.68,40.77,37.61,12.62-3.98,24.04-12.46,34.82-19.82l3.17,1.63c-.44,6.65-11.51,7.46-12.31,13.83ZM268.05,248.84l2.16-5.94c-.09-1.18-5-4.42-5.69-5.93-1.46-3.2,1.56-5.96-1.6-7.88-2.19,2.26-11.44,10.88-10.64,13.75,1.67,2.83,3.59.1,5.29-.19,3.31-.56,9.07,7.28,10.48,6.2ZM40.1,234c-7.02,1.43-7.5,10.08-3.33,14.84,2.73.63,1.05-5.48,4.1-6.22,5.16.82,9.42,6.16,14.92,3.12,2.07-7.46-9.72-12.94-15.69-11.73ZM277,241.96c-1.08,1.18-3.82,6.39-3.32,7.93.39,1.22,6.05,3.91,7.28,3.6,3.94-3.45,8.83-11.46,1.7-14.17-1.35-.13-4.79,1.7-5.66,2.63ZM287.83,265.45c8.26-1.1,15.7-20.25,3.22-19.7,1.01,3.93-5.07,9.12-5.5,10.77-.54,2.09,3.48,6.02,2.27,8.93ZM53.76,252.01l-10.3-2.05c-4.09,7.09-13.43,15.77.8,17.51l9.5-15.46ZM219.03,255.17c7.18,18.16,10.75,37.57,13,56.98.85,2.58,11.61,8.27,14.5,9.22,20.8,6.85,30.46-8.28,38.27-24.56,1.12-2.33,1.83-6.31,2.99-8.08,1.83-2.77,8.37-3.5,10.3-7.08-2.08-2.57-5.32-2.78-7.85-4.79-1.12-.89-1.54-2.22-2.49-3.04-4.04-3.47-7.08-.51-12.13-1.32-3.27-.52-11.83-5.79-6.53-8.08,2.12-.92,9.94,6.66,12.82,1.81,3.69-6.2-10.62-11.78-15.86-11.11-11.32,1.45-3.2,13.32-2.73,17.9.4,3.92-5.47,11.01-9.16,11.39-5.6.58-12.82-11.11-16.52-15.03-5.26-5.57-11.13-11.86-18.59-14.22ZM303.25,255.18c-1.6,2.56-2.46,5.07-4.17,7.67-1.57,2.38-8.31,7.81-4.97,10.15,8.63,2.13,17.59-12.1,9.14-17.82ZM326.57,293.91l-6.71-9.5-12.66-11-5.13,4.29c7.14,6.96,14.68,13.44,24.5,16.21ZM128.88,418.06c9.89.9,19.78,3.08,29.66,3.96,19.97,1.77,41.64,1.52,61.58-.89,3.44-.42,26.18-4.08,27.04-5.39-4.39-28.44-12.29-56.28-17.6-84.51-2.95-15.67-4.28-31.61-7.33-47.26l-28.08,2.08-38.39-1.62c-1,17.65-6.84,40.55-26.69,44.88-2.87.63-15.05.84-15.66,1.73l-.35,4,21.62,2.51,2.1,3.51c-1.92,25.72-3.94,51.56-7.9,77.01ZM131.25,342.15c-6.17.4-12.26-.77-18.17-2.38-3.74,36.45-11.42,72.23-17.95,108.19-1.29,7.1-1.64,18.45-3.78,24.69-1.98,5.78-28.03,18.96-32.46,26.06l.91,1.48,87.99-1.55,15.87-69.91c-.54-.8-1.02-1.02-1.96-1.17-6.06-1.02-34.36-2.45-37.24-4.67-.45-.35-.78-.88-.94-1.42l7.74-79.31ZM408.03,351.64h-102.01l.74,9.14c30.93,1.32,61.97-1.59,93-.48,2.7.1,5.41,1.33,8.27.83v-9.49ZM400.11,371.4l.6-4.38-1.77-1.15h-84.22s1.24,6.36,1.24,6.36l84.16-.83ZM392.21,376.94h-70.37s.74,98.48.74,98.48l69.25-.44,1.15-1.16c-.01-.3-.76-.56-.76-.79v-96.08ZM240.38,423.6c-12.89,2.17-26.03,4-39.11,4.78-2.88.17-15.57-.8-16.7.73l13.98,69.53,85.33.86c-9.9-10.59-23.69-16.02-35.15-24.54l-8.34-51.37ZM399.33,486.07c-.08-2.13.84-5.22-1.98-5.54l-81.76.09-.87,6.24c.28.39,1.01-.79,1.18-.79h83.43ZM408.03,500.31l-.11-8.19-1.87-1.3c-30.33-.81-60.66,1.68-90.98.83-8.23-.23-9.71-3.97-8.78,7.48l.91,1.18h100.82Z"/>
    <path class="st1" d="M155.05,278.82c-2.33-10.35-6.69-20.24-12.38-29.13-1.65-2.58-4.93-5.09-6.28-7.95-17.31-36.72,9.98-97.37,44.16-115.6,12.28-6.55,12.87-1.42,9.26,10.05-1.6,5.08-7.97,14.62-8.6,18.36-.36,2.15.37,3.7,2.62,4.13,2.73.07,11.25-11.92,13.84-14.63,5.87-6.14,17.6-16.74,25.91-18.38,9.77-1.94,2.79,12.61.62,17.24-1.48,3.16-9.31,14.97-9.15,16.94.14,1.69,1.7,2.97,3.41,2.71,1.46-.22,11.31-9.33,14.24-11.15,4.15-2.58,8.65-4.92,13.63-5.35,4.26-.37,8.06-.95,8.15,4.32.23,12.59-18.44,30.35-23.15,43.94-7.21,20.82,2.86,39.24-17.1,56.44-1.99,1.71-7.49,3.85-7.72,6.53l1,1.89c2.25,1.72,4.68.16,6.39-1.62l.78.78,5.81,19.39c-.18,1.07-7.3,1.83-8.98,1.94-11.93.79-23.85.47-35.59.02-6.99-.27-13.94.24-20.88-.87ZM201.64,213.65c.59-2.09,0-9.75,0-12.65,0-1.12-3.94-2-5.16-.41s-1.77,12.63-.78,14.25c1.55,2.55,5.36.86,5.94-1.19ZM219.82,215.23v-12.65c0-1.12-3.94-2-5.15-.41-.46.6-2.03,9.58-2,10.73.1,4.51,6.29,5.1,7.16,2.33ZM178.4,219.64c-3,.98.19,6.56,1.22,8.11,5.42,8.13,17.89,13.02,27.21,10.07,1.86-5.68-4.19-3.6-7.76-4.22-5.37-.93-10.89-4.41-14.46-8.47-1.77-2.02-2.66-6.65-6.21-5.49Z"/>
    <path class="st1" d="M128.88,418.06c3.95-25.45,5.98-51.29,7.9-77.01l-2.1-3.51-21.62-2.51.35-4c.61-.89,12.8-1.11,15.66-1.73,19.86-4.33,25.69-27.23,26.69-44.88l38.39,1.62,28.08-2.08c3.05,15.65,4.38,31.6,7.33,47.26,5.31,28.24,13.21,56.08,17.6,84.51-.87,1.31-23.61,4.97-27.04,5.39-19.93,2.41-41.61,2.66-61.58.89-9.89-.88-19.77-3.05-29.66-3.96ZM162.29,341.55c-3.35,15.41,1.36,36.47,15.68,45.21,13.59,8.3,32.4,5.07,40.92-8.77,7.33-11.91,4.48-24.6,4.1-37.82l-1.24-1.91-59.45,3.29Z"/>
    <path class="st1" d="M392.21,376.94v96.08c0,.23.75.49.76.79l-1.15,1.16-69.25.44-.74-98.47h70.37Z"/>
    <path class="st1" d="M131.25,342.15l-7.74,79.31c.16.55.49,1.07.94,1.42,2.88,2.21,31.18,3.65,37.24,4.67.94.16,1.42.37,1.96,1.17l-15.87,69.91-87.99,1.55-.91-1.48c4.43-7.1,30.49-20.28,32.46-26.06,2.13-6.24,2.49-17.59,3.78-24.69,6.53-35.97,14.21-71.75,17.95-108.19,5.91,1.61,12,2.78,18.17,2.38Z"/>
    <path class="st1" d="M113.86,306.96c.8-6.37,11.87-7.18,12.31-13.83l-3.17-1.63c-10.78,7.36-22.2,15.84-34.82,19.82-28.73,9.07-36.36-14.56-40.77-37.61l15.2-27.89c5.42-.21,14.35-3.56,12.51-10.42-4.81.56-7.78,6.19-13.33,4.63-4.68-10.13,16.16-22.6,20.4-9.72,3.01,9.14-7.02,14.65-6.32,22.09.26,2.79,8.11,21.8,10.03,22.44,6.44,2.14,1.28-7.29,1.98-8.47,13.37-9.19,26.53-20.13,43.36-21.9,7.53,7.48,14.03,18.73,17.02,28.89,3.24,11.04.83,31.05-6.07,40.58-7.74,10.69-16.15,10.25-28.33,11.61.53-5.87-.72-12.86,0-18.58Z"/>
    <path class="st1" d="M355.05,346.1c1.09-7.93.21-16.91-.76-24.94-.38-3.12-2.15-4.07-3.19-.76l-.79,25.7c-7.97-.15-16.18,1.7-24.16.83-4.81-.53-1.01-4.33-1.94-7.94,2.26.14,6.99-.39,7.76-2.92,1.9-6.28-1.67-17.26-.59-23.53.74-4.36,5.81-6.97,6.72-9.88.72-2.3.7-13.71,1.15-14.27,1.82-.45,1.3.34,1.81.99.44.57,3.96,6.83,5.3,5.32-1.01-8.55-6.48-15.34-12.52-21.11l1.56-13.58,14.91-2.89,1.63-5.09c1.32-1.31,12.89,3.57,10.57-3.25l-21.71-3.63c-.87-7.29-.03-14.34.84-21.61,10.26-1.69,1.4,7.66,3.86,13.09,7.14,5.43,17.3-1.39,4.04-2.83.38-2.86,1.6-6.25,1.64-9.09.11-8.18-8.15-4.06-8.8-6.42-1.29-4.62,3.23-8.27,7.12-9.44,7.13-2.14,18.7,2.63,26.37,2.17,1.42.42,6.88,7.05,7.34,8.51.92,2.91-.95,7.5-1.24,10.72-.39,4.3-.06,8.93-.93,13.3-5.08,4.25-9.45,2.54-7.76,11.19.85,4.34,11.13,4.6,14.66,6.69l2.61,27.61c-11.15,1.82-22.85,5.53-33.55.15l.46-8.33c5.91-9.11,12.48.46,19.65-2.1-.1-1.94,1.32-12.48-1.85-11.74-2.18,1.82-2.12,4.5-1.99,7.12-3.55.1-6.17-2.05-9.9-1.64-2.56.28-6.67,3.06-9.68,3.4-1.16,1.31-1.37,13.07-.97,15.23.47,2.59,10.62,5.37,13.25,5.73,2.3.31,4.6.3,6.91.19,2.16-.1,9.23-2.32,9.78-.28l1.86,25.03,6.95,7.28c-.24.47-6.19,4.1-6.83,4.17-1.48.16-3.15-1.32-4.72-1.39-2.33-.1-11.74,6.81-9.79,8.69,3.48.6,6.22-3.24,9.29-3.81,2.51-.47,4.32,1.06,6.7.5,2.61-.62,4.13-4.27,6.93-4.59v13.44h-37.96ZM362.03,226.53c.44-.27.21-2.01,2.12-2.26,1.47-.19,8.04,2.58,6.71-1.91-.68-2.3-9.7-2.13-11.67-1.03-2.24,2.53-.38,7.17,2.85,5.2ZM366.11,289.16c-.54-2.9,1.75-9.22-2.36-9.48-.5,3.33-2.6,8.8,2.36,9.48ZM342.4,306.58c.78,5.09,6.9.5,8.68-1.99l-1.95-1.77-6.73,3.76Z"/>
    <path class="st1" d="M240.38,423.6l8.34,51.37c11.47,8.53,25.25,13.95,35.15,24.54l-85.33-.86-13.98-69.53c1.13-1.53,13.82-.56,16.7-.73,13.08-.78,26.22-2.62,39.11-4.78Z"/>
    <path class="st1" d="M219.03,255.17c7.47,2.35,13.34,8.65,18.59,14.22,3.7,3.92,10.92,15.61,16.52,15.03,3.69-.38,9.56-7.46,9.16-11.39-.46-4.58-8.58-16.45,2.73-17.9,5.24-.67,19.54,4.92,15.86,11.11-2.88,4.84-10.69-2.73-12.82-1.81-5.3,2.29,3.27,7.56,6.53,8.08,5.05.81,8.09-2.15,12.13,1.32.95.82,1.37,2.15,2.49,3.04,2.54,2.01,5.77,2.22,7.85,4.79-1.93,3.58-8.47,4.31-10.3,7.08-1.16,1.76-1.87,5.75-2.99,8.08-7.82,16.28-17.47,31.41-38.27,24.56-2.89-.95-13.65-6.64-14.5-9.22-2.24-19.41-5.82-38.82-13-56.98Z"/>
    <path class="st1" d="M81.23,156.45c1.28-.19,1.84.3,2.88.73,5.93,2.48,16.19,9.14,22.06,12.75,4.18,2.57,8.67,4.9,12.06,8.51.49,1.11-10.05,19.45-11.5,20.22-1,.54-1.43.25-2.37.02-2.88-.72-12.25-6.38-15.55-8.23-3.53-1.98-26.81-15.94-27.59-17.55-.03-2.49,3.9-10.75,5.51-11.91,1.4-1,6.08-.98,8.54-1.74,1.97-.61,4.42-2.58,5.94-2.81Z"/>
    <path class="st1" d="M408.03,500.31h-100.82l-.91-1.18c-.93-11.45.54-7.71,8.78-7.48,30.32.85,60.65-1.64,90.98-.83l1.87,1.3.11,8.19Z"/>
    <path class="st1" d="M408.03,351.64v9.49c-2.86.51-5.57-.73-8.27-.83-31.03-1.11-62.07,1.8-93,.48l-.74-9.14h102.01Z"/>
    <polygon class="st1" points="400.11 371.4 315.96 372.23 314.72 365.88 398.94 365.87 400.71 367.02 400.11 371.4"/>
    <path class="st1" d="M399.33,486.07h-83.43c-.17,0-.89,1.18-1.18.79l.87-6.24,81.76-.09c2.82.32,1.9,3.41,1.98,5.54Z"/>
    <path class="st1" d="M40.1,234c5.97-1.21,17.76,4.27,15.69,11.73-5.49,3.04-9.76-2.3-14.92-3.12-3.05.74-1.38,6.86-4.1,6.22-4.17-4.76-3.69-13.41,3.33-14.84Z"/>
    <path class="st1" d="M72.75,215.62c-.37-3.39-5.57-4.35-4.62-8.1,1-3.9,7.87-10.9,8.95-15.64,1.52-2.21,7.55,1.98,7.42,3.42l-11.76,20.31Z"/>
    <path class="st1" d="M53.76,252.01l-9.5,15.46c-14.23-1.74-4.89-10.42-.8-17.51l10.3,2.05Z"/>
    <path class="st1" d="M268.05,248.84c-1.41,1.09-7.17-6.75-10.48-6.2-1.7.29-3.62,3.02-5.29.19-.8-2.87,8.45-11.48,10.64-13.75,3.15,1.93.14,4.68,1.6,7.88.69,1.51,5.59,4.75,5.69,5.93l-2.16,5.94Z"/>
    <path class="st1" d="M326.57,293.91c-9.81-2.76-17.36-9.25-24.5-16.21l5.13-4.29,12.66,11,6.71,9.5Z"/>
    <path class="st1" d="M38.73,228.27c.08-11.49,15.93-7.62,21.2-1.99l-4.23,6.73c-5.34-3.01-10.64-5.37-16.97-4.74Z"/>
    <path class="st1" d="M287.83,265.45c1.21-2.92-2.82-6.84-2.27-8.93.43-1.65,6.5-6.83,5.5-10.77,12.48-.55,5.04,18.6-3.22,19.7Z"/>
    <path class="st1" d="M303.25,255.18c8.45,5.72-.51,19.95-9.14,17.82-3.33-2.34,3.4-7.77,4.97-10.15,1.71-2.6,2.57-5.12,4.17-7.67Z"/>
    <path class="st1" d="M277,241.96c.86-.94,4.31-2.77,5.66-2.63,7.13,2.7,2.24,10.72-1.7,14.17-1.23.32-6.89-2.38-7.28-3.6-.5-1.55,2.25-6.76,3.32-7.93Z"/>
    <path class="st1" d="M68.68,221.06c-.16.27-4.05,1.79-4.87,1.58-1.22-.31-2.47-2.61-3.77-3.41-3.1-1.91-6.54-3.34-10.23-3.61.22-12,22.15.15,18.87,5.44Z"/>
    <path class="st1" d="M104.37,161.85l-7.38-3.16c-1.49-.84-.18-3.3,1.41-3.18l6.4,3.95-.44,2.39Z"/>
    <path class="st5" d="M178.4,219.64c3.55-1.16,4.44,3.47,6.21,5.49,3.57,4.06,9.09,7.55,14.46,8.47,3.57.62,9.62-1.46,7.76,4.22-9.32,2.95-21.79-1.94-27.21-10.07-1.03-1.54-4.22-7.13-1.22-8.11Z"/>
    <path class="st5" d="M201.64,213.65c-.58,2.05-4.39,3.74-5.94,1.19-.99-1.62-.47-12.6.78-14.25s5.16-.71,5.16.41c0,2.9.59,10.56,0,12.65Z"/>
    <path class="st5" d="M219.82,215.23c-.86,2.77-7.05,2.18-7.16-2.33-.03-1.15,1.55-10.13,2-10.73,1.21-1.6,5.15-.71,5.15.41v12.65Z"/>
    <path class="st5" d="M162.29,341.55l59.45-3.29,1.24,1.91c.38,13.22,3.23,25.91-4.1,37.82-8.52,13.85-27.32,17.08-40.92,8.77-14.32-8.75-19.03-29.81-15.68-45.21ZM218.24,364.69c.73-6.13-.53-13.48,0-19.77-1.03-1.54-2.69-1.18-4.35-1.24-5.85-.19-13.73,1.46-19.74,1.66-9.66.33-19.3-.69-28.91-.42,1.45,14.03,4.41,34.07,19.8,39.51,14.7,5.2,31.33-3.97,33.19-19.75Z"/>
    <path class="st1" d="M218.24,364.69c-1.87,15.78-18.49,24.95-33.19,19.75-15.39-5.44-18.35-25.48-19.8-39.51,9.61-.28,19.25.75,28.91.42,6-.21,13.89-1.85,19.74-1.66,1.66.05,3.32-.31,4.35,1.24-.53,6.29.73,13.64,0,19.77Z"/>
  </g>
</svg>