<?xml version="1.0" encoding="UTF-8"?>
<svg id="Capa_1" xmlns="http://www.w3.org/2000/svg" version="1.1" viewBox="0 0 442.43 630.3">
  <!-- Generator: Adobe Illustrator 30.0.0, SVG Export Plug-In . SVG Version: 2.1.1 Build 123)  -->
  <defs>
    <style>
      .st0 {
        fill: #fff;
      }

      .st1 {
        font-size: 16.67px;
        letter-spacing: .04em;
      }

      .st1, .st2 {
        font-family: Gabarito-Regular, Gabarito;
      }

      .st1, .st2, .st3, .st4, .st5 {
        fill: #1d0981;
      }

      .st6 {
        fill: none;
        stroke: #1d0981;
        stroke-miterlimit: 10;
        stroke-width: 5px;
      }

      .st2 {
        font-size: 43.64px;
        letter-spacing: .04em;
      }

      .st4 {
        font-size: 60.2px;
        letter-spacing: .04em;
      }

      .st4, .st5 {
        font-family: Gabarito-Bold, Gabarito;
        font-weight: 700;
      }

      .st7 {
        fill: #e1384f;
      }

      .st5 {
        font-size: 18.39px;
        letter-spacing: .04em;
      }
    </style>
  </defs>
  <rect class="st7" width="442.43" height="630.3" rx="30" ry="30"/>
  <path class="st0" d="M247.5,118.1c-.62.18-.99.54-1.38.69-2.85,1.1-10.28,5.09-10.38,8.31-4.24,1.52-10.36,10.33-13.44,14.6-7.61,10.55-15.3,23.1-21.55,34.52-1.47,2.69-3.21,11.04-7.49,8.27-3.36-2.18,1.3-9.38,2.29-12.78,2.8-9.73,5.03-19.38,2.11-29.38-1.15-.97-9.02,5.33-10.39,6.57-30.06,27.23-24.11,84.93-17.81,120.98,1.08,6.16,5.13,9.23-5.36,9.56-6.2.2-14.76-.91-21.13-1.42-.46-.04-.93.04-1.38,0l-60.93-17.64c-2.47-2.83,3.02-18.86,3.46-23.2-4.9,2.63-8.69,8.37-11.43,13.14-1.08,1.88-3.8,9.2-4.94,9.59-5.27,1.83-23.57-8.05-30.7-5.42,4.55,3.69,11.72,4.57,17.28,6.6,3.01,1.1,9.6,2.42,9.04,6.16s-5.47,1.6-8.32,1.08c-.22-.04-.47.04-.69,0-1.31-1.5-3.63-1.9-5.54-2.08-.48-.24-.87-.46-1.38-.69-5.54-2.44-11.62-4.96-17.74-5.45-1.5-.12-7-.77-6.48,1.63,8.07,7.9,20.06,8.37,30.31,11.93,2.72.95,12.48,3.47,8.98,7.64-1.31,1.56-8.94-.87-11.06-1.41-11.63-2.97-22.75-9.41-35.15-6.72-.74.68,2.49,3.63,3.1,4.17,19.96,17.82,86.22,30.03,113.64,34.5,12.56,2.05,27.06,2.63,39.18,5.13,1.26.26,2.57.37,3.62,1.22s4.68,6.46,5.78,8.06c18.81,27.48,27.43,61.2,27.82,94.36.02,1.38.01,2.77,0,4.15-.08,7.83-.45,16.82-1.39,24.57-.43,3.49-2.08,14.88-3.29,17.48-1.18,2.52-16,12.31-19.36,15.21-.49.43-1.3-.04-.88,1.59h65.77l6.93-111.1c1.08-2.28.06-7.68,1.54-9.18,1.15-1.16,4.43-1.07,4.8.79l26.53,113.96h81.34c.34-1.64-.22-1.11-.89-1.55-3.58-2.34-12.77-6-17.11-7.78-4.14-1.7-30.71-10.53-31.5-12.12-1.27-3.55.31-7.37.38-10.71.95-41.01-12.59-86.83-28.98-124.06-1.84-4.17-14.82-28.62-14.69-30.3.21-2.64,4.06-3.38,5.61-1.46l10.37,21.82,1.56-.1c21.92-11.57,44.47-22.28,65.24-35.86,3.19-2.08,6.69-4.14,9.33-6.94.22-.05.47.05.69,0,1.73-.41,14.56-10.54,16.94-12.48,7.19-5.87,14.55-12.54,20.42-19.73,1.86-2.27,6.69-8.04,7.62-10.38.59-1.49-1.49-1.1-2.4-1.01-5.37.49-12.26,3.42-17.23,5.62-4.09,1.82-17.31,10-20.29,10.1-2.76.1-4.03-3.51-2.9-5.26.49-.77,6.53-1.03,6.13-3.55.2-.07.49.07.69,0,1.71-.59,4.02-1.12,4.85-2.77.2-.08.49.07.69,0,1.56-.57,4.06-1.44,4.85-2.77.2-.08.5.08.69,0,3.46-1.51,8.46-4.35,11.4-6.94.59-.52,3.95-3.44,3.13-4.13-2.83-.22-5.52.93-8.08,1.95-6.78,2.68-22.38,14.37-28.81,12.44-1.7-.51-2.76-3.07-1.18-4.36.92-.76,5.02-1.48,6.71-2.29,3.27-1.57,6.3-4.38,9.29-5.94,3.7-1.94,8.59-3.54,12.43-5.6.97-.52,1.7.05,1.35-1.73-2.43-1.92-29.94,12.99-34.27,14.98-.65,0-2.1-.91-2.47-1.43-1.84-2.59,2.05-15.1-1.68-19.07-8.57,5.49-6.59,17.03-8.81,25.1-1.2,4.38-19.17,14.91-23.86,17.67-8.79,5.17-18.07,9.7-27.1,14.43-1.31.68-4.47,1.41-4.26,3.01-.19.08-.5-.08-.69,0-5.63,2.45-11.57,5.7-17.31,7.96-2.92,1.15-6.05,2.38-8.63-.37-1.16-1.25-3.14-7.04-3.14-8.62v-11.42c-2.47.13-4.38,1.94-6.77,2.58-14.19,3.81-28.9-5.43-37.52-16.09-1.57-1.95-5.83-7.12-2.79-9.01,3.45-2.14,6.44,4.31,8.29,6.28,9.95,10.51,20.61,17.6,35.47,11.2,3.34-1.44,13.84-8.91,14.99-12.04.67-1.85-.69-1.38-1.25-2.13-3.54-4.74-6.85-7.95-8.87-13.83-11.15-32.51,22.24-50.54,17.66-79.97-.58-3.71-3.11-10.45-7.63-10.06-6,.52-14.75,8.82-17.82,13.7-2.27,1.83-4.54,3.85-6.52,6.29-5.49,6.75-9.07,14.81-14.2,21.8-1.22,1.51-3.71,1.33-4.57-.4-1.36-2.71,4.81-10.32,6.26-13.13,4.75-9.2,8.97-21.02,11.07-31.16,1.06-5.13,3.41-10.37-3.81-8.31Z"/>
  <text class="st5" transform="translate(103.17 50.76)"><tspan x="0" y="0">OPTIMISMO</tspan></text>
  <g>
    <text class="st1" transform="translate(286.34 40.82)"><tspan x="0" y="0">INDEPENDENCIA</tspan><tspan x="0" y="14.63">&amp; REALIZACIÓN</tspan></text>
    <circle class="st6" cx="266.67" cy="37.02" r="8.03"/>
    <line class="st6" x1="260.99" y1="42.7" x2="251.45" y2="52.24"/>
  </g>
  <g>
    <path class="st3" d="M10.05,276.63c-.38-6.87,2.62-8.69,9-9.7-1.86-4.8-3.2-10.13,2.73-12.15,1.03-.35,3.37-.19,3.49-.31.34-.34-1.01-3.25,2.54-5.42,7.75-4.73,27.8,2.82,36.48,4.67,4.56-7.03,9.16-17.86,17.03-21.78,5.06-2.52,8.45-3.22,8.39,3.52-.03,3.56-4.33,19.62-3.42,21.01,25.34,7.46,51.46,16.54,78.15,16.7-6.88-37.79-13.26-89.3,12.48-121.47,3.33-4.17,15.92-16.38,21.11-16.34,7.05.05,6.28,17.62,6.9,22.2,5.2-7.92,10.29-15.9,16.04-23.44,4.08-5.34,8.66-11.13,14.15-15.6,5.29-4.31,18.14-12.21,22.35-3.11,2.73,5.9-2.88,17.02-3.72,23.46,1.36.35,1.34-.56,1.95-1.16,7.29-7.22,22-22.4,31.16-8.76,16.05,23.9-13.59,49.59-15.72,71.96-.83,8.74.66,18.5,6.15,25.53,1.52,1.95,7.37,6.15,7.49,7.73-3.15,5.94-8.15,10.95-13.74,14.56-.34,6.58,1.09,13.04,1.4,19.58,13.64-6.37,27.38-12.75,40.61-19.95,9.15-4.98,21.04-11.23,28.61-18.12.48-.44.9-.94,1.38-1.38s1.91-.32,2.1-1.16c-.25-9.03,2.29-22.32,10.39-27.54,10.83-6.97,11.49,9.27,11.05,16.23,6.53-2.22,12.55-6.41,19.2-8.84,4.4-1.61,11.64-4.62,15.78-1.57,1.14.84,1.72,2.73,2.4,3.14,1.76,1.03,4.89-.49,7.23,2.46,2.93,3.71-.67,7.92-.3,8.26,17.53-2.33,11.52,8.79,4.81,17.63-14.59,19.22-39.29,35.48-59.56,48.43-2.83,1.81-8.28,4.11-10.57,5.9-.74.58-.33,1.22-.45,1.43-.14.25-.58.45-.69.69l-1.38.69c-.23-.03-.46.02-.69,0l-44.22,22.24c1.42,6.99,5.25,13.87,7.84,20.71,13.86,36.62,24.2,76.03,21.42,115.61,15.09,5.69,31.84,10.69,46,18.42,3.99,2.18,11.37,5.5,9.17,11.04l-97,.64-23.52-96.58-7.1,101.59c-1.06.78-2.36.8-3.61.89-24.41,1.75-50.88-1.4-75.52,0-2.13,0-3.57-1.6-2.98-3.69,7.9-8.28,18.59-13.85,26.72-21.79,8.81-41.65,4.35-87.54-16.77-124.79-2-3.52-9.11-15.64-12.62-16.46-5.96-1.39-14.23-1.35-20.53-2.31-43.47-6.64-90.31-14.27-129.42-34.65l-10.16-8.18c-.04-.22.01-.47,0-.69ZM247.5,118.1c-.62.18-.99.54-1.38.69-2.85,1.1-10.28,5.09-10.38,8.31-4.24,1.52-10.36,10.33-13.44,14.6-7.61,10.55-15.3,23.1-21.55,34.52-1.47,2.69-3.21,11.04-7.49,8.27-3.36-2.18,1.3-9.38,2.29-12.78,2.8-9.73,5.03-19.38,2.11-29.38-1.15-.97-9.02,5.33-10.39,6.57-30.06,27.23-24.11,84.93-17.81,120.98,1.08,6.16,5.13,9.23-5.36,9.56-6.2.2-14.76-.91-21.13-1.42-.46-.04-.93.04-1.38,0l-60.93-17.64c-2.47-2.83,3.02-18.86,3.46-23.2-4.9,2.63-8.69,8.37-11.43,13.14-1.08,1.88-3.8,9.2-4.94,9.59-5.27,1.83-23.57-8.05-30.7-5.42,4.55,3.69,11.72,4.57,17.28,6.6,3.01,1.1,9.6,2.42,9.04,6.16s-5.47,1.6-8.32,1.08c-.22-.04-.47.04-.69,0-1.31-1.5-3.63-1.9-5.54-2.08-.48-.24-.87-.46-1.38-.69-5.54-2.44-11.62-4.96-17.74-5.45-1.5-.12-7-.77-6.48,1.63,8.07,7.9,20.06,8.37,30.31,11.93,2.72.95,12.48,3.47,8.98,7.64-1.31,1.56-8.94-.87-11.06-1.41-11.63-2.97-22.75-9.41-35.15-6.72-.74.68,2.49,3.63,3.1,4.17,19.96,17.82,86.22,30.03,113.64,34.5,12.56,2.05,27.06,2.63,39.18,5.13,1.26.26,2.57.37,3.62,1.22s4.68,6.46,5.78,8.06c18.81,27.48,27.43,61.2,27.82,94.36.02,1.38.01,2.77,0,4.15-.08,7.83-.45,16.82-1.39,24.57-.43,3.49-2.08,14.88-3.29,17.48-1.18,2.52-16,12.31-19.36,15.21-.49.43-1.3-.04-.88,1.59h65.77l6.93-111.1c1.08-2.28.06-7.68,1.54-9.18,1.15-1.16,4.43-1.07,4.8.79l26.53,113.96h81.34c.34-1.64-.22-1.11-.89-1.55-3.58-2.34-12.77-6-17.11-7.78-4.14-1.7-30.71-10.53-31.5-12.12-1.27-3.55.31-7.37.38-10.71.95-41.01-12.59-86.83-28.98-124.06-1.84-4.17-14.82-28.62-14.69-30.3.21-2.64,4.06-3.38,5.61-1.46l10.37,21.82,1.56-.1c21.92-11.57,44.47-22.28,65.24-35.86,3.19-2.08,6.69-4.14,9.33-6.94.22-.05.47.05.69,0,1.73-.41,14.56-10.54,16.94-12.48,7.19-5.87,14.55-12.54,20.42-19.73,1.86-2.27,6.69-8.04,7.62-10.38.59-1.49-1.49-1.1-2.4-1.01-5.37.49-12.26,3.42-17.23,5.62-4.09,1.82-17.31,10-20.29,10.1-2.76.1-4.03-3.51-2.9-5.26.49-.77,6.53-1.03,6.13-3.55.2-.07.49.07.69,0,1.71-.59,4.02-1.12,4.85-2.77.2-.08.49.07.69,0,1.56-.57,4.06-1.44,4.85-2.77.2-.08.5.08.69,0,3.46-1.51,8.46-4.35,11.4-6.94.59-.52,3.95-3.44,3.13-4.13-2.83-.22-5.52.93-8.08,1.95-6.78,2.68-22.38,14.37-28.81,12.44-1.7-.51-2.76-3.07-1.18-4.36.92-.76,5.02-1.48,6.71-2.29,3.27-1.57,6.3-4.38,9.29-5.94,3.7-1.94,8.59-3.54,12.43-5.6.97-.52,1.7.05,1.35-1.73-2.43-1.92-29.94,12.99-34.27,14.98-.65,0-2.1-.91-2.47-1.43-1.84-2.59,2.05-15.1-1.68-19.07-8.57,5.49-6.59,17.03-8.81,25.1-1.2,4.38-19.17,14.91-23.86,17.67-8.79,5.17-18.07,9.7-27.1,14.43-1.31.68-4.47,1.41-4.26,3.01-.19.08-.5-.08-.69,0-5.63,2.45-11.57,5.7-17.31,7.96-2.92,1.15-6.05,2.38-8.63-.37-1.16-1.25-3.14-7.04-3.14-8.62v-11.42c-2.47.13-4.38,1.94-6.77,2.58-14.19,3.81-28.9-5.43-37.52-16.09-1.57-1.95-5.83-7.12-2.79-9.01,3.45-2.14,6.44,4.31,8.29,6.28,9.95,10.51,20.61,17.6,35.47,11.2,3.34-1.44,13.84-8.91,14.99-12.04.67-1.85-.69-1.38-1.25-2.13-3.54-4.74-6.85-7.95-8.87-13.83-11.15-32.51,22.24-50.54,17.66-79.97-.58-3.71-3.11-10.45-7.63-10.06-6,.52-14.75,8.82-17.82,13.7-2.27,1.83-4.54,3.85-6.52,6.29-5.49,6.75-9.07,14.81-14.2,21.8-1.22,1.51-3.71,1.33-4.57-.4-1.36-2.71,4.81-10.32,6.26-13.13,4.75-9.2,8.97-21.02,11.07-31.16,1.06-5.13,3.41-10.37-3.81-8.31Z"/>
    <path class="st3" d="M233.43,208.2c3.18-.27,10.13,15.83,3.92,16.35-3.97.34-3.26-4.74-4.03-6.78-.89-2.36-5.88-9.06.11-9.57Z"/>
    <path class="st3" d="M245.91,207.5c4.14-1.15,4.41,6.1,5.23,9.06.55,2,3.76,5.51,0,6.64-5.84,1.76-9.26-14.59-5.24-15.7Z"/>
  </g>
  <g>
    <path class="st3" d="M49.13,22.06c23.1-2.35,40.1,20.96,29.21,42.01-10.62,20.53-40.96,20.45-51.22-.33-8.63-17.48,2.35-39.68,22.01-41.68ZM49.46,26.44c-29.51,3.16-26.93,49.77,3.94,48.74,33.11-1.11,30.82-52.46-3.94-48.74Z"/>
    <path class="st3" d="M40.18,56.73c2.07-2.07,3.97,1.56,5.13,2.62,4.31,3.95,10.57,3.94,15,.16,1.57-1.34,2.52-4.24,5.05-3.03,3.48,1.67-2.62,6.83-4.28,7.85-5.56,3.42-12.61,3.08-17.78-.95-1.49-1.17-5.06-4.72-3.13-6.65Z"/>
    <path class="st3" d="M61.58,40.91c2.89-.41,6.12.67,7.77,3.17,1.12,1.69,2,5.22-.82,5.5-3.25.33-1.58-3.45-4.5-4.21-5.12-1.34-3.08,4.42-6.22,4.21-4.51-.29-1.6-7.9,3.77-8.66Z"/>
    <path class="st3" d="M41.36,40.9c3.2-.51,6.41.72,8.05,3.58,1.03,1.79,1.35,4.57-1.21,4.97-3.11.48-1.46-5.38-6.42-4.08-2.77.73-1.29,3.18-3.11,3.96-1.79.77-3.34-.75-3.26-2.58.13-2.75,3.37-5.43,5.96-5.84Z"/>
  </g>
  <g>
    <text class="st4" transform="translate(103.33 594.79)"><tspan x="0" y="0">INOCENTE</tspan></text>
    <text class="st2" transform="translate(36.03 581.68)"><tspan x="0" y="0">EL</tspan></text>
    <rect class="st3" x="59.1" y="571.03" width="4.36" height="43.14" transform="translate(653.89 531.32) rotate(90)"/>
  </g>
</svg>