<?xml version="1.0" encoding="UTF-8"?>
<svg id="Capa_1" xmlns="http://www.w3.org/2000/svg" version="1.1" viewBox="0 0 442.43 630.3">
  <!-- Generator: Adobe Illustrator 30.0.0, SVG Export Plug-In . SVG Version: 2.1.1 Build 123)  -->
  <defs>
    <style>
      .st0 {
        fill: #fff;
      }

      .st1 {
        font-size: 16.67px;
        letter-spacing: .04em;
      }

      .st1, .st2 {
        font-family: Gabarito-Regular, Gabarito;
      }

      .st1, .st2, .st3, .st4, .st5 {
        fill: #1d0981;
      }

      .st2 {
        font-size: 64.33px;
        letter-spacing: .04em;
      }

      .st6 {
        fill: none;
        stroke: #1d0981;
        stroke-miterlimit: 10;
        stroke-width: 5px;
      }

      .st7 {
        fill: #e9d04f;
      }

      .st4 {
        font-size: 88.74px;
        letter-spacing: .04em;
      }

      .st4, .st5 {
        font-family: Gabarito-Bold, Gabarito;
        font-weight: 700;
      }

      .st5 {
        font-size: 18.39px;
        letter-spacing: .04em;
      }
    </style>
  </defs>
  <rect class="st7" y="0" width="442.43" height="630.3" rx="30" ry="30"/>
  <path class="st0" d="M414.27,280.77c6,1.2,6.4,10.45,2.15,14.03,14.89,9.13-4.97,20.6-12.88,25.62-40.39,25.62-88.33,36.32-135.66,40.2l-1.11.8c-.84,6.94-2.38,13.86-2.93,20.84-.62,7.93-1.09,25.12,4.35,31.29,5.05,5.73,17.15,1.04,23.06-1.51,6.89-2.96,13.89-7.07,20.09-11.28,1.26-.4,2.88-.4,4.02.31l37.94,64.24c1.75,6.92-4.8,5.69-9.31,5.03-12.47-1.81-22.73-8.48-32.37-16.09-22.35,12.07-46.82,20.35-72.27,12.83-25.11-7.42-39.65-29.16-43.99-54.15-18.41-2.35-44.33.15-47.9,22.6-1.29,8.09.16,18.75,1.5,26.89.92,5.63,2.42,11.18,3.65,16.75-.36,1.69-1.65,3.34-3.52,3.14H51.6c-4.03.09-5.48-5.17-2.09-7.37,12.59-6.73,25.13-13.56,37.42-20.8.17-1.6.18-3.28.1-4.89-1-20.19-2.15-38.49,7.53-57.12,11.12-21.41,31.55-24.92,53.73-26.84l4.34-18c-32.03-4.18-62.41-16.09-90.06-32.33-.38-.02-.69,1.69-.73,2.14-.42,5.08-.32,10.67-.95,15.68-.55,4.36-1.89,6.48-6.78,5.37-4.01-.91-2.78-5.25-2.72-7.74.21-8.32.77-16.65,1.43-24.95-8.24.25-29.77-9.02-23.04-19.94.7-1.13,4.34-3.74,4.39-4.04.27-1.78-2.4-3.75-.45-8.19,1.73-3.95,6.27-4.83,6.66-5.45s-.07-3.68.11-4.88c.93-6.09,11.67-7.91,16.6-6.45l4.28-50.38c-4.05.51-13.59,9.83-17.12,5.48-2.04-2.51.57-5.94,1.45-8.56,1.47-4.38,3.05-8.74,4.2-13.22-2.5-3.4-14.38-12.06-14.7-15.78-.22-2.54,1.06-3.98,3.61-4.08,3.45-.13,8.7.86,12.33,1,2.26.09,4.58-.02,6.83-.1l7.26-17.22c2.21-2.42,5.14-2.02,6.7.8,1.46,2.65,4.59,17.01,5.6,17.69,4.37,1.77,16.64.43,20,2.81,1.87,1.33,1.85,3.5.45,5.27-2.66,3.37-10.08,7.35-13.54,10.7-.57.55-1.27.98-1.6,1.76-.22.56-.04,1.1.02,1.66.53,4.66,4.12,12.16,4.14,16.36,0,1.58-1.16,3.08-2.69,3.41-3.59.78-9.88-5.35-12.96-7.28l-.89.54-3.87,43.91c10.53.04,15.86,12.32,21.88,19.23,11.05,12.69,36.15,21.27,52.17,25.78,10.94,3.08,22.1,5.66,33.37,7.26-1.62-6.64-3.81-13.32-4.27-20.2-1.07-16.09,4.85-34.1,13.11-47.72,1.28-2.12,9.11-12.32,9.24-13.11.16-.92-.23-.61-.62-.83-7.45-4.36-13.08-10.5-8.62-19.8,6.02-12.52,28.1-10.19,39.19-7.38,21.73-16.91,55.65-44.87,84.84-42.59,19.16,1.5,41.84,34.4,45.16,51.8.69,3.64-.29,6.98-4.66,6.1-2.85-.57-10.61-5.44-13.96-6.96-6.45-2.92-13.42-6.15-20.55-6.67l-15.26,40.64c-.06,1.57,2.28,2.98,3.31,4.23,6.36,7.72,14.11,18.7,7.82,28.7-5.91,9.4-17.73,6.78-25.86,1.94l-15.22,38.02c20.11-.81,41.59-2.8,60.48-10.1,4.1-1.58,10.17-4.19,13.62-6.81,5.63-4.27,13.33-17.43,20.29-18.25,4.48-.52,7.64,3.64,9.51,7.08,6.17-2.73,12.31-5.86,18.84-7.69,7.33-2.06,17.67-4.59,16.52,6.78,2.19.3,5.33-.41,7.37,0Z"/>
  <text class="st5" transform="translate(103.17 50.76)"><tspan x="0" y="0">TRANSFORMACIÓN</tspan></text>
  <g>
    <g>
      <text class="st4" transform="translate(132.54 599.39)"><tspan x="0" y="0">MAGO</tspan></text>
      <text class="st2" transform="translate(32.09 580.08)"><tspan x="0" y="0">EL</tspan></text>
    </g>
    <rect class="st3" x="66.1" y="564.38" width="6.43" height="63.59" transform="translate(665.49 526.87) rotate(90)"/>
  </g>
  <path class="st3" d="M53.26,45.12c-.26-4.16-1.89-10.92-5.41-13.48-1.16-.84-3.66-1.17-2.61-3.58,1.98-4.54,9.35,3.62,9.61,6.26l3.01-4.44c1.28-1.58,5.61-4.89,6.98-1.9,1.27,2.77-2.11,3.13-3.5,4.42-2.91,2.7-4.25,8.23-3.95,12.08,5.03-5.01,10.12-10.66,16.21-14.41,3.69-2.28,10.24-5.51,14.24-2.55,3.32,2.47.66,6.3-.02,9.46-1.12,5.16.48,10.24-2.36,14.78-1.32,2.1-3.34,3.53-5.85,3.84,5.65,6.77,3.62,14.89-3.39,19.62-1.43.96-5.29,2.93-6.92,2.93-3.77,0-9.5-7.38-11.27-10.48-.9-.23-.53.54-.93,1.11-1.13,1.6-4.01.88-3.83-1.23l-.62-.2c-1.72,2.73-4.12,5.76-6.5,7.94-4.15,3.79-5.84,3.58-10.62.76-7.76-4.59-10.94-12.92-4.79-20.44-4.03-.08-7.24-4.74-7.61-8.42-.21-2.11.14-4.45-.04-6.62-.29-3.31-2.76-8.25-2.11-11.08.45-1.97,3.35-3.01,5.16-3.09,10.63-.48,20.29,12.03,27.15,18.74ZM25.01,30.52c.18,2.51,1.39,4.78,1.82,7.23,1.04,5.9-1.78,13.53,6.6,14.35,1.94.19,5.96-.82,6.69,1.58.93,3.04-3.27,2.73-4.96,3.64-7.95,4.29-1.4,15.64,5.84,16.6.76-.12,4.7-4.14,5.45-4.99,1.74-1.97,6.43-8.28,6.8-10.66.15-.95.18-6.13-.05-6.9-.11-.38-4.18-4.9-4.85-5.62-5.83-6.34-14.19-15.32-23.33-15.23ZM85.32,30.52c-.88.03-1.78-.08-2.66.03-6.58.83-16.55,10.63-20.99,15.51-.64.7-4.08,4.55-4.22,4.99-.23.78-.19,6.23-.04,7.22.47,3.1,8.8,14.65,11.65,15.35,2.12.52,6.69-2.91,7.96-4.59,2.54-3.39,2.45-9.3-1.62-11.6-1.89-1.06-5.69-.49-5.3-3.55.34-2.65,4.2-1.6,6.18-1.78,9.31-.83,6.08-8.1,7.24-14.66.42-2.34,1.42-4.57,1.81-6.92Z"/>
  <g>
    <path class="st3" d="M414.27,280.77c6,1.2,6.4,10.45,2.15,14.03,14.89,9.13-4.97,20.6-12.88,25.62-40.39,25.62-88.33,36.32-135.66,40.2l-1.11.8c-.84,6.94-2.38,13.86-2.93,20.84-.62,7.93-1.09,25.12,4.35,31.29,5.05,5.73,17.15,1.04,23.06-1.51,6.89-2.96,13.89-7.07,20.09-11.28,1.26-.4,2.88-.4,4.02.31l37.94,64.24c1.75,6.92-4.8,5.69-9.31,5.03-12.47-1.81-22.73-8.48-32.37-16.09-22.35,12.07-46.82,20.35-72.27,12.83-25.11-7.42-39.65-29.16-43.99-54.15-18.41-2.35-44.33.15-47.9,22.6-1.29,8.09.16,18.75,1.5,26.89.92,5.63,2.42,11.18,3.65,16.75-.36,1.69-1.65,3.34-3.52,3.14H51.6c-4.03.09-5.48-5.17-2.09-7.37,12.59-6.73,25.13-13.56,37.42-20.8.17-1.6.18-3.28.1-4.89-1-20.19-2.15-38.49,7.53-57.12,11.12-21.41,31.55-24.92,53.73-26.84l4.34-18c-32.03-4.18-62.41-16.09-90.06-32.33-.38-.02-.69,1.69-.73,2.14-.42,5.08-.32,10.67-.95,15.68-.55,4.36-1.89,6.48-6.78,5.37-4.01-.91-2.78-5.25-2.72-7.74.21-8.32.77-16.65,1.43-24.95-8.24.25-29.77-9.02-23.04-19.94.7-1.13,4.34-3.74,4.39-4.04.27-1.78-2.4-3.75-.45-8.19,1.73-3.95,6.27-4.83,6.66-5.45s-.07-3.68.11-4.88c.93-6.09,11.67-7.91,16.6-6.45l4.28-50.38c-4.05.51-13.59,9.83-17.12,5.48-2.04-2.51.57-5.94,1.45-8.56,1.47-4.38,3.05-8.74,4.2-13.22-2.5-3.4-14.38-12.06-14.7-15.78-.22-2.54,1.06-3.98,3.61-4.08,3.45-.13,8.7.86,12.33,1,2.26.09,4.58-.02,6.83-.1l7.26-17.22c2.21-2.42,5.14-2.02,6.7.8,1.46,2.65,4.59,17.01,5.6,17.69,4.37,1.77,16.64.43,20,2.81,1.87,1.33,1.85,3.5.45,5.27-2.66,3.37-10.08,7.35-13.54,10.7-.57.55-1.27.98-1.6,1.76-.22.56-.04,1.1.02,1.66.53,4.66,4.12,12.16,4.14,16.36,0,1.58-1.16,3.08-2.69,3.41-3.59.78-9.88-5.35-12.96-7.28l-.89.54-3.87,43.91c10.53.04,15.86,12.32,21.88,19.23,11.05,12.69,36.15,21.27,52.17,25.78,10.94,3.08,22.1,5.66,33.37,7.26-1.62-6.64-3.81-13.32-4.27-20.2-1.07-16.09,4.85-34.1,13.11-47.72,1.28-2.12,9.11-12.32,9.24-13.11.16-.92-.23-.61-.62-.83-7.45-4.36-13.08-10.5-8.62-19.8,6.02-12.52,28.1-10.19,39.19-7.38,21.73-16.91,55.65-44.87,84.84-42.59,19.16,1.5,41.84,34.4,45.16,51.8.69,3.64-.29,6.98-4.66,6.1-2.85-.57-10.61-5.44-13.96-6.96-6.45-2.92-13.42-6.15-20.55-6.67l-15.26,40.64c-.06,1.57,2.28,2.98,3.31,4.23,6.36,7.72,14.11,18.7,7.82,28.7-5.91,9.4-17.73,6.78-25.86,1.94l-15.22,38.02c20.11-.81,41.59-2.8,60.48-10.1,4.1-1.58,10.17-4.19,13.62-6.81,5.63-4.27,13.33-17.43,20.29-18.25,4.48-.52,7.64,3.64,9.51,7.08,6.17-2.73,12.31-5.86,18.84-7.69,7.33-2.06,17.67-4.59,16.52,6.78,2.19.3,5.33-.41,7.37,0ZM343.22,199.96c-5.25-13.25-17.75-35.37-32.06-39.94-15.85-5.07-40.95,8.7-54.22,17.13-9.36,5.94-18.34,12.63-26.83,19.73,22.09,8.72,43.43,19.95,61.54,35.4l17.82-46.81c5.76-2.09,4.55,3.22,5.27,4.01.2.22,4.7.82,5.77,1.12,7.94,2.21,15.22,6.05,22.71,9.37ZM68.49,164.8c-.72-.73-.82.25-1.06.61-1.64,2.52-4.03,11.12-5.88,12.17-2.83,1.59-12.91-.44-13.49.06,1.15,3.86,8.67,8.04,9.02,11.69.23,2.34-4.77,12.88-4.27,13.5,3.22-1.2,10.47-7.15,13.54-7.16,2.19,0,11.14,7.71,11.64,7.16-.18-3.63-3.3-9.55-2.27-12.97.48-1.6,8.39-7.12,10.22-8.75.32-.28.92.03.61-1.08-3.16-.43-11.97-.21-14.04-2.36-1.71-1.77-3.42-12.25-4.02-12.85ZM200.05,199.15c-7.64.91-17.3,7.07-9.18,14.61,5.72,5.31,32.83,12.98,42.06,16.88,14.67,6.19,28.91,14.21,41.12,24.47,5.12,4.3,9.77,10.23,16.09,12.91,7.27,3.08,15.1,1.51,14.05-7.88-1.39-12.47-24.1-29.15-34.21-35.66-17.51-11.27-48.85-27.86-69.93-25.34ZM62.8,475.64h81.75c-3.59-22.61-11.64-49.78,12.22-64.06,6.44-3.86,14.76-5.8,22.24-6.27,3.79-.24,18.31-.23,20.92,1.88,1.59,1.28,3.49,11.36,4.37,14.16,15.57,49.45,61.58,49.01,101.37,28.4,2.71-1.4,4.8-4.16,8.06-2.85,8.44,7.74,18.35,14.67,29.95,16.38l-31.37-54.65c-11.66,6.25-34.56,20.76-47.2,11.32-9.74-7.27-8.88-28.3-7.92-39.13.5-5.69,1.92-19.44,3.69-24.35.19-.53.66-1.43,1.08-1.77,1.48-1.24,8.37-.98,10.67-1.21,44.31-4.5,99.96-16.68,135.86-44.28,2.54-1.95,6.51-4.44,6.02-8-5.04-.08-10.18,1.68-14.86,3.44-4.54,1.71-13.23,6.83-17.35,7.4-4.24.59-5.51-3.97-2.18-6.01,3.89-2.38,11.17-4.5,15.7-6.64,3.6-1.7,14.5-6.8,16.25-9.89.38-.67.66-1.27.54-2.07-5.77-.61-10.82,1.64-16,3.72-4.79,1.92-12.93,6.94-17.26,7.93-4.83,1.1-7.35-2.41-3.57-5.47,4.67-3.78,15.06-6.55,20.82-10.55,1.23-.85,6.21-4.56,2-4.18-3.68.33-8.38,2.05-11.9,3.31-2.1.75-13.42,5.31-14.37,6.3-.51.54-2.33,6.61-3.04,8.13-.91,1.97-4.21,8.47-5.42,9.79-1.42,1.53-4.66,1.53-5.56-.58-1.12-2.61,3.29-8.29,4.48-10.95,1.47-3.28,3.23-8,1.85-11.53-.29-.73-1.2-2.1-2.08-2.03-3.23.29-9.63,9.71-11.96,12.29-15.62,17.2-57.59,21.82-79.85,22.81-3.62.16-12.83,2.72-11.55-3.93,3.63-9.38,7.97-18.45,11.66-27.8,1.68-4.25,5.38-12.21,6.11-16.27.33-1.8-2.69-4.18-4.09-5.48-20.11-18.69-48.09-28.6-73.53-37.69-2.36-.03-11.34,14.38-12.75,17.01-8.16,15.2-12.72,33.4-8.65,50.49,1.04,4.38,4.58,11,5.07,14.43.9,6.28-8.18,3.52-11.95,2.9-23.98-3.9-64.27-14.44-82.84-30.28-5.31-4.53-8.17-10.79-12.62-15.89-2.82-3.23-8.4-9.45-11.8-3.28-3,5.44.51,10.92,3.75,15.13,1.93,2.5,5.98,5.72,7.33,7.88,1.2,1.92,1.3,4.72-1.15,5.47-2.3.71-3.38-1.35-5.72.22.22,1.34,1.25,1.79,1.78,3.21,1.22,3.32.61,5.88-1.77,8.44-1.85,1.99-8.01,4-4.53,6.88,5.33,4.42,19.9,11.04,26.68,14.19,17.32,8.03,44.27,17.65,63.24,19.03,2.46.18,1.45-1.27,3.3-2.26,2.54-1.36,4.69.43,4.96,3.04l-7.49,27.23c-1.59,3.92-3.32,2.62-6.56,2.95-37.81,3.85-53.26,15.94-54.92,55.82-.41,9.8,1.33,19.51,1.2,29.24l-31.12,18.55ZM55.67,262.7c-13.56-.67-9.89,5.65.47,6.65l-.47-6.65ZM39.66,275.21c-2.22,2.57,3.9,5.3,5.78,6.05,2.29.91,4.96,1.58,7.37,2.13,1.83.42,12.36,2.76,12.84.46-1.52-1.69-4.73-7.02-6.63-7.62-2.61-.83-14.85-2.5-17.35-2.09-.52.09-1.68.68-2.01,1.07ZM39.4,287.06c-6.03.65-4.45,3.97-.82,6.75,5.3,4.05,16.43,7.4,22.64,4.17,4.86-2.53,1.87-5.08-1.77-6.5-2.64-1.03-17.81-4.66-20.05-4.41Z"/>
    <path class="st3" d="M115.19,175.14c-.67-.65-.85-3.36-.35-4.18.18-.3,4.86-2.23,6.2-3.3.71-.57,2.31-2.17,2.81-2.9,1.87-2.74,1.28-7.45,5.72-6.62,2.15.4,2.97,5.41,4.77,7.6,2.09,2.54,7.46,4,7.84,5.95.69,3.64-1.42,2.87-3.47,4.11-2.27,1.37-4.62,3.61-5.93,5.95-1.41,2.52-1.34,6.49-5.34,5.17-1.59-.52-2.59-4.37-3.86-6.13-.7-.98-2.54-2.97-3.49-3.64-1.48-1.05-4.41-1.56-4.88-2.01Z"/>
    <path class="st3" d="M115.24,218.67c-1.92,2.06-1.64,5.91-5.05,5.45-1.86-.25-2.73-4.79-4.6-6.34-1.53-1.27-4.71-1.49-5.15-2.93-1.34-4.36,3.41-4.23,5.61-6.57,2.02-2.15,1.32-5.76,5-5.5,2.45.17,2.52,2.65,3.78,4.33,1.4,1.87,6.08,4.22,6.34,5.07,1.38,4.48-3.58,3.97-5.92,6.49Z"/>
    <path class="st3" d="M187.67,275.15c4.48-.93,4.31,4.9,6.21,7.85,5.23,8.12,16.02,7.13,23.06,1.96,2.28-1.67,4.24-5.63,7.32-4.31,4.79,2.04.64,6.42-1.77,8.44-10.07,8.47-26.08,9.99-33.95-2.18-1.59-2.46-5.78-10.75-.88-11.76Z"/>
    <path class="st3" d="M202.4,248.1c.49.49,1.06,2.09,1,2.84-.07.88-3.88,10.76-4.47,11.73-1.8,2.99-6.99,2.13-6.34-3.01.4-3.15,5.28-16.08,9.81-11.55Z"/>
    <path class="st3" d="M210.28,265.9c-1.7-2.1,2.14-13.04,3.99-14.15,2.71-1.63,5.57.53,5.39,3.58-.09,1.66-3.29,10.49-4.5,11.21-1.37.81-3.88.6-4.88-.64Z"/>
  </g>
  <g>
    <text class="st1" transform="translate(343.03 40.82)"><tspan x="0" y="0">CAMBIO</tspan><tspan x="0" y="14.63">Y RIESGO</tspan></text>
    <circle class="st6" cx="323.37" cy="37.02" r="8.03"/>
    <line class="st6" x1="317.69" y1="42.7" x2="308.15" y2="52.24"/>
  </g>
</svg>