<?xml version="1.0" encoding="UTF-8"?>
<svg id="Capa_1" xmlns="http://www.w3.org/2000/svg" version="1.1" viewBox="0 0 442.43 630.3">
  <!-- Generator: Adobe Illustrator 30.0.0, SVG Export Plug-In . SVG Version: 2.1.1 Build 123)  -->
  <defs>
    <style>
      .st0 {
        fill: #41af59;
      }

      .st1 {
        fill: #fff;
      }

      .st2 {
        font-size: 16.67px;
        letter-spacing: .04em;
      }

      .st2, .st3, .st4, .st5, .st6 {
        fill: #1d0981;
      }

      .st2, .st5 {
        font-family: Gabarito-Regular, Gabarito;
      }

      .st7 {
        fill: none;
        stroke: #1d0981;
        stroke-miterlimit: 10;
        stroke-width: 5px;
      }

      .st3 {
        font-size: 38.8px;
        letter-spacing: .04em;
      }

      .st3, .st6 {
        font-family: Gabarito-Bold, Gabarito;
        font-weight: 700;
      }

      .st5 {
        font-size: 28.13px;
        letter-spacing: .04em;
      }

      .st6 {
        font-size: 18.39px;
        letter-spacing: .04em;
      }
    </style>
  </defs>
  <rect class="st0" y="0" width="442.43" height="630.3" rx="30" ry="30"/>
  <text class="st6" transform="translate(103.17 50.76)"><tspan x="0" y="0">PERTENECER</tspan></text>
  <g>
    <text class="st2" transform="translate(314.34 40.82)"><tspan x="0" y="0">ESTABILIDAD</tspan><tspan x="0" y="14.63">&amp; CONTROL</tspan></text>
    <circle class="st7" cx="294.67" cy="37.02" r="8.03"/>
    <line class="st7" x1="288.99" y1="42.7" x2="279.45" y2="52.24"/>
  </g>
  <g>
    <path class="st4" d="M202.21,138.64c6.87-6.33,21.3-19.65,31.15-18.96,13.41.94,5.5,20.77,2.08,27.66,4.37-2.06,8.29-4.98,13.01-6.36,9.1-2.67,18.18-1.97,18.15,9.63-.04,15.98-18.51,30.45-23.48,46.75-2.95,9.69-1.84,19.14-2.94,29.1.73.74,9.53-2.32,11.51-2.41,2.68-.12,3.86,1.25,5.17,1.24.79,0,6.75-1.8,6.95-2.11-.27-9.77.02-17.66,3.69-26.78,10.26-25.56,37.47-37.12,63.51-28.72,27.27,8.79,36.63,40.35,28.2,65.93,17.74,7.88,30.63,23.74,22.52,43.79-.88,2.16-3.23,3.76-2.92,6.23,5.91,13.7,11.23,27.69,14.83,42.2,3.68,14.86,6.89,32.49,9.32,47.65,1.4,8.69,3.67,23.74-1.34,31.43-1.9,2.91-5.13,3.8-7.08,5.58-1.6,1.46-2.16,3.94-4.04,5.45-3.9,3.13-9.57.97-13.46,4.91l6.58,52.68,1.4,3.35c9.11,4.47,31.89,17.28,31.71,28.52-.09,5.85-5.23,6.73-10.07,7.4-18.35,2.55-56.49,1.38-75.01-1.55-1.69-.27-4.37-1.14-5.63-2.28l-21.34-106.85-19.41,82.76.14,1.8c14,4.81,22.4,27.85,3.25,31.56-15.2,2.94-64.5.81-79.14-4.32-11-3.86-5.75-16.72-7.28-25.17-.26-1.41-2.47-2.35-3.47-4.39-1.61-3.28-2.39-7.8-2.1-11.43.92-11.66-3.88-29.13-6.99-41.22-1.26-4.89-3.21-9.65-4.45-14.54l-13.68,50.48c.92,7.32,1.83,18.2-6.54,21.23-.07,5.3.99,19.96-3.14,23.62-2.74,2.43-19.67,4.5-24.22,5.05-15.9,1.91-45.5,4.32-60.62.7-6.94-1.66-9.9-5.49-9.78-12.73.27-16.74,22.76-20.98,34.13-28.18-.84-4.61-.29-10.75,1.55-15.09,1.25-2.94,3.4-1.93,4.22-3.69,1.84-3.93,2.6-21.7,3.42-27.44,2.7-18.88,6.13-37.92,8.27-56.72-4.69-1.33-4.58-4.02-4.46-8.31l7.16-49.42c-1.44-1.4-10.81,6.51-15.04,4.37-1.16-.59-1.95-3.43-2.75-3.5-.57-.05-8.29,3.75-10.67,4.3-29.49,6.71-39.85-18.32-44.76-42.33-.86-4.18-.61-9.85-1.68-13.35-.82-2.68-4.65-5.6-6.23-8.8-2-4.06-1.97-7.8-3.36-11.67-2.6-7.23-17.32-22.4-8.49-29.52,6.07-4.89,11.63,3.18,12.27,2.39-1.26-5.21-3.83-15.01,2.17-18.01,7.89-3.95,10.7,5.5,14.45,10.1-.1-5.08.93-13.23,7.54-13.51,10.94-.46,10.71,22.74,12.26,30.12,4.27-4.08,10.56-10.45,16.66-5.19,7.42,6.4-1.84,15.47-4.68,21.53-2.02,4.3-2.83,9.2-5.35,13.34,2.48,4.37,3.43,11.08,5.87,15.19.64,1.08.96,2.12,2.53,1.82-1.51-5.85,10.61-8.31,12.28-11.06.64-1.05.6-7.35,1.59-10.28,3.83-11.32,18.54-17.89,29.65-19.02-10.01-38.04,9.89-80.39,38.76-104.85,15.42-13.06,36.54-20.41,27.71,9.9ZM198.14,122.93c-3.26-2.05-14.8,5.66-17.67,7.82-40.72,30.62-64.72,105.99-10.44,136.21,14.18,7.9,39.35,13.28,45.63-6.46-4.94,1.62-9.54,4.73-15.03,3.95-.82-5.51,7.64-6.14,11.91-8.27,9.81-4.89,17.93-13.36,21.1-24,3.48-11.67.53-24.18,4.14-36.22,4.45-14.85,24-32.71,23.8-45.87-.11-7.19-8.44-4.77-12.86-3.32-3.98,1.31-9.31,4.56-12.74,7.04-2.11,1.52-16.06,15.72-12.82,3.8,2.58-9.49,15.11-19.61,12.18-31.51-1.02-.54-2.07-.83-3.24-.73-10.2.83-23.48,14.69-30.29,21.96-2.96,3.16-11.4,17.45-12.9,6.92,3.84-9.79,11.93-20.49,9.24-31.33ZM350.05,274.85c-2.3-1.5-7.78.67-9.19-6.23-1.26-6.14,1.96-8.11,2.16-11.73.09-1.73-1.12-2.84-.45-5.13.42-1.43,5.38-6.63,6.81-9.07,18.46-31.53,2.29-74.47-37.62-72.43-42.16,2.15-58.43,56.75-25.14,82.17,2.01,1.53,8.98,4.81,8.99,6.87-2.19,5.22-8.49-1.56-12.22-1.18-.87.09-12.63,5.05-13,5.66-.55.9.12,3.55-.14,5.01-.55,3.02-15.36,10.86-18.91,13.54-2.42,1.82-10.93,7.59-6.68,10.68,3.56,2.59,16.8.81,17.46,6.75l-9.96,49.06c-1.54,4.46,3.36,15.64-.43,18.57-1.17.91-3.94.51-4.32,1.96,3.1,18.68,5.93,37.47,8.5,56.24.61,4.47,2.84,30.33,4.26,31.76,1.71,1.72,2.37-.64,3.99,4.29,1.65,5.04,1.06,9.75,1.77,14.87.5.83,10.9,6.45,12.23,6.79.97.24,1.29.68,2.02-.44,2.76-10.98,4.55-22.23,7.11-33.25,4.1-17.7,8.38-40.31,14.08-57.13.94-2.78,2.72-6.48,5.67-2.97,1.84,2.19,4.84,17.95,5.72,21.98,6.73,30.9,10.9,62.34,17.04,93.34,22.11,3.27,46.67,4.63,69.09,3.38,3.85-.22,8.32-1.16,12.19-1.65-.33-7.18-8.76-13.14-14.27-16.91-4.09-2.79-15.93-7.91-17.53-11.74l-7.77-57.11c-5.17-6.49-2.68-14.29-2.33-21.81-8.61,7.26-15.07,1.92-13.08-8.74,1.09-5.83,7.48-13.37,7.48-18.46,0-8.96-5.92-30.27-8.37-39.92-1.79-7.03-6.67-17.91-7.2-24.48-.32-3.98,3.01-4.45,4.63-2.02,1.23,1.84,4.04,11.78,4.9,14.68,3.19,10.78,12.5,45.88,10.52,55.25-.8,3.79-10.34,19.62-6.76,22.1,6.32.5,6.57-13.62,13.05-8.71,2.57,4.3-3.87,26.51.77,26.87,8.04-4.46,5.6-15.56,7.44-23.23l3.95-.37c1.7,6.46-1.11,13.23-1.96,19.62-.53,3.96,3.27-.37,3.97-1.57,2.97-5.06,2.32-18.41,3.97-19.81,5.39-4.56,3.61,10.85,3.61,12.75,2.1-1.07,2.91-4.52,3.16-6.72,1.37-12.27-4.12-37.29-6.71-50.27-4.09-20.53-9.5-40.13-17.86-59.3-3.33.43-6.74,1.61-10.05.18-2.09-.91-2.41-3.2-3.36-3.76-1.34-.79-3.41-.18-4.98-.56-4.95-1.18-5.61-7.23-6.22-7.63ZM66.78,202.86l-2.94-.02c-1.34.83-.97,14.44-.93,16.93.04,2.8,2.05,5.88-.51,8.36l-4.27-.6c-2.18-4.62-7.11-21.58-12.19-22.46-1.47-.23-1.01.18-1.39,1.02-2.27,4.98,4.87,18.46,5.61,24.14.27,2.04-.36,3.93-2.62,4.1-4.09.3-9.94-15.25-16.23-14.2-1.45,8.42,7.06,14.94,9.9,21.35,2.54,5.73,1.51,10.83,5.96,16.8.85,1.14,3.78,2.99,4.19,3.98,1.14,2.75,1.52,12.53,2.34,16.59,2.33,11.64,8.52,32.44,20.58,37.18,9.38,3.69,22.03.21,30.52-4.56-1.81-11.46-3.44-23.59-9.77-33.5-2.23,1.16-4.75,3.52-7.13,1.49-1.46-1.24-9.45-20.62-9.51-22.85,2.99-5.26,4.25-11.73,6.82-17,1.51-3.08,7.28-9.16,6.17-12.64-6.07-5.17-9.72,5.9-12.97,8.22-1.79,1.28-4.29,1.33-6.24,2.47-4.21,2.45-5.78,6.95-6.78,11.42-3.75,1.28-4.25-.68-4.04-4,.37-5.91,6.08-10.7,11.16-12.77-1.71-9.88-.84-20.39-5.72-29.45ZM242.57,282.65l21-14.2c2.39-2.35.64-6.79.11-9.69-1.92-10.36-5.47-21.4-12-29.67l-12.9,3.88c-1.3,6.48-5.2,12.81-9.65,17.65-1.93,2.1-5.41,3.76-6.69,5.97-2.26,3.91-1.36,7.8-4.88,12.53-8.47,11.36-24.68,11.64-37.16,8.02-11.92-3.46-22.94-12-31.62-20.6l-.57,7.33c-.86,3.12-3.46,6.13-6.73,6.75-1.9.36-4.11-.53-4.99-.21-1.24.45-2.54,3.54-5.26,4.15-2.87.64-5.01-.61-6.87-.41-1.56.18-2.93,2.14-4.41,2.6-5.38,1.71-11.67-3.95-12.7-9.15l-7.91,5.9c6.11,13.06,10.29,27.08,11.09,41.58.42.49,10.3-4.68,11.61-5.4,2.8-1.52,11.68-7.94,14-7.19,7.02,2.26-9.33,9.33-9.62,11.57-.85,18.22-4.27,36.11-6.95,54.07,2.06,2.67,41.64,4.03,47.57,3.96,16.01-.2,33.1-1.42,49.02-3.21,10.73-1.2,21.46-3.31,32-5.59-4.09-28.85-9.45-57.8-10.23-86.98,4.37-.83,4.59,2.94,4.75,6.33ZM265.43,228.92l-6.28,1.14c5.16,8.51,6.71,17.63,9.5,26.9.3.99-.59,1.32,1.17,1.14,3.23-.34,6.91-3.1,9.92-4.32-7.15-6.52-12.3-15.31-14.31-24.85ZM137.99,239.26c-15.05-.07-33.66,11.17-25.6,28.37,1.47,3.14,4.42,5.77,7.51,2.76-3.28-2.29-6.28-15.45-1.86-16.18,3-.5,2.74,6.13,3.42,8.31,1.26,4.07,5.62,10.05,9.97,5.9,1.53-2.81-1.43-4.03-2.41-6.33-.99-2.33-3.66-11.63-.7-12.61,4.42-1.45,3.54,5.87,4.91,9.19,1.43,3.48,7.29,10.27,10.04,4.17,1.77-3.92-2.31-7.45-2.74-10.72-.29-2.19.68-4.02.43-5.91-.29-2.18-2.39-4.7-2.94-6.95ZM369.19,262.11c6.59-1.22,3.38,7.37,1.69,10.79-1.25,2.52-5.68,5.97-4.53,8.17,2.15,4.12,7.23-.31,9-2.9,10.2-14.89-2.53-35.99-18.78-38.97-.26,3.34-4.64,7.74-5.3,10.22-.47,1.76.64,3,.17,4.77-1.03,3.89-10.82,11.93-3.22,15.86,5.19.81,10.97-10.48,11.52-14.99,5.68-.96,4.04,4.24,2.68,7.82-1.46,3.86-10.05,11.1-5.96,13.9,5.35,3.66,13.31-9.92,12.73-14.65ZM255.93,300.92l-10.99-2.44,3.96,36.39,7.04-33.95ZM241.73,370.5l-11.83,2.77c1.93,6.54,7.64,11.69,14.24,13.03l-2.41-15.8ZM224.29,373.71l-23.68,2.31c1.4,8.24-1.55,20.15-11.12,21.84l-.74,7.43c1.08.85,12.77-6.55,14.16-1.03.61,2.41-2.73,3.98-4.66,4.23l13.46,56.95,42.54-8.28-8.63-64.42c-10.24-1.4-19.03-8.76-21.33-19.02ZM141.27,376.81l-16.61-1.59-2.37,15.83c8.42-.22,17.07-5.66,18.98-14.23ZM190.33,376.02v15.03c5.59-3.3,4.9-9.39,4.75-15.04h-4.75ZM184,376.81l-35.87.92c-2.68,3.58-3.76,7.8-6.98,11.22-5.21,5.53-12.82,8.72-20.45,8.44l-7.92,62.11,53.02,8.32c3.6-15.94,7.85-31.76,12.27-47.48,2.18-7.73,5.93-14.37,5.93-22.55v-20.97ZM206.16,466.19l-13.04-56.14-3.49,1.95,13.37,55.01,3.16-.81ZM259.17,463.05l-57.01,10.81,2.11,8.24,55.18-8.72-.28-10.33ZM164.91,482.73l1.35-8.66c-16.64-2.96-33.89-6.57-50.8-8.55-1.19-.14-7.64-.78-8.11,0l-.81,8.52,58.36,8.68ZM259.17,478.89l-51.06,8.68c-.98,5.5-3.91,9.98,2.77,11.52,16.68,3.85,34.7,4.43,51.73,5.96l6.86-11.51,6.32-5.93c-3.83-1.78-7.88,1.45-11.01,3.62-1.84,1.28-4.45,5.63-6.96,4.51-6.14-2.75,5.94-11.05,9.26-11.32.32-1.88-.31-1.82-1.93-1.54-1.91.33-5.74,2.49-7.49,3.59-2.42,1.52-5.85,5.8-8.28,5.02-4.57-5.17,6.97-9.16,9.79-12.59ZM159.37,498.55l-.63-10.63-49.11-7.46,8.61,6.81c1.43,2,1.01,3.85-1.21,4.93-3.27-.65-4.87-3.74-7.64-5.58-1.37-.9-7.62-4.47-8.86-3.01-1.45,1.71-.04,1.19.72,1.66,1.81,1.1,15.41,8.94,7.83,10.92-2.17.57-13.81-12.69-18.43-7.43,6.44,3.5,11.33,9.07,13.14,16.27,18.68-.61,37.34-2.6,55.59-6.49ZM98.54,504.99c-.96-4.82-8.66-12.54-13.35-13.05-3.59-.39-11.53,6.62-11.98,10.28-.23,1.78.29.94,1.2,1.17,7.51,1.93,16.41,1.5,24.13,1.6ZM268.67,504.99c2.81.33,25.13-.52,25.28-2.75-.69-4.27-8.09-11.06-12.14-10.69-4.24.38-13.23,8.71-13.14,13.45ZM159.47,504.2c-24.39,3.86-50.16,7.46-74.76,5.52-3.23-.25-7.1-1.54-10.28-1.6-2.66-.05-.36,3.11.92,3.84,2.34,1.32,14.63,2.39,18.02,2.55,16.18.78,41.55-1.27,57.56-4.22,4.32-.79,8.35-.66,8.54-6.09ZM293.98,508.16c-28.79,3.86-57.74.28-86.24-3.96-.26.23.75,3.37,1.22,3.92,1.56,1.83,19.23,3.61,22.92,3.99,15.18,1.56,34.63,2.74,49.74,1.48,3.9-.32,11.74-.77,12.36-5.43Z"/>
    <path class="st1" d="M350.05,274.85c.61.4,1.27,6.45,6.22,7.63,1.58.37,3.64-.23,4.98.56.95.56,1.27,2.86,3.36,3.76,3.31,1.44,6.72.26,10.05-.18,8.36,19.18,13.77,38.78,17.86,59.3,2.59,12.98,8.08,38,6.71,50.27-.25,2.2-1.06,5.65-3.16,6.72,0-1.9,1.78-17.31-3.61-12.75-1.65,1.4-1,14.75-3.97,19.81-.71,1.21-4.5,5.54-3.97,1.57.85-6.38,3.67-13.15,1.96-19.62l-3.95.37c-1.84,7.67.6,18.77-7.44,23.23-4.64-.36,1.8-22.57-.77-26.87-6.48-4.92-6.73,9.2-13.05,8.71-3.58-2.49,5.96-18.32,6.76-22.1,1.98-9.37-7.32-44.47-10.52-55.25-.86-2.9-3.68-12.84-4.9-14.68-1.62-2.43-4.95-1.96-4.63,2.02.53,6.57,5.42,17.45,7.2,24.48,2.45,9.65,8.38,30.95,8.37,39.92,0,5.09-6.39,12.63-7.48,18.46-1.98,10.67,4.47,16,13.08,8.74-.35,7.52-2.84,15.33,2.33,21.81l7.77,57.11c1.61,3.83,13.44,8.95,17.53,11.74,5.52,3.76,13.94,9.72,14.27,16.91-3.88.49-8.34,1.44-12.19,1.65-22.42,1.25-46.98-.11-69.09-3.38-6.14-31-10.31-62.44-17.04-93.34-.88-4.03-3.88-19.79-5.72-21.98-2.95-3.51-4.73.19-5.67,2.97-5.7,16.82-9.98,39.43-14.08,57.13-2.55,11.02-4.34,22.27-7.11,33.25-.73,1.12-1.06.69-2.02.44-1.32-.33-11.72-5.95-12.23-6.79-.7-5.12-.12-9.83-1.77-14.87-1.61-4.93-2.28-2.57-3.99-4.29-1.41-1.42-3.65-27.29-4.26-31.76-2.57-18.77-5.4-37.56-8.5-56.24.39-1.45,3.15-1.05,4.32-1.96,3.79-2.93-1.11-14.11.43-18.57l9.96-49.06c-.66-5.93-13.9-4.15-17.46-6.75-4.25-3.1,4.26-8.86,6.68-10.68,3.55-2.68,18.36-10.51,18.91-13.54.26-1.46-.41-4.11.14-5.01.37-.6,12.13-5.57,13-5.66,3.74-.38,10.04,6.4,12.22,1.18,0-2.06-6.98-5.34-8.99-6.87-33.29-25.43-17.02-80.02,25.14-82.17,39.92-2.04,56.09,40.9,37.62,72.43-1.43,2.45-6.39,7.64-6.81,9.07-.67,2.28.54,3.4.45,5.13-.2,3.62-3.42,5.59-2.16,11.73,1.41,6.9,6.89,4.73,9.19,6.23ZM289.14,214.49c7.15-19.46-8.98-17.52-3.9-.24l3.9.24ZM308.79,202.84c-3.11.88-3.5,9.84-2.54,12.56,4.52,7.57,11.14-15,2.54-12.56ZM320.66,225.8c-1.41.41-3.74,3.83-5.35,4.97-4.69,3.29-11.34,4.25-16.97,3.62-2.31-.26-11.28-4.7-9.81,1.03,1.22,4.74,15.8,4.86,19.74,4.14,4.28-.78,12.82-5.74,15.04-9.49,1.63-2.76.58-5.2-2.65-4.27Z"/>
    <path class="st1" d="M242.57,282.65c-.16-3.39-.38-7.16-4.75-6.33.78,29.18,6.14,58.13,10.23,86.98-10.54,2.28-21.27,4.39-32,5.59-15.92,1.79-33.01,3-49.02,3.21-5.93.08-45.51-1.29-47.57-3.96,2.68-17.96,6.09-35.85,6.95-54.07.29-2.24,16.65-9.31,9.62-11.57-2.32-.75-11.2,5.67-14,7.19-1.31.71-11.19,5.88-11.61,5.4-.8-14.5-4.98-28.51-11.09-41.58l7.91-5.9c1.03,5.2,7.32,10.86,12.7,9.15,1.48-.47,2.85-2.43,4.41-2.6,1.86-.21,4,1.05,6.87.41s4.03-3.71,5.26-4.15c.88-.32,3.09.57,4.99.21,3.28-.62,5.88-3.62,6.73-6.75l.57-7.33c8.68,8.6,19.71,17.15,31.62,20.6,12.47,3.62,28.69,3.34,37.16-8.02,3.52-4.73,2.62-8.62,4.88-12.53,1.28-2.21,4.75-3.87,6.69-5.97,4.45-4.84,8.34-11.17,9.65-17.65l12.9-3.88c6.53,8.27,10.08,19.31,12,29.67.54,2.89,2.29,7.33-.11,9.69l-21,14.2Z"/>
    <path class="st1" d="M198.14,122.93c2.7,10.83-5.39,21.53-9.24,31.33,1.5,10.53,9.94-3.76,12.9-6.92,6.81-7.28,20.09-21.13,30.29-21.96,1.17-.1,2.22.19,3.24.73,2.93,11.9-9.61,22.02-12.18,31.51-3.24,11.93,10.72-2.27,12.82-3.8,3.43-2.48,8.76-5.73,12.74-7.04,4.41-1.45,12.74-3.87,12.86,3.32.21,13.17-19.35,31.02-23.8,45.87-3.6,12.04-.65,24.55-4.14,36.22-3.18,10.64-11.29,19.11-21.1,24-4.27,2.13-12.73,2.76-11.91,8.27,5.49.78,10.09-2.33,15.03-3.95-6.28,19.74-31.45,14.36-45.63,6.46-54.27-30.22-30.27-105.59,10.44-136.21,2.87-2.16,14.41-9.88,17.67-7.82ZM195.68,200.55c-6.35-6.52-7.57,15.34-1.79,15.35,4.8,0,3.41-13.68,1.79-15.35ZM215.06,200.56c-1.65,1.71-1.49,11.7.18,14.06,5.63,5.66,7.37-12.42,2.78-14.7l-2.96.64ZM209.32,233.59h-14.64c-2.42,0-9.75-4.52-11.89-6.31-1.17-.98-5.88-8.09-7.4-3.47-1.79,5.44,11.07,12.38,15.3,13.76,5.21,1.7,18.77,4.04,18.62-3.99Z"/>
    <path class="st1" d="M184,376.81v20.97c0,8.18-3.76,14.82-5.93,22.55-4.43,15.72-8.68,31.54-12.27,47.48l-53.02-8.32,7.92-62.11c7.62.29,15.23-2.9,20.45-8.44,3.22-3.42,4.3-7.63,6.98-11.22l35.87-.92Z"/>
    <path class="st1" d="M224.29,373.71c2.3,10.26,11.09,17.62,21.33,19.02l8.63,64.42-42.54,8.28-13.46-56.95c1.93-.24,5.27-1.81,4.66-4.23-1.39-5.52-13.08,1.88-14.16,1.03l.74-7.43c9.58-1.69,12.52-13.6,11.12-21.84l23.68-2.31Z"/>
    <path class="st1" d="M66.78,202.86c4.89,9.05,4.01,19.57,5.72,29.45-5.09,2.07-10.79,6.86-11.16,12.77-.21,3.32.29,5.28,4.04,4,1-4.46,2.57-8.97,6.78-11.42,1.95-1.13,4.45-1.19,6.24-2.47,3.25-2.32,6.9-13.39,12.97-8.22,1.11,3.48-4.66,9.56-6.17,12.64-2.57,5.27-3.83,11.74-6.82,17,.06,2.23,8.05,21.61,9.51,22.85,2.38,2.03,4.89-.33,7.13-1.49,6.33,9.91,7.96,22.04,9.77,33.5-8.49,4.78-21.13,8.25-30.52,4.56-12.06-4.74-18.25-25.54-20.58-37.18-.81-4.06-1.2-13.84-2.34-16.59-.41-.99-3.34-2.84-4.19-3.98-4.45-5.96-3.42-11.06-5.96-16.8-2.84-6.41-11.35-12.93-9.9-21.35,6.29-1.05,12.14,14.5,16.23,14.2,2.26-.17,2.88-2.05,2.62-4.1-.74-5.68-7.88-19.16-5.61-24.14.38-.84-.08-1.24,1.39-1.02,5.09.88,10.01,17.83,12.19,22.46l4.27.6c2.57-2.48.56-5.56.51-8.36-.04-2.49-.41-16.1.93-16.93l2.94.02Z"/>
    <path class="st1" d="M259.17,478.89c-2.83,3.43-14.37,7.42-9.79,12.59,2.43.78,5.85-3.49,8.28-5.02,1.75-1.1,5.59-3.27,7.49-3.59,1.62-.28,2.26-.35,1.93,1.54-3.32.26-15.4,8.56-9.26,11.32,2.51,1.12,5.11-3.23,6.96-4.51,3.12-2.16,7.18-5.4,11.01-3.62l-6.32,5.93-6.86,11.51c-17.03-1.52-35.04-2.11-51.73-5.96-6.68-1.54-3.75-6.02-2.77-11.52l51.06-8.68Z"/>
    <path class="st1" d="M159.37,498.55c-18.25,3.89-36.91,5.88-55.59,6.49-1.81-7.19-6.7-12.77-13.14-16.27,4.62-5.26,16.26,8,18.43,7.43,7.58-1.99-6.02-9.82-7.83-10.92-.76-.47-2.17.05-.72-1.66,1.24-1.46,7.49,2.11,8.86,3.01,2.78,1.83,4.38,4.93,7.64,5.58,2.21-1.08,2.63-2.93,1.21-4.93l-8.61-6.81,49.11,7.46.63,10.63Z"/>
    <path class="st1" d="M369.19,262.11c.58,4.73-7.38,18.31-12.73,14.65-4.1-2.8,4.49-10.04,5.96-13.9,1.36-3.58,3-8.77-2.68-7.82-.55,4.51-6.33,15.81-11.52,14.99-7.59-3.93,2.19-11.97,3.22-15.86.47-1.77-.64-3.01-.17-4.77.66-2.48,5.05-6.88,5.3-10.22,16.25,2.99,28.98,24.08,18.78,38.97-1.77,2.59-6.85,7.02-9,2.9-1.14-2.19,3.28-5.64,4.53-8.17,1.69-3.42,4.9-12.02-1.69-10.79Z"/>
    <path class="st1" d="M137.99,239.26c.55,2.25,2.66,4.77,2.94,6.95.25,1.9-.72,3.72-.43,5.91.44,3.27,4.51,6.8,2.74,10.72-2.75,6.09-8.61-.7-10.04-4.17s-.49-10.64-4.91-9.19c-2.96.97-.3,10.28.7,12.61.98,2.29,3.94,3.52,2.41,6.33-4.34,4.15-8.71-1.83-9.97-5.9-.68-2.18-.42-8.81-3.42-8.31-4.41.73-1.42,13.89,1.86,16.18-3.09,3.01-6.04.38-7.51-2.76-8.05-17.19,10.55-28.44,25.6-28.37Z"/>
    <path class="st1" d="M164.91,482.73l-58.36-8.68.81-8.52c.47-.79,6.92-.15,8.11,0,16.91,1.97,34.15,5.58,50.8,8.55l-1.35,8.66Z"/>
    <polygon class="st1" points="259.17 463.05 259.45 473.38 204.27 482.1 202.16 473.86 259.17 463.05"/>
    <path class="st1" d="M159.47,504.2c-.18,5.44-4.22,5.3-8.54,6.09-16.02,2.95-41.38,5-57.56,4.22-3.39-.16-15.68-1.23-18.02-2.55-1.28-.73-3.59-3.89-.92-3.84,3.19.06,7.05,1.35,10.28,1.6,24.6,1.94,50.37-1.67,74.76-5.52Z"/>
    <path class="st1" d="M293.98,508.16c-.63,4.66-8.46,5.11-12.36,5.43-15.12,1.26-34.56.07-49.74-1.48-3.68-.38-21.36-2.16-22.92-3.99-.47-.55-1.48-3.69-1.22-3.92,28.5,4.23,57.45,7.81,86.24,3.96Z"/>
    <path class="st1" d="M268.67,504.99c-.09-4.74,8.9-13.07,13.14-13.45,4.06-.36,11.45,6.42,12.14,10.69-.15,2.23-22.47,3.09-25.28,2.75Z"/>
    <path class="st1" d="M98.54,504.99c-7.72-.09-16.62.34-24.13-1.6-.9-.23-1.43.61-1.2-1.17.46-3.66,8.39-10.67,11.98-10.28,4.68.5,12.38,8.23,13.35,13.05Z"/>
    <path class="st1" d="M265.43,228.92c2.01,9.53,7.17,18.33,14.31,24.85-3.02,1.22-6.69,3.98-9.92,4.32-1.75.19-.87-.15-1.17-1.14-2.8-9.26-4.35-18.38-9.5-26.9l6.28-1.14Z"/>
    <polygon class="st1" points="206.16 466.19 203 467.01 189.62 412 193.12 410.05 206.16 466.19"/>
    <path class="st1" d="M141.27,376.81c-1.91,8.57-10.56,14.02-18.98,14.23l2.37-15.83,16.61,1.59Z"/>
    <path class="st1" d="M241.73,370.5l2.41,15.8c-6.6-1.34-12.31-6.49-14.24-13.03l11.83-2.77Z"/>
    <path class="st1" d="M190.33,376.02h4.75c.15,5.64.84,11.73-4.75,15.03v-15.03Z"/>
    <path class="st4" d="M320.66,225.8c3.23-.93,4.29,1.51,2.65,4.27-2.22,3.75-10.75,8.71-15.04,9.49-3.94.72-18.52.59-19.74-4.14-1.47-5.74,7.5-1.29,9.81-1.03,5.63.63,12.27-.32,16.97-3.62,1.62-1.14,3.94-4.56,5.35-4.97Z"/>
    <path class="st4" d="M308.79,202.84c8.59-2.44,1.97,20.13-2.54,12.56-.96-2.72-.56-11.68,2.54-12.56Z"/>
    <path class="st4" d="M289.14,214.49l-3.9-.24c-5.08-17.28,11.05-19.22,3.9.24Z"/>
    <path class="st4" d="M209.32,233.59c.14,8.03-13.41,5.69-18.62,3.99-4.24-1.38-17.1-8.32-15.3-13.76,1.53-4.62,6.23,2.49,7.4,3.47,2.13,1.79,9.47,6.31,11.89,6.31h14.64Z"/>
    <path class="st4" d="M195.68,200.55c1.63,1.67,3.02,15.35-1.79,15.35-5.78,0-4.57-21.87,1.79-15.35Z"/>
    <path class="st4" d="M215.06,200.56l2.96-.64c4.6,2.28,2.85,20.36-2.78,14.7-1.67-2.36-1.83-12.34-.18-14.06Z"/>
  </g>
  <g>
    <g>
      <text class="st3" transform="translate(80.16 594.81)"><tspan x="0" y="0">HOMBRE COMÚN</tspan></text>
      <text class="st5" transform="translate(36.23 586.37)"><tspan x="0" y="0">EL</tspan></text>
    </g>
    <rect class="st4" x="51.1" y="579.5" width="2.81" height="27.81" transform="translate(645.91 540.9) rotate(90)"/>
  </g>
  <g>
    <path class="st4" d="M45.11,62.47l-2.07,1.77c-.41,1.78.91,8.23-1.52,8.57-1.2.17-1.85-.62-1.98-1.72-.2-1.7-.2-7.39.57-8.71.35-.59,1.67-1.51,1.75-1.93.06-.33-.26-1.42-.22-2.1.14-2.34,1.1-7.4-1.05-8.99-1.42-1.06-8.54-.96-10.11-.05-.84.49-1.65,1.75-1.8,2.71-.14.9-.14,8.5.11,8.87.32.48,1.77.19,2.2,1.77.33,1.21.59,8.5.19,9.35-.52,1.1-2.75,1.13-3.04-.4l-.26-7.37c-1.14-.54-2.17-1.36-2.38-2.71-.28-1.8-.26-8.99.05-10.78s1.99-3.81,3.65-4.57c1.93-.88,8.49-.94,10.74-.67,1.11.13,1.54.8,2.51,1.07.84-3.25,3.43-5.29,6.75-5.57,2.24-.19,8.47-.25,10.35.53,2.09.88,3.37,2.79,4.25,4.79,1.09-.32,1.98-.95,3.16-1.08,1.73-.19,6.51-.21,8.15.06s3.93,1.96,4.75,3.46c1.27,2.32,1.35,9.28.98,11.96-.19,1.43-1.02,2.53-2.38,2.97l-.26,7.37c-.37,2.26-3.39,1.95-3.45-.25.6-2.71.03-6.04.6-8.68.37-1.74,2.11-.7,2.34-2.43s0-6.33-.29-8.21-2.29-2.88-4.09-3.06c-1.91-.19-6.31-.27-7.8.93-2.22,1.79-1.01,8.22-1.36,10.86.05.46,1.82,1.34,2.13,2.66.28,1.2.72,7.9.43,8.87-.07.23-.33.67-.52.8-3.68,2.61-2.7-7.15-3.12-8.58-.12-.39-1.51-1.79-2.07-1.78v9.67c0,.63-2.62,1.68-3.12-.06-.33-1.14.01-3.86-.04-5.25-.07-1.7-.5-4.41-.21-6.02.43-2.36,2.92-.98,3.34-2.22-.35-3.65,1.6-12.18-2.87-13.73-1.57-.55-7.98-.58-9.6-.06-3.41,1.1-3.3,4.49-3.41,7.48-.02.47.25.94.25,1.36-.01,1.02-.6,4.86.02,5.28,1.19.12,2.56.21,2.88,1.63s.28,9.49.07,11.09c-.31,2.35-3.19,1.31-3.19.52v-9.41Z"/>
    <path class="st4" d="M52.2,24.65c9.61-1.16,11.19,13.24,2.29,14.48-10.31,1.44-11.53-13.37-2.29-14.48ZM52.19,28.08c-3.71.76-4.01,7.16.2,7.63,6.49.73,5.85-8.86-.2-7.63Z"/>
    <path class="st4" d="M69.96,29.15c10.1-1.45,11.44,13.42,2.29,14.48-9.83,1.13-10.91-13.24-2.29-14.48ZM70.22,32.59c-3.98.74-3.77,7.52.73,7.64,5.86.16,5.31-8.76-.73-7.64Z"/>
    <path class="st4" d="M34.18,29.15c9.79-1.29,10.93,13.46,2.02,14.48-9.73,1.11-11.34-13.25-2.02-14.48ZM34.17,32.59c-3.89.72-3.74,6.99.22,7.6,6.07.94,6.25-8.79-.22-7.6Z"/>
  </g>
</svg>