<?xml version="1.0" encoding="UTF-8"?>
<svg id="Capa_1" xmlns="http://www.w3.org/2000/svg" version="1.1" viewBox="0 0 240.26 257.91">
  <!-- Generator: Adobe Illustrator 30.0.0, SVG Export Plug-In . SVG Version: 2.1.1 Build 123)  -->
  <defs>
    <style>
      .st0 {
        fill: #41af59;
      }
    </style>
  </defs>
  <path class="st0" d="M117.7.37c5.3-1.53,9.96,1.78,10.79,7.09.73,4.63,1.15,24.09-1.19,27.56-3.87,5.76-12.8,4.02-14.46-2.72,1.73-7.96-5.93-28.82,4.86-31.93Z"/>
  <g>
    <path class="st0" d="M141.95,242.15c-.54.34-1.9,5.14-3.08,6.78-9.16,12.57-28.08,11.77-36.41-1.28-1.06-1.66-1.25-5.22-1.65-5.56-1.02-.85-9.79-.01-14.31-4.75-7.67-8.05-2.09-39.25-4.51-51.99-1.97-10.37-9.5-14.17-15.14-21.65-40.28-53.44,4.58-125.87,71.19-110.61,44.92,10.29,66.12,65.06,41.55,103.83-8.54,13.47-19.4,16.07-20.84,34.35-.87,11.09,2.28,32.29-.54,41.5-.83,2.73-3.91,5.4-6.37,6.76-3.75,2.08-8.77,1.9-9.88,2.6ZM143.03,191.98c-4.11-25.31,21.12-33.72,27.65-55.78,12.45-42.02-25.07-78.05-67.07-65.76-28.97,8.48-41.76,41.99-31.22,69.32,7.28,18.87,28.88,27.48,26.16,50.04l1.77,2.17h42.7ZM143.03,209.06h-43.36v15.77h43.36v-15.77Z"/>
    <path class="st0" d="M4.66,105.52c2.53-.76,27.19-.76,29.71,0,7.19,2.16,5.88,14.64-2.66,16.55-3.93.88-20.47.88-24.4,0-8.57-1.91-9.82-14.4-2.66-16.55Z"/>
    <path class="st0" d="M35.62,28.09c7.18-6.79,22.44,9.76,26.63,15.39,6.98,9.38,1.04,19.52-8.55,15.11-1.14-.52-16.31-15.74-17.78-17.68-3.11-4.09-4.62-8.73-.3-12.82Z"/>
    <path class="st0" d="M205.78,29.37c8.12,7.45-13.27,28.01-18.43,30.24-9.42,4.08-14.9-5.91-8.22-14.81,1.34-1.78,15.42-15.89,16.47-16.38,3.23-1.48,7.19-.81,10.17.95Z"/>
    <path class="st0" d="M53.32,167.22c6.24-.98,11.34,6.23,8.56,12.6-.7,1.61-17.38,18.73-18.73,19.35-8.25,3.79-14.14-4.47-10.81-12.12,1.28-2.94,18.1-19.39,20.98-19.84Z"/>
    <path class="st0" d="M181.51,170.05c8.25-6.7,27.26,13.69,28.32,20.26.88,5.41-6.42,11.31-11.58,8.92-1.01-.47-14.98-13.7-16.32-15.26-3.61-4.2-5.27-9.97-.41-13.91Z"/>
    <path class="st0" d="M205.09,108.2c1.18-1.18,3.89-1.44,5.58-1.63,3.3-.35,21.94-.98,24.1-.45,7.95,1.96,6.47,14.21.64,15.96-1.34.4-25.1,1.04-26.45.7-6.01-1.5-7.39-11.05-3.86-14.59Z"/>
  </g>
</svg>