<?xml version="1.0" encoding="UTF-8"?>
<svg id="Capa_1" xmlns="http://www.w3.org/2000/svg" version="1.1" viewBox="0 0 311.12 261.13">
  <!-- Generator: Adobe Illustrator 30.0.0, SVG Export Plug-In . SVG Version: 2.1.1 Build 123)  -->
  <defs>
    <style>
      .st0 {
        fill: #63bde0;
      }
    </style>
  </defs>
  <path class="st0" d="M107.26.81c20.92-3.53,34.47,4.89,49.08,18.45,19.22-20.76,54.16-28.67,72.59-2.71,23.69,33.36-7.08,67.68-31.14,89.33-6.44,5.8-30.4,25.82-36.99,28.43-5.95,2.36-7.79,1.05-12.92-1.82-20.04-11.19-60.13-48.28-68.56-69.54-9.41-23.77-.3-57.37,27.94-62.14Z"/>
  <path class="st0" d="M304.85,38.75c2.69,2.81,4.41,7.98,4.85,11.86,3.37,29.68,1.48,97.05-13.93,122.72-12.01,20-51.97,46.25-55.2,65.46-1.44,8.58,2.46,24.26-11.48,21.89-9.18-1.56-7.35-20.9-6.45-28.19,2.43-19.79,40.58-46.01,53.59-62.71,22.48-28.86,13.03-84.13,14.56-118.43l-8.39,5.4c-.25,16.45-7.24,36.47-7.5,52.25-.11,6.91,4.44,10.48,2.48,19.78-2.75,13.06-32.81,40.92-40.72,53.78-6.88,3.6-15.42-3.61-13.97-10.96,1.74-8.75,29.96-34.91,35.36-44.73,3.41-7.55-4.38-9.21-10.22-5.84-6.43,3.71-19.76,24.24-28.25,31.34-12.67,10.6-27.34,15.34-34.17,32.7-8.56,21.76.55,48.27-3.96,68.73-2.24,10.17-17.27,9.54-18.66-1.07-1.85-14.12-.75-50.83,2.17-64.85,5.92-28.42,25.64-35.07,44.44-51.51,15.16-13.25,24.35-38.34,47.89-35.7,4.89-18.88,1.35-56.35,22.98-64.97,7.6-3.03,18.6-3.23,24.57,3.02Z"/>
  <path class="st0" d="M18.97,51.34c.72,34.63-3.6,70.83,8.66,103.99,10.18,27.52,57.56,51.21,60.95,80.06.77,6.52,2.21,22.78-5.24,24.97-16.92,4.98-12.17-15.32-13.84-24.79-2.44-13.76-46.77-48-56.1-66.01C.07,143.8-1.24,80.53.74,51.28c1.32-19.54,23.57-21.82,37.03-12.2,15.49,11.07,11.42,44.82,16.75,61.75,1.56,2.21,8.91,1.18,12.46,2.07,13.24,3.34,23.46,23.08,33.37,32.04,15.04,13.6,32.93,20.12,41.96,40.9,5.82,13.38,8.34,62.05,5.94,76.75-1.82,11.15-16.31,11.18-18.5,1.23-5.69-25.79,8.72-54.92-10.52-79.61-8.65-11.1-19.46-14.87-29.06-23.28-8.18-7.16-18.82-25.27-26.79-29.89-4.15-2.41-8.78-2.32-11.82,1.53l.06,2.83c4.75,9.69,35.62,38.28,36.86,46.18,1.14,7.26-6.93,15.26-14.27,11.3-7.95-13.49-37.81-40.24-40.37-54.09-1.79-9.71,2.77-13.17,2.63-19.94-.32-15.19-6.06-33.47-6.21-49.18-1.38-5.08-5.94-8.66-11.29-8.32Z"/>
</svg>