<?xml version="1.0" encoding="UTF-8"?>
<svg id="Capa_1" xmlns="http://www.w3.org/2000/svg" version="1.1" viewBox="0 0 297.04 253.64">
  <!-- Generator: Adobe Illustrator 30.0.0, SVG Export Plug-In . SVG Version: 2.1.1 Build 123)  -->
  <defs>
    <style>
      .st0 {
        fill: #e1384f;
      }
    </style>
  </defs>
  <path class="st0" d="M180.94,56.41l.07,7.45,115.21,176.34c2.69,6.46-1.49,14.34-9.15,13.35l-281.38-.67c-6.42-1.94-6.47-8.75-4.66-14.38l76.51-117.83c14.46-13.83,24.27,14.57,30.75,23.84l2.82.85,50.73-80c1.53-11.15-2.8-56.35,1.72-61.94,6.81-8.41,21.76.04,18.75,10.56,15.02-2.13,29.8.7,45.17,0,1.12,9.03-7.61,14.67-13.67,19.84,3.51,1.15,20.16,22.58,11.61,22.58h-44.48ZM211.05,142.62l-39.67-57.47c-3.87,11.55-18.22,24.23-22.27,34.66-.98,2.52-.86,2.07.2,4.39.95,2.09,18.66,23.54,20.19,23.8l16.41-13.32,25.14,7.93ZM53.65,235.7l44.61-71.14c1.4-4.97-10.9-16.07-11.79-21.93l-61.57,93.07h28.74Z"/>
</svg>