<?xml version="1.0" encoding="UTF-8"?>
<svg id="Capa_1" xmlns="http://www.w3.org/2000/svg" version="1.1" viewBox="0 0 312.57 242.64">
  <!-- Generator: Adobe Illustrator 30.0.0, SVG Export Plug-In . SVG Version: 2.1.1 Build 123)  -->
  <defs>
    <style>
      .st0 {
        fill: #41af59;
      }
    </style>
  </defs>
  <path class="st0" d="M163.53,2.26l56.55,99.06,73.52-67.03c9.3-8.2,20.95-1.09,18.68,10.73l-40.2,192.04-5.48,5.58-222.28-.36-6.01-8.21C29.04,173.57,11.29,112.87,1.75,52.67c-1.13-7.16-4.45-15.06,2.79-19.97,5.35-3.63,9.21-1.68,14.02,1.59l73.49,67.02L147.49,5.05c3.56-6.05,10.38-6.26,16.04-2.8ZM282.48,71.31c-.16,1.39-.61,2.83-1.7,3.78-20.51,17.92-39.62,37.93-61.11,54.41-4.52.93-8.88-1.62-11.21-5.55l-52.36-92.14-55.68,96.76c-4.6,2.19-9.26,1.44-13.06-2l-60.8-55.28,23.5,111.23,211.69.76,23.82-111.23-3.1-.74ZM257.17,203.98H54.99l4.13,19.05h193.93s4.12-19.05,4.12-19.05Z"/>
</svg>