<?xml version="1.0" encoding="UTF-8"?>
<svg id="Capa_1" xmlns="http://www.w3.org/2000/svg" version="1.1" viewBox="0 0 268.55 265.27">
  <!-- Generator: Adobe Illustrator 30.0.0, SVG Export Plug-In . SVG Version: 2.1.1 Build 123)  -->
  <defs>
    <style>
      .st0 {
        fill: #e9d04f;
      }
    </style>
  </defs>
  <path class="st0" d="M168.94,132.95l3.04-50.16c-38.18-.59-70.99-31.86-34.98-64.64,15.78-14.37,28.25-20.85,50.59-17.1,17.04,2.86,39.44,40.82,47.53,55.86,20.47,38.07,43.94,113.08,28.37,154.63-7.73,20.62-20.73,16.68-37.04,22.26-9.95,3.4-19.1,8.26-29.81,11.24-44.94,12.51-92.11,14.59-134.65-6.85-10.99,7.7-38.51,28.36-51.79,27.03-8.33-.83-11.82-10.77-6.3-16.79,2.66-2.89,21.87-9.37,28.08-12.97,5.25-3.04,12.29-8.05,16.88-12.01,6.08-5.25,5.78-12.98,16.79-9.25,4.06,1.37,4.7,5.66,8.61,8.11,42.26,26.46,105.69,7.05,147.86-8.04,7.04-2.52,17.82-.55,22.52-9.41,7.13-13.42,2.54-49.14-.17-64.58-6.11-34.79-21.06-69.6-41.75-98.12-10.69-14.73-18.22-28.32-38.83-18.4-16.11,7.76-35.85,25.46-9.45,36.28,15.18,6.22,21.98-2.19,33.45-.03,13.47,2.53,3.56,21.81,2.49,29.78-2.04,15.19-2.5,34.41-3.26,49.95-.36,7.22,3.27,22.26-3.33,25.57-8.83,4.43-10.27-5.22-15.83-9.32-12.31-9.1-36.45-12.77-51.34-10.73-6.09.83-12.88,6.87-17.66,5.36-4.96-1.57-10.69-14.47-14.53-19.04-14.74-17.54-37.33-21.19-58.38-13.03-7.13,2.76-16.3,12-23.52,3.73-11.78-13.5,20.92-25.59,30.74-26.92,29.88-4.04,55.9,6.76,71.76,32.35,21.77-6.77,42.88-1.06,63.92,5.26Z"/>
  <path class="st0" d="M159.08,188.43c6.85.18,10.28,7.05,7.58,12.91-8.04,17.41-64.5,24.54-70.39,5.03-5.24-17.37,14.67-8.77,21.73-8.03,7.41.78,17.35-.58,24.42-2.97,5.6-1.89,10.97-7.09,16.66-6.94Z"/>
</svg>