<?xml version="1.0" encoding="UTF-8"?>
<svg id="Capa_1" xmlns="http://www.w3.org/2000/svg" version="1.1" viewBox="0 0 265.27 230.49">
  <!-- Generator: Adobe Illustrator 30.0.0, SVG Export Plug-In . SVG Version: 2.1.1 Build 123)  -->
  <defs>
    <style>
      .st0 {
        fill: #41af59;
      }
    </style>
  </defs>
  <path class="st0" d="M94.19,180.37l-9.85,8.44c-1.95,8.47,4.34,39.17-7.25,40.79-5.73.8-8.8-2.93-9.41-8.21-.94-8.07-.96-35.16,2.73-41.46,1.66-2.83,7.97-7.18,8.34-9.16.3-1.57-1.24-6.75-1.04-9.99.68-11.16,5.22-35.23-5-42.81-6.77-5.03-40.64-4.57-48.1-.23-3.98,2.31-7.85,8.34-8.56,12.89-.67,4.27-.69,40.48.5,42.23,1.53,2.27,8.42.9,10.49,8.43,1.58,5.74,2.83,40.48.92,44.5-2.49,5.25-13.11,5.37-14.48-1.93l-1.24-35.08c-5.45-2.59-10.33-6.47-11.33-12.9-1.33-8.58-1.21-42.8.22-51.34,1.44-8.57,9.49-18.14,17.36-21.74,9.19-4.2,40.41-4.48,51.11-3.19,5.27.64,7.33,3.82,11.94,5.07,4-15.45,16.32-25.18,32.14-26.53,10.67-.91,40.33-1.21,49.27,2.54,9.97,4.18,16.06,13.29,20.22,22.8,5.21-1.52,9.41-4.51,15.06-5.12,8.21-.89,30.97-1.02,38.81.31,8.13,1.37,18.72,9.31,22.63,16.47,6.03,11.04,6.41,44.16,4.68,56.91-.93,6.81-4.87,12.05-11.32,14.14l-1.26,35.1c-1.75,10.78-16.13,9.28-16.41-1.21,2.83-12.9.17-28.73,2.88-41.33,1.78-8.28,10.02-3.33,11.14-11.57,1.17-8.6-.05-30.11-1.4-39.08-1.42-9.41-10.92-13.71-19.49-14.57-9.1-.91-30.06-1.29-37.15,4.45-10.55,8.53-4.81,39.12-6.45,51.71.26,2.17,8.67,6.38,10.12,12.65,1.33,5.73,3.44,37.62,2.03,42.24-.34,1.1-1.59,3.17-2.49,3.81-17.53,12.42-12.85-34.01-14.86-40.83-.55-1.87-7.2-8.53-9.83-8.46v46.04c0,3.02-12.49,8.01-14.87-.27-1.56-5.42.06-18.37-.21-25.01-.32-8.11-2.4-20.99-1.02-28.67,2.03-11.25,13.91-4.68,15.89-10.59-1.68-17.39,7.6-57.97-13.68-65.38-7.46-2.6-37.98-2.75-45.68-.28-16.24,5.22-15.72,21.36-16.22,35.6-.08,2.25,1.2,4.48,1.18,6.46-.06,4.86-2.88,23.15.1,25.15,5.66.58,12.17.98,13.69,7.76,1.49,6.65,1.32,45.15.33,52.78-1.45,11.21-15.2,6.23-15.2,2.46v-44.78Z"/>
  <path class="st0" d="M127.95.32c45.73-5.52,53.27,63.04,10.92,68.94C89.77,76.1,84,5.62,127.95.32ZM127.91,16.68c-17.68,3.6-19.08,34.06.94,36.31,30.9,3.47,27.82-42.17-.94-36.31Z"/>
  <path class="st0" d="M212.46,21.76c48.09-6.9,54.44,63.9,10.89,68.9-46.8,5.37-51.93-63.01-10.89-68.9ZM213.69,38.13c-18.94,3.51-17.94,35.78,3.47,36.36,27.91.77,25.29-41.69-3.47-36.36Z"/>
  <path class="st0" d="M42.17,21.76c46.62-6.15,52.04,64.08,9.63,68.9C5.48,95.93-2.16,27.61,42.17,21.76ZM42.14,38.13c-18.51,3.41-17.81,33.27,1.05,36.19,28.88,4.47,29.76-41.86-1.05-36.19Z"/>
</svg>