<?xml version="1.0" encoding="UTF-8"?>
<svg id="Capa_1" xmlns="http://www.w3.org/2000/svg" version="1.1" viewBox="0 0 282.43 282.09">
  <!-- Generator: Adobe Illustrator 30.0.0, SVG Export Plug-In . SVG Version: 2.1.1 Build 123)  -->
  <defs>
    <style>
      .st0 {
        fill: #e1384f;
      }
    </style>
  </defs>
  <path class="st0" d="M122.57.81c113.33-11.54,196.75,102.82,143.3,206.09-52.12,100.71-200.92,100.33-251.27-1.61C-27.74,119.52,26.16,10.62,122.57.81ZM124.23,22.29C-20.57,37.82-7.87,266.44,143.55,261.38c162.44-5.43,151.21-257.37-19.32-239.09Z"/>
  <path class="st0" d="M78.69,170.91c10.17-10.16,19.47,7.63,25.18,12.87,21.14,19.39,51.85,19.33,73.59.8,7.7-6.56,12.38-20.82,24.78-14.88,17.09,8.19-12.84,33.49-20.99,38.5-27.3,16.76-61.87,15.11-87.21-4.67-7.32-5.72-24.82-23.15-15.35-32.61Z"/>
  <path class="st0" d="M183.65,93.29c14.17-2.02,30,3.3,38.13,15.54,5.51,8.3,9.79,25.59-4.02,26.97-15.97,1.6-7.74-16.93-22.1-20.67-25.1-6.56-15.12,21.67-30.5,20.67-22.13-1.43-7.87-38.75,18.49-42.5Z"/>
  <path class="st0" d="M84.48,93.26c15.7-2.52,31.44,3.54,39.49,17.54,5.05,8.78,6.64,22.42-5.95,24.36-15.26,2.35-7.18-26.41-31.51-20.03-13.61,3.57-6.34,15.61-15.27,19.45-8.8,3.79-16.4-3.67-15.98-12.67.62-13.47,16.53-26.62,29.21-28.65Z"/>
</svg>