<?xml version="1.0" encoding="UTF-8"?>
<svg id="Capa_1" xmlns="http://www.w3.org/2000/svg" version="1.1" viewBox="0 0 309.19 233.45">
  <!-- Generator: Adobe Illustrator 30.0.0, SVG Export Plug-In . SVG Version: 2.1.1 Build 123)  -->
  <defs>
    <style>
      .st0 {
        fill: #e9d04f;
      }
    </style>
  </defs>
  <path class="st0" d="M146.04,84.64c-1.18-18.75-8.52-49.21-24.35-60.72-5.22-3.79-16.49-5.28-11.75-16.13,8.92-20.44,42.11,16.33,43.29,28.22l13.55-20.03c5.77-7.1,25.28-22.04,31.45-8.55,5.7,12.46-9.5,14.11-15.77,19.94-13.12,12.17-19.16,37.06-17.8,54.41,22.66-22.56,45.59-48.04,73.04-64.95,16.65-10.25,46.14-24.84,64.14-11.47,14.95,11.11,2.98,28.39-.1,42.62-5.03,23.25,2.15,46.16-10.65,66.57-5.93,9.46-15.06,15.89-26.34,17.29,25.46,30.51,16.3,67.1-15.29,88.38-6.45,4.35-23.81,13.18-31.19,13.18-16.97,0-42.81-33.23-50.79-47.22-4.05-1.05-2.37,2.44-4.19,5.02-5.08,7.19-18.05,3.97-17.27-5.54l-2.8-.91c-7.77,12.31-18.55,25.95-29.31,35.78-18.72,17.09-26.29,16.15-47.83,3.42-34.98-20.67-49.28-58.22-21.57-92.11-18.17-.37-32.62-21.34-34.3-37.93-.96-9.51.65-20.07-.2-29.83C8.7,49.16-2.44,26.94.49,14.15,2.52,5.26,15.57.57,23.72.21c47.91-2.14,91.41,54.21,122.32,84.44ZM18.77,18.87c.82,11.29,6.26,21.52,8.2,32.56,4.67,26.59-8.01,60.98,29.72,64.67,8.74.85,26.86-3.67,30.14,7.12,4.17,13.7-14.75,12.31-22.36,16.42-35.84,19.32-6.3,70.47,26.29,74.79,3.42-.54,21.17-18.65,24.57-22.5,7.83-8.89,28.96-37.31,30.64-48.02.67-4.3.82-27.63-.2-31.08-.51-1.73-18.84-22.06-21.85-25.34C97.62,58.91,59.98,18.46,18.77,18.87ZM290.48,18.87c-3.97.12-8.02-.35-11.99.15-29.64,3.74-74.57,47.9-94.56,69.89-2.88,3.16-18.4,20.48-19,22.47-1.06,3.51-.87,28.05-.2,32.51,2.12,13.98,39.66,66.03,52.49,69.16,9.54,2.33,30.16-13.1,35.84-20.69,11.44-15.29,11.04-41.92-7.32-52.25-8.5-4.79-25.63-2.22-23.86-16.01,1.53-11.96,18.92-7.23,27.82-8.02,41.96-3.72,27.37-36.48,32.62-66.05,1.87-10.56,6.41-20.57,8.16-31.16Z"/>
</svg>