<?xml version="1.0" encoding="UTF-8"?>
<svg id="Capa_1" xmlns="http://www.w3.org/2000/svg" version="1.1" viewBox="0 0 226.9 323.38">
  <!-- Generator: Adobe Illustrator 30.0.0, SVG Export Plug-In . SVG Version: 2.1.1 Build 123)  -->
  <defs>
    <style>
      .st0 {
        fill: #e9d04f;
      }
    </style>
  </defs>
  <path class="st0" d="M202.3,135.88c-12.59,7.58-22.27,7-35.28,1.03-3.28-1.5-6.54-5.8-8.61-6.3-2.67-.65-13.38,3.66-20.01,3.55-7.04-.13-11.15-2.32-17.56-3.81,15.89,14.83,16.94,35.86,14.92,56.56-.92,9.45-5.58,13.75-15.44,11.54-13.09-2.94-7.46-21.35-9.19-31.57-1.61-9.52-12.27-22.84-20.46-27.67-9.33-5.5-25.57-4.6-27.19-17.37-3.24-25.53,42.5-8,44.38-37.77-16.97-.17-33.99.16-50.97.07-8.36-.04-19.36-4.71-26.84,4.48-8.96,11.01-5.57,50.64-.81,63.89,7.41,20.64,42.28,41.9,45.15,62.22,3.96,28.01-6.48,66.77-3.66,95.98-.1,11.89-15.69,16.81-22.96,8.39-6.35-7.35.55-49.89.94-61.88.43-13.38-.06-26.98-.53-40.35-13.75-22.35-38.48-37.75-44.96-64.26-4.7-19.22-5.62-62.57,6.55-78.72,3.63-4.82,11.8-8.78,13.79-12.13,3.4-5.75,3.85-23.67,6.48-32.4C36.79,6.9,46.93-3.13,71.67.85c5.77.93,14.78,8.38,16.78,8.51,5.64.36,10.62-8.09,27.67-2.98,10.6,3.18,17.67,14.68,18.88,14.86,4.77.69,13.24-3.25,22.97-1.16,11.05,2.37,13.15,10.78,18.44,13.03,5.49,2.34,16.52,1.57,23.69,4.08,11.02,3.86,20.12,14.37,22.4,25.73,3.02,15.05,3.5,42.8,3.94,59,.89,33.23,2.46,63.98-16.82,92.56l5.59,100c-2.09,11.17-20.82,13.21-23.89-1.93-3.29-16.24-8.34-94.49-4.81-108.22,2.39-9.28,15.79-26.01,15.79-36.04v-32.4ZM72.5,26.85l-14.39-1.84-5.77,33.11,18.51,1.86,1.65-33.13ZM115.03,32.48l-16.15-1.85c-1.75,1.11-5.32,28-3.97,29.37l18.43-.11,1.69-27.41ZM130.19,108.03c6.34-.09,13.2,5.06,17.48-1.79,2.2-18.42,7.28-37.17,9.47-55.49.87-7.27-15.06-10.42-18.27-3.28-1.92,4.26-10.8,58.36-8.68,60.56ZM172.9,113.44c4.3,1.05,14.41,6.77,17.46,2.16l8.12-49.32c-.39-6.21-13.46-7.46-18.39-8.17l-7.19,55.33Z"/>
</svg>