<?xml version="1.0" encoding="UTF-8"?>
<svg id="Capa_1" xmlns="http://www.w3.org/2000/svg" version="1.1" viewBox="0 0 332.49 252.33">
  <!-- Generator: Adobe Illustrator 30.0.0, SVG Export Plug-In . SVG Version: 2.1.1 Build 123)  -->
  <defs>
    <style>
      .st0 {
        fill: #e1384f;
      }
    </style>
  </defs>
  <path class="st0" d="M167.84,42.08c11.76-21.49,38.58-30.58,61.59-35.35,25.21-5.23,68.7-8.34,94.02-5.41,3.65.42,6.43,1.31,9.04,3.99l-.92,212.67c-1.71,1.61-6.04,2.56-8.42,2.66-46.21,1.88-92.55-7.59-134.97,18.47-7.46,4.59-13.18,13.2-22.76,13.22-8.83.02-14.39-8.28-21.48-12.88-20.93-13.57-49.89-18.44-74.63-19.83-10.62-.6-64.75,2-68.82-2.03L0,5.31C2.61,2.63,5.39,1.75,9.04,1.32c33.77-3.91,99.76.63,130.05,16.61,11.36,5.99,19.03,16.14,28.75,24.15ZM156.47,216.34V68.95c0-7.8-10.4-19.58-16.27-24.45C110.16,19.54,56.57,23.3,19.66,22.53v167.75c45.4-3.83,99.36-3.07,136.81,26.06ZM312.82,22.53c-38.13-.82-137.01-1.19-136.95,54.57.04,43.18,3.06,86.91,1.86,130.37-.08,2.75-.45,4.81-1.71,7.23,9.33-4.27,17.58-10.55,27.26-14.25,33.43-12.79,74.37-13.55,109.55-10.16V22.53Z"/>
</svg>